SplineFontDB: 3.0
FontName: ElsieSwashCaps-Regular
FullName: Elsie Swash Caps
FamilyName: Elsie Swash Caps
Weight: Book
Copyright: Copyright (c) 2010-2012, Alejandro Inler (alejandroinler@gmail.com), with Reserved Font Name 'Elsie'
Version: 1.001
ItalicAngle: 0
UnderlinePosition: -50
UnderlineWidth: 50
Ascent: 800
Descent: 200
sfntRevision: 0x00010042
LayerCount: 2
Layer: 0 1 "Back"  1
Layer: 1 1 "Fore"  0
XUID: [1021 27 1370585078 9855831]
FSType: 0
OS2Version: 3
OS2_WeightWidthSlopeOnly: 0
OS2_UseTypoMetrics: 1
CreationTime: 1267061160
ModificationTime: 1354445657
PfmFamily: 17
TTFWeight: 400
TTFWidth: 5
LineGap: 0
VLineGap: 0
Panose: 2 0 0 0 0 0 0 0 0 0
OS2TypoAscent: 878
OS2TypoAOffset: 0
OS2TypoDescent: -274
OS2TypoDOffset: 0
OS2TypoLinegap: 0
OS2WinAscent: 878
OS2WinAOffset: 0
OS2WinDescent: 274
OS2WinDOffset: 0
HheadAscent: 878
HheadAOffset: 0
HheadDescent: -274
HheadDOffset: 0
OS2SubXSize: 650
OS2SubYSize: 600
OS2SubXOff: 0
OS2SubYOff: 75
OS2SupXSize: 650
OS2SupYSize: 600
OS2SupXOff: 0
OS2SupYOff: 350
OS2StrikeYSize: 50
OS2StrikeYPos: 288
OS2Vendor: 'pyrs'
OS2CodePages: 20000081.00000000
OS2UnicodeRanges: 8000002f.5000204a.00000000.00000000
Lookup: 4 0 1 "'liga' Standard Ligatures lookup 0"  {"'liga' Standard Ligatures lookup 0 subtable"  } ['liga' ('DFLT' <'dflt' > ) ]
DEI: 91125
ShortTable: maxp 16
  1
  0
  270
  113
  6
  0
  0
  2
  0
  1
  1
  0
  64
  0
  0
  0
EndShort
LangName: 1033 "" "" "" "AlejandroInler: Elsie Swash Caps: 2010" "" "1.001" "" "Elsie is a trademark of Alejandro Inler." "Alejandro Inler" "Alejandro Inler" "" "" "" "This Font Software is licensed under the SIL Open Font License, Version 1.1. This license is available with a FAQ at: http://scripts.sil.org/OFL" "http://scripts.sil.org/OFL" 
GaspTable: 1 65535 2 0
Encoding: UnicodeBmp
UnicodeInterp: none
NameList: AGL For New Fonts
DisplaySize: -24
AntiAlias: 1
FitToEm: 1
BeginChars: 65551 270

StartChar: exclam
Encoding: 33 33 4
Width: 281
GlyphClass: 2
Flags: W
LayerCount: 2
Fore
SplineSet
199 48 m 128,-1,1
 199 23 199 23 182.5 6.5 c 128,-1,2
 166 -10 166 -10 141 -10 c 128,-1,3
 116 -10 116 -10 99 6.5 c 128,-1,4
 82 23 82 23 82 48 c 128,-1,5
 82 73 82 73 99 90 c 128,-1,6
 116 107 116 107 141 107 c 128,-1,7
 166 107 166 107 182.5 90 c 128,-1,0
 199 73 199 73 199 48 c 128,-1,1
148 200 m 1,8,-1
 132 200 l 1,9,10
 132 370 132 370 94 535 c 0,11,12
 82 590 82 590 82 613 c 128,-1,13
 82 636 82 636 97 653 c 128,-1,14
 112 670 112 670 140 670 c 128,-1,15
 168 670 168 670 183 653 c 128,-1,16
 198 636 198 636 198 613 c 128,-1,17
 198 590 198 590 186 535 c 0,18,19
 148 370 148 370 148 200 c 1,8,-1
EndSplineSet
EndChar

StartChar: quotedbl
Encoding: 34 34 5
Width: 198
GlyphClass: 2
Flags: W
LayerCount: 2
Fore
SplineSet
40 700 m 1,0,-1
 59 700 l 1,1,-1
 59 488 l 1,2,-1
 40 488 l 1,3,-1
 40 700 l 1,0,-1
133 700 m 1,4,-1
 152 700 l 1,5,-1
 152 488 l 1,6,-1
 133 488 l 1,7,-1
 133 700 l 1,4,-1
EndSplineSet
EndChar

StartChar: numbersign
Encoding: 35 35 6
Width: 729
GlyphClass: 2
Flags: W
LayerCount: 2
Fore
SplineSet
71 140 m 1,0,-1
 71 161 l 1,1,-1
 227 161 l 1,2,-1
 279 316 l 1,3,-1
 135 316 l 1,4,-1
 135 337 l 1,5,-1
 286 337 l 1,6,-1
 338 488 l 1,7,-1
 360 488 l 1,8,-1
 308 337 l 1,9,-1
 481 337 l 1,10,-1
 533 488 l 1,11,-1
 555 488 l 1,12,-1
 503 337 l 1,13,-1
 649 337 l 1,14,-1
 649 316 l 1,15,-1
 496 316 l 1,16,-1
 444 161 l 1,17,-1
 585 161 l 1,18,-1
 585 140 l 1,19,-1
 437 140 l 1,20,-1
 386 -10 l 1,21,-1
 364 -10 l 1,22,-1
 415 140 l 1,23,-1
 242 140 l 1,24,-1
 191 -10 l 1,25,-1
 169 -10 l 1,26,-1
 220 140 l 1,27,-1
 71 140 l 1,0,-1
301 316 m 1,28,-1
 249 161 l 1,29,-1
 422 161 l 1,30,-1
 474 316 l 1,31,-1
 301 316 l 1,28,-1
EndSplineSet
EndChar

StartChar: dollar
Encoding: 36 36 7
Width: 442
GlyphClass: 2
Flags: W
LayerCount: 2
Fore
SplineSet
224 -62 m 1,0,-1
 204 -62 l 1,1,-1
 204 -8 l 1,2,3
 178 -5 178 -5 148 8 c 128,-1,4
 118 21 118 21 107.5 21 c 128,-1,5
 97 21 97 21 88 12 c 128,-1,6
 79 3 79 3 77 -10 c 1,7,-1
 64 -10 l 1,8,-1
 64 173 l 1,9,-1
 78 173 l 1,10,11
 100 22 100 22 204 9 c 1,12,-1
 204 212 l 1,13,14
 96 260 96 260 73 312 c 0,15,16
 62 337 62 337 62 369 c 0,17,18
 62 430 62 430 106.5 469 c 128,-1,19
 151 508 151 508 211 508 c 2,20,-1
 213 508 l 1,21,-1
 213 570 l 1,22,-1
 233 570 l 1,23,-1
 233 506 l 1,24,25
 259 503 259 503 291 490 c 128,-1,26
 323 477 323 477 332 477 c 0,27,28
 354 477 354 477 358 508 c 1,29,-1
 370 508 l 1,30,-1
 370 343 l 1,31,-1
 356 343 l 1,32,33
 332 474 332 474 233 488 c 1,34,-1
 233 311 l 1,35,36
 314 273 314 273 341 251 c 0,37,38
 390 210 390 210 390 142.5 c 128,-1,39
 390 75 390 75 343 32.5 c 128,-1,40
 296 -10 296 -10 225 -10 c 2,41,-1
 224 -10 l 1,42,-1
 224 -62 l 1,0,-1
227 8 m 2,43,44
 269 8 269 8 301 27.5 c 128,-1,45
 333 47 333 47 333 88 c 128,-1,46
 333 129 333 129 305.5 153.5 c 128,-1,47
 278 178 278 178 224 203 c 1,48,-1
 224 8 l 1,49,-1
 227 8 l 2,43,44
153.5 469.5 m 128,-1,51
 129 449 129 449 129 416.5 c 128,-1,52
 129 384 129 384 150.5 362 c 128,-1,53
 172 340 172 340 213 320 c 1,54,-1
 213 490 l 1,55,-1
 211 490 l 2,56,50
 178 490 178 490 153.5 469.5 c 128,-1,51
EndSplineSet
EndChar

StartChar: percent
Encoding: 37 37 8
Width: 979
GlyphClass: 2
Flags: W
LayerCount: 2
Fore
SplineSet
599 376.5 m 128,-1,1
 653 445 653 445 741.5 445 c 128,-1,2
 830 445 830 445 884.5 376.5 c 128,-1,3
 939 308 939 308 939 212 c 128,-1,4
 939 116 939 116 884.5 48 c 128,-1,5
 830 -20 830 -20 741.5 -20 c 128,-1,6
 653 -20 653 -20 599 48.5 c 128,-1,7
 545 117 545 117 545 212.5 c 128,-1,0
 545 308 545 308 599 376.5 c 128,-1,1
741 427 m 0,8,9
 635 427 635 427 635 212.5 c 128,-1,10
 635 -2 635 -2 741 -2 c 0,11,12
 849 -2 849 -2 849 212.5 c 128,-1,13
 849 427 849 427 741 427 c 0,8,9
501 581 m 0,14,15
 475 581 475 581 447 587.5 c 128,-1,16
 419 594 419 594 404 601 c 2,17,-1
 390 608 l 1,18,19
 434 544 434 544 434 452.5 c 128,-1,20
 434 361 434 361 379.5 293 c 128,-1,21
 325 225 325 225 236.5 225 c 128,-1,22
 148 225 148 225 94 293.5 c 128,-1,23
 40 362 40 362 40 457.5 c 128,-1,24
 40 553 40 553 94 621.5 c 128,-1,25
 148 690 148 690 236 690 c 0,26,27
 292 690 292 690 360 644 c 1,28,29
 387 627 387 627 425 613 c 128,-1,30
 463 599 463 599 501 599 c 0,31,32
 576 599 576 599 624 633.5 c 128,-1,33
 672 668 672 668 688 701 c 1,34,-1
 697 717 l 1,35,-1
 714 710 l 1,36,-1
 291 -27 l 1,37,-1
 277 -18 l 1,38,-1
 645 625 l 1,39,40
 579 581 579 581 501 581 c 0,14,15
236 672 m 0,41,42
 130 672 130 672 130 457.5 c 128,-1,43
 130 243 130 243 236 243 c 0,44,45
 344 243 344 243 344 457.5 c 128,-1,46
 344 672 344 672 236 672 c 0,41,42
EndSplineSet
EndChar

StartChar: ampersand
Encoding: 38 38 9
Width: 661
GlyphClass: 2
Flags: W
LayerCount: 2
Fore
SplineSet
513 266 m 128,-1,1
 477 305 477 305 426 305 c 128,-1,2
 375 305 375 305 347 273.5 c 128,-1,3
 319 242 319 242 319 199.5 c 128,-1,4
 319 157 319 157 344 126 c 128,-1,5
 369 95 369 95 411 95 c 0,6,7
 433 95 433 95 449 105 c 1,8,9
 455 110 455 110 455 114 c 0,10,11
 455 123 455 123 446 123 c 0,12,13
 444 123 444 123 437 119 c 128,-1,14
 430 115 430 115 416 115 c 128,-1,15
 402 115 402 115 390 129 c 128,-1,16
 378 143 378 143 378 164 c 128,-1,17
 378 185 378 185 392.5 200.5 c 128,-1,18
 407 216 407 216 433 216 c 128,-1,19
 459 216 459 216 477 195.5 c 128,-1,20
 495 175 495 175 495 143.5 c 128,-1,21
 495 112 495 112 469 94.5 c 128,-1,22
 443 77 443 77 411 77 c 0,23,24
 356 77 356 77 324.5 114 c 128,-1,25
 293 151 293 151 293 202 c 0,26,27
 293 273 293 273 348.5 320 c 128,-1,28
 404 367 404 367 493 375 c 0,29,30
 510 376 510 376 538 377.5 c 128,-1,31
 566 379 566 379 582 380.5 c 128,-1,32
 598 382 598 382 620.5 385 c 128,-1,33
 643 388 643 388 655.5 393.5 c 128,-1,34
 668 399 668 399 680 408 c 1,35,36
 704 423 704 423 704 463 c 128,-1,37
 704 503 704 503 678.5 526.5 c 128,-1,38
 653 550 653 550 619 550 c 0,39,40
 603 550 603 550 588.5 541.5 c 128,-1,41
 574 533 574 533 574 524 c 128,-1,42
 574 515 574 515 583 515 c 0,43,44
 587 515 587 515 593.5 522.5 c 128,-1,45
 600 530 600 530 618 530 c 128,-1,46
 636 530 636 530 649.5 515 c 128,-1,47
 663 500 663 500 663 478.5 c 128,-1,48
 663 457 663 457 647 441 c 128,-1,49
 631 425 631 425 605 425 c 128,-1,50
 579 425 579 425 560.5 444.5 c 128,-1,51
 542 464 542 464 542 494 c 128,-1,52
 542 524 542 524 566 546 c 128,-1,53
 590 568 590 568 626.5 568 c 128,-1,54
 663 568 663 568 693 537.5 c 128,-1,55
 723 507 723 507 723 459 c 128,-1,56
 723 411 723 411 700 379 c 128,-1,57
 677 347 677 347 644 334 c 0,58,59
 577 306 577 306 522 306 c 2,60,-1
 499 306 l 1,61,62
 567 256 567 256 567 175.5 c 128,-1,63
 567 95 567 95 505 37.5 c 128,-1,64
 443 -20 443 -20 331.5 -20 c 128,-1,65
 220 -20 220 -20 161 41 c 128,-1,66
 102 102 102 102 102 175 c 128,-1,67
 102 248 102 248 139 296.5 c 128,-1,68
 176 345 176 345 229 370 c 1,69,-1
 227 380 l 1,70,71
 136 408 136 408 136 509 c 0,72,73
 136 580 136 580 190.5 625 c 128,-1,74
 245 670 245 670 310.5 670 c 128,-1,75
 376 670 376 670 421 638.5 c 128,-1,76
 466 607 466 607 466 549 c 0,77,78
 466 519 466 519 446.5 498.5 c 128,-1,79
 427 478 427 478 400.5 478 c 128,-1,80
 374 478 374 478 357.5 493.5 c 128,-1,81
 341 509 341 509 341 531.5 c 128,-1,82
 341 554 341 554 354 569.5 c 128,-1,83
 367 585 367 585 386 585 c 128,-1,84
 405 585 405 585 416 576.5 c 128,-1,85
 427 568 427 568 428.5 558 c 128,-1,86
 430 548 430 548 438.5 548 c 128,-1,87
 447 548 447 548 447 557 c 0,88,89
 447 592 447 592 414.5 620 c 128,-1,90
 382 648 382 648 341 648 c 0,91,92
 228 648 228 648 228 510 c 0,93,94
 228 462 228 462 249.5 428.5 c 128,-1,95
 271 395 271 395 312 395 c 0,96,97
 334 395 334 395 362 406 c 1,98,-1
 372 409 l 1,99,-1
 377 391 l 1,100,101
 283 361 283 361 245 320.5 c 128,-1,102
 207 280 207 280 207 191.5 c 128,-1,103
 207 103 207 103 258 60.5 c 128,-1,104
 309 18 309 18 390 18 c 0,105,106
 449 18 449 18 499 59.5 c 128,-1,107
 549 101 549 101 549 164 c 128,-1,0
 549 227 549 227 513 266 c 128,-1,1
EndSplineSet
EndChar

StartChar: quotesingle
Encoding: 39 39 10
Width: 422
GlyphClass: 2
Flags: W
LayerCount: 2
Fore
SplineSet
177 700 m 1,0,-1
 196 700 l 1,1,-1
 196 488 l 1,2,-1
 177 488 l 1,3,-1
 177 700 l 1,0,-1
EndSplineSet
EndChar

StartChar: parenleft
Encoding: 40 40 11
Width: 423
GlyphClass: 2
Flags: W
LayerCount: 2
Fore
SplineSet
234.5 560.5 m 128,-1,1
 167 437 167 437 167 247.5 c 128,-1,2
 167 58 167 58 234.5 -65.5 c 128,-1,3
 302 -189 302 -189 423 -189 c 1,4,-1
 423 -205 l 1,5,6
 336 -205 336 -205 267.5 -167.5 c 128,-1,7
 199 -130 199 -130 156 -66 c 0,8,9
 70 64 70 64 70 247 c 0,10,11
 70 431 70 431 156 561 c 0,12,13
 199 625 199 625 267.5 662.5 c 128,-1,14
 336 700 336 700 423 700 c 1,15,-1
 423 684 l 1,16,0
 302 684 302 684 234.5 560.5 c 128,-1,1
EndSplineSet
EndChar

StartChar: parenright
Encoding: 41 41 12
Width: 423
GlyphClass: 2
Flags: W
LayerCount: 2
Fore
SplineSet
188.5 -65.5 m 128,-1,1
 256 58 256 58 256 247.5 c 128,-1,2
 256 437 256 437 188.5 560.5 c 128,-1,3
 121 684 121 684 0 684 c 1,4,-1
 0 700 l 1,5,6
 87 700 87 700 155.5 662.5 c 128,-1,7
 224 625 224 625 266 561 c 0,8,9
 353 431 353 431 353 247 c 0,10,11
 353 64 353 64 266 -66 c 0,12,13
 224 -130 224 -130 155.5 -167.5 c 128,-1,14
 87 -205 87 -205 0 -205 c 1,15,-1
 0 -189 l 1,16,0
 121 -189 121 -189 188.5 -65.5 c 128,-1,1
EndSplineSet
EndChar

StartChar: asterisk
Encoding: 42 42 13
Width: 328
GlyphClass: 2
Flags: W
LayerCount: 2
Fore
SplineSet
198 705 m 128,-1,1
 212 691 212 691 212 670 c 128,-1,2
 212 649 212 649 188.5 617.5 c 128,-1,3
 165 586 165 586 164 576 c 1,4,5
 163 585 163 585 139.5 617 c 128,-1,6
 116 649 116 649 116 670 c 128,-1,7
 116 691 116 691 130 705 c 128,-1,8
 144 719 144 719 164 719 c 128,-1,0
 184 719 184 719 198 705 c 128,-1,1
132 567 m 2,9,-1
 79 564 l 1,10,11
 52 564 52 564 36 578 c 128,-1,12
 20 592 20 592 20 613.5 c 128,-1,13
 20 635 20 635 34.5 648.5 c 128,-1,14
 49 662 49 662 70.5 662 c 128,-1,15
 92 662 92 662 107 641 c 128,-1,16
 122 620 122 620 131.5 595 c 128,-1,17
 141 570 141 570 151 564 c 1,18,19
 143 567 143 567 132 567 c 2,9,-1
248 564 m 1,20,-1
 196 567 l 2,21,22
 184 567 184 567 177 564 c 1,23,24
 187 570 187 570 196.5 595 c 128,-1,25
 206 620 206 620 221 641 c 128,-1,26
 236 662 236 662 257.5 662 c 128,-1,27
 279 662 279 662 293.5 648.5 c 128,-1,28
 308 635 308 635 308 613.5 c 128,-1,29
 308 592 308 592 291.5 578 c 128,-1,30
 275 564 275 564 248 564 c 1,20,-1
79 552 m 1,31,-1
 132 548 l 2,32,33
 141 548 141 548 151 552 c 1,34,35
 141 546 141 546 131.5 521 c 128,-1,36
 122 496 122 496 107 475 c 128,-1,37
 92 454 92 454 70.5 454 c 128,-1,38
 49 454 49 454 34.5 467.5 c 128,-1,39
 20 481 20 481 20 502 c 128,-1,40
 20 523 20 523 36 537.5 c 128,-1,41
 52 552 52 552 79 552 c 1,31,-1
130 411.5 m 128,-1,43
 116 425 116 425 116 446 c 128,-1,44
 116 467 116 467 139.5 498.5 c 128,-1,45
 163 530 163 530 164 540 c 1,46,47
 165 529 165 529 188.5 497.5 c 128,-1,48
 212 466 212 466 212 445.5 c 128,-1,49
 212 425 212 425 198 411.5 c 128,-1,50
 184 398 184 398 164 398 c 128,-1,42
 144 398 144 398 130 411.5 c 128,-1,43
196 548 m 2,51,-1
 248 552 l 1,52,53
 275 552 275 552 291.5 537.5 c 128,-1,54
 308 523 308 523 308 502 c 128,-1,55
 308 481 308 481 293.5 467.5 c 128,-1,56
 279 454 279 454 257.5 454 c 128,-1,57
 236 454 236 454 221 475 c 128,-1,58
 206 496 206 496 196.5 521 c 128,-1,59
 187 546 187 546 177 552 c 1,60,61
 187 548 187 548 196 548 c 2,51,-1
EndSplineSet
EndChar

StartChar: plus
Encoding: 43 43 14
Width: 634
GlyphClass: 2
Flags: W
LayerCount: 2
Fore
SplineSet
80 226 m 1,0,-1
 80 247 l 1,1,-1
 307 247 l 1,2,-1
 307 474 l 1,3,-1
 327 474 l 1,4,-1
 327 247 l 1,5,-1
 554 247 l 1,6,-1
 554 226 l 1,7,-1
 327 226 l 1,8,-1
 327 0 l 1,9,-1
 307 0 l 1,10,-1
 307 226 l 1,11,-1
 80 226 l 1,0,-1
EndSplineSet
EndChar

StartChar: comma
Encoding: 44 44 15
Width: 252
GlyphClass: 2
Flags: W
LayerCount: 2
Fore
SplineSet
196 29 m 0,0,1
 196 -46 196 -46 108 -96 c 1,2,-1
 99 -81 l 1,3,4
 133 -62 133 -62 155.5 -33 c 128,-1,5
 178 -4 178 -4 178 27 c 128,-1,6
 178 58 178 58 160.5 76 c 128,-1,7
 143 94 143 94 120 94 c 0,8,9
 110 94 110 94 110 86 c 128,-1,10
 110 78 110 78 119 76 c 0,11,12
 145 70 145 70 145 38 c 0,13,14
 145 17 145 17 129.5 3.5 c 128,-1,15
 114 -10 114 -10 91.5 -10 c 128,-1,16
 69 -10 69 -10 53.5 6.5 c 128,-1,17
 38 23 38 23 38 49 c 128,-1,18
 38 75 38 75 58.5 94 c 128,-1,19
 79 113 79 113 113 113 c 128,-1,20
 147 113 147 113 171.5 90 c 128,-1,21
 196 67 196 67 196 29 c 0,0,1
EndSplineSet
EndChar

StartChar: hyphen
Encoding: 45 45 16
Width: 309
GlyphClass: 2
Flags: W
LayerCount: 2
Fore
SplineSet
52 226 m 1,0,-1
 52 247 l 1,1,-1
 250 247 l 1,2,-1
 250 226 l 1,3,-1
 52 226 l 1,0,-1
EndSplineSet
EndChar

StartChar: period
Encoding: 46 46 17
Width: 229
GlyphClass: 2
Flags: W
LayerCount: 2
Fore
SplineSet
56 48 m 128,-1,1
 56 73 56 73 72.5 90 c 128,-1,2
 89 107 89 107 114 107 c 128,-1,3
 139 107 139 107 156 90 c 128,-1,4
 173 73 173 73 173 48 c 128,-1,5
 173 23 173 23 156 6.5 c 128,-1,6
 139 -10 139 -10 114 -10 c 128,-1,7
 89 -10 89 -10 72.5 6.5 c 128,-1,0
 56 23 56 23 56 48 c 128,-1,1
EndSplineSet
EndChar

StartChar: slash
Encoding: 47 47 18
Width: 392
GlyphClass: 2
Flags: W
LayerCount: 2
Fore
SplineSet
77 -213 m 1,0,-1
 272 715 l 1,1,-1
 295 715 l 1,2,-1
 100 -213 l 1,3,-1
 77 -213 l 1,0,-1
EndSplineSet
EndChar

StartChar: zero
Encoding: 48 48 19
Width: 568
GlyphClass: 2
Flags: W
LayerCount: 2
Fore
SplineSet
284 480 m 128,-1,1
 378 480 378 480 431.5 407 c 128,-1,2
 485 334 485 334 485 230 c 128,-1,3
 485 126 485 126 431.5 53 c 128,-1,4
 378 -20 378 -20 284 -20 c 128,-1,5
 190 -20 190 -20 136.5 53 c 128,-1,6
 83 126 83 126 83 230 c 128,-1,7
 83 334 83 334 136.5 407 c 128,-1,0
 190 480 190 480 284 480 c 128,-1,1
284 -3 m 128,-1,9
 313 -3 313 -3 333.5 12.5 c 128,-1,10
 354 28 354 28 364.5 49 c 128,-1,11
 375 70 375 70 380.5 105.5 c 128,-1,12
 386 141 386 141 387 166 c 128,-1,13
 388 191 388 191 388 230 c 128,-1,14
 388 269 388 269 387 294 c 128,-1,15
 386 319 386 319 380.5 354.5 c 128,-1,16
 375 390 375 390 364.5 411 c 128,-1,17
 354 432 354 432 333.5 447.5 c 128,-1,18
 313 463 313 463 284 463 c 128,-1,19
 255 463 255 463 234.5 447.5 c 128,-1,20
 214 432 214 432 203.5 411 c 128,-1,21
 193 390 193 390 187.5 354.5 c 128,-1,22
 182 319 182 319 181 294 c 128,-1,23
 180 269 180 269 180 230 c 128,-1,24
 180 191 180 191 181 166 c 128,-1,25
 182 141 182 141 187.5 105.5 c 128,-1,26
 193 70 193 70 203.5 49 c 128,-1,27
 214 28 214 28 234.5 12.5 c 128,-1,8
 255 -3 255 -3 284 -3 c 128,-1,9
EndSplineSet
EndChar

StartChar: one
Encoding: 49 49 20
Width: 421
GlyphClass: 2
Flags: W
LayerCount: 2
Fore
SplineSet
173 15 m 1,0,-1
 173 366 l 1,1,2
 137 343 137 343 86 329 c 1,3,-1
 81 345 l 1,4,5
 138 362 138 362 168.5 386.5 c 128,-1,6
 199 411 199 411 208 460 c 1,7,8
 242 464 242 464 262 473 c 1,9,-1
 262 15 l 1,10,-1
 349 15 l 1,11,-1
 349 0 l 1,12,-1
 93 0 l 1,13,-1
 93 15 l 1,14,-1
 173 15 l 1,0,-1
EndSplineSet
EndChar

StartChar: two
Encoding: 50 50 21
Width: 523
GlyphClass: 2
Flags: W
LayerCount: 2
Fore
SplineSet
127.5 448.5 m 128,-1,1
 171 480 171 480 244.5 480 c 128,-1,2
 318 480 318 480 373 447.5 c 128,-1,3
 428 415 428 415 428 354 c 128,-1,4
 428 293 428 293 393 254.5 c 128,-1,5
 358 216 358 216 308.5 195 c 128,-1,6
 259 174 259 174 209 156 c 128,-1,7
 159 138 159 138 124 109.5 c 128,-1,8
 89 81 89 81 89 41 c 1,9,-1
 95 38 l 1,10,11
 113 60 113 60 141 70 c 128,-1,12
 169 80 169 80 234 80 c 2,13,-1
 390 80 l 2,14,15
 412 80 412 80 421.5 91 c 128,-1,16
 431 102 431 102 432 127 c 1,17,-1
 444 127 l 1,18,-1
 444 0 l 1,19,-1
 71 0 l 1,20,-1
 71 40 l 2,21,22
 71 79 71 79 98 111 c 128,-1,23
 125 143 125 143 163 165.5 c 128,-1,24
 201 188 201 188 239 211 c 128,-1,25
 277 234 277 234 304 267 c 128,-1,26
 331 300 331 300 331 347.5 c 128,-1,27
 331 395 331 395 302.5 427.5 c 128,-1,28
 274 460 274 460 219 460 c 128,-1,29
 164 460 164 460 133.5 431.5 c 128,-1,30
 103 403 103 403 103 369 c 0,31,32
 103 360 103 360 111.5 360 c 128,-1,33
 120 360 120 360 121 369 c 0,34,35
 127 397 127 397 161 397 c 0,36,37
 183 397 183 397 196.5 382.5 c 128,-1,38
 210 368 210 368 210 344.5 c 128,-1,39
 210 321 210 321 193 305.5 c 128,-1,40
 176 290 176 290 149.5 290 c 128,-1,41
 123 290 123 290 103.5 309.5 c 128,-1,42
 84 329 84 329 84 359 c 0,43,0
 84 417 84 417 127.5 448.5 c 128,-1,1
EndSplineSet
EndChar

StartChar: three
Encoding: 51 51 22
Width: 511
GlyphClass: 2
Flags: W
LayerCount: 2
Fore
SplineSet
118.5 448.5 m 128,-1,1
 162 480 162 480 234.5 480 c 128,-1,2
 307 480 307 480 360.5 446 c 128,-1,3
 414 412 414 412 414 346.5 c 128,-1,4
 414 281 414 281 377.5 245.5 c 128,-1,5
 341 210 341 210 268 186 c 1,6,-1
 270 177 l 1,7,8
 349 177 349 177 395 128 c 128,-1,9
 441 79 441 79 441 -1 c 0,10,11
 441 -100 441 -100 381 -156 c 128,-1,12
 321 -212 321 -212 220 -212 c 0,13,14
 149 -212 149 -212 102 -182 c 128,-1,15
 55 -152 55 -152 55 -91 c 0,16,17
 55 -61 55 -61 74.5 -40.5 c 128,-1,18
 94 -20 94 -20 120.5 -20 c 128,-1,19
 147 -20 147 -20 163.5 -35.5 c 128,-1,20
 180 -51 180 -51 180 -73.5 c 128,-1,21
 180 -96 180 -96 167 -111.5 c 128,-1,22
 154 -127 154 -127 132 -127 c 0,23,24
 98 -127 98 -127 92 -101 c 0,25,26
 90 -92 90 -92 82 -92 c 128,-1,27
 74 -92 74 -92 74 -101 c 0,28,29
 74 -136 74 -136 108 -164 c 128,-1,30
 142 -192 142 -192 207 -192 c 128,-1,31
 272 -192 272 -192 307 -143 c 128,-1,32
 342 -94 342 -94 342 -20.5 c 128,-1,33
 342 53 342 53 313 104 c 128,-1,34
 284 155 284 155 225 155 c 0,35,36
 209 155 209 155 160 136 c 1,37,-1
 153 153 l 1,38,39
 322 224 322 224 322 341 c 0,40,41
 322 395 322 395 293.5 427.5 c 128,-1,42
 265 460 265 460 210 460 c 128,-1,43
 155 460 155 460 124.5 431.5 c 128,-1,44
 94 403 94 403 94 369 c 0,45,46
 94 360 94 360 102 360 c 128,-1,47
 110 360 110 360 112 369 c 0,48,49
 118 397 118 397 152 397 c 0,50,51
 174 397 174 397 187.5 382.5 c 128,-1,52
 201 368 201 368 201 344.5 c 128,-1,53
 201 321 201 321 184 305.5 c 128,-1,54
 167 290 167 290 140.5 290 c 128,-1,55
 114 290 114 290 94.5 309.5 c 128,-1,56
 75 329 75 329 75 359 c 0,57,0
 75 417 75 417 118.5 448.5 c 128,-1,1
EndSplineSet
EndChar

StartChar: four
Encoding: 52 52 23
Width: 581
GlyphClass: 2
Flags: W
LayerCount: 2
Fore
SplineSet
37 0 m 1,0,-1
 37 15 l 1,1,2
 277 244 277 244 313 460 c 1,3,4
 347 464 347 464 367 473 c 1,5,-1
 367 25 l 1,6,-1
 454 25 l 1,7,-1
 454 0 l 1,8,-1
 367 0 l 1,9,-1
 367 -194 l 1,10,-1
 278 -194 l 1,11,-1
 278 0 l 1,12,-1
 37 0 l 1,0,-1
75 25 m 1,13,-1
 278 25 l 1,14,-1
 278 290 l 1,15,-1
 273 290 l 1,16,17
 239 221 239 221 185.5 151.5 c 128,-1,18
 132 82 132 82 75 29 c 1,19,-1
 75 25 l 1,13,-1
EndSplineSet
EndChar

StartChar: five
Encoding: 53 53 24
Width: 533
GlyphClass: 2
Flags: W
LayerCount: 2
Fore
SplineSet
58 -91 m 0,0,1
 58 -61 58 -61 77.5 -41.5 c 128,-1,2
 97 -22 97 -22 123.5 -22 c 128,-1,3
 150 -22 150 -22 167 -37.5 c 128,-1,4
 184 -53 184 -53 184 -76.5 c 128,-1,5
 184 -100 184 -100 170.5 -114.5 c 128,-1,6
 157 -129 157 -129 135 -129 c 0,7,8
 101 -129 101 -129 95 -101 c 0,9,10
 94 -92 94 -92 85.5 -92 c 128,-1,11
 77 -92 77 -92 77 -101 c 0,12,13
 77 -136 77 -136 111 -164 c 128,-1,14
 145 -192 145 -192 212.5 -192 c 128,-1,15
 280 -192 280 -192 312.5 -134.5 c 128,-1,16
 345 -77 345 -77 345 12 c 0,17,18
 345 207 345 207 234 207 c 0,19,20
 148 207 148 207 89 111 c 1,21,-1
 74 111 l 1,22,-1
 74 460 l 1,23,-1
 333 460 l 2,24,25
 355 460 355 460 364.5 471 c 128,-1,26
 374 482 374 482 375 507 c 1,27,-1
 387 507 l 1,28,-1
 387 380 l 1,29,-1
 91 380 l 1,30,-1
 91 153 l 1,31,-1
 98 153 l 1,32,33
 157 227 157 227 248 227 c 128,-1,34
 339 227 339 227 391.5 173.5 c 128,-1,35
 444 120 444 120 444 19 c 128,-1,36
 444 -82 444 -82 387 -147 c 128,-1,37
 330 -212 330 -212 223 -212 c 0,38,39
 152 -212 152 -212 105 -182 c 128,-1,40
 58 -152 58 -152 58 -91 c 0,0,1
EndSplineSet
EndChar

StartChar: six
Encoding: 54 54 25
Width: 591
GlyphClass: 2
Flags: W
LayerCount: 2
Fore
SplineSet
330 650 m 0,0,1
 293 650 293 650 266.5 634.5 c 128,-1,2
 240 619 240 619 226 598 c 128,-1,3
 212 577 212 577 204 542 c 0,4,5
 193 495 193 495 193 420 c 2,6,-1
 193 348 l 1,7,-1
 196 348 l 1,8,9
 216 377 216 377 249 392 c 128,-1,10
 282 407 282 407 316 407 c 0,11,12
 401 407 401 407 452 352 c 128,-1,13
 503 297 503 297 503 203 c 128,-1,14
 503 109 503 109 446.5 44.5 c 128,-1,15
 390 -20 390 -20 299 -20 c 0,16,17
 241 -20 241 -20 199 8.5 c 128,-1,18
 157 37 157 37 134 87 c 0,19,20
 91 184 91 184 91 333.5 c 128,-1,21
 91 483 91 483 149 576.5 c 128,-1,22
 207 670 207 670 317 670 c 0,23,24
 383 670 383 670 427.5 639.5 c 128,-1,25
 472 609 472 609 472 549 c 0,26,27
 472 519 472 519 452.5 498.5 c 128,-1,28
 433 478 433 478 405 478 c 128,-1,29
 377 478 377 478 361.5 495 c 128,-1,30
 346 512 346 512 346 534 c 128,-1,31
 346 556 346 556 359.5 571 c 128,-1,32
 373 586 373 586 399 586 c 128,-1,33
 425 586 425 586 435 559 c 0,34,35
 438 550 438 550 444 550 c 0,36,37
 453 550 453 550 453 559 c 0,38,39
 453 593 453 593 421.5 621.5 c 128,-1,40
 390 650 390 650 330 650 c 0,0,1
193 283 m 2,41,-1
 193 187 l 2,42,43
 193 82 193 82 217 39.5 c 128,-1,44
 241 -3 241 -3 298.5 -3 c 128,-1,45
 356 -3 356 -3 381 40.5 c 128,-1,46
 406 84 406 84 406 189 c 128,-1,47
 406 294 406 294 382 340.5 c 128,-1,48
 358 387 358 387 301 387 c 0,49,50
 264 387 264 387 228.5 357 c 128,-1,51
 193 327 193 327 193 283 c 2,41,-1
EndSplineSet
EndChar

StartChar: seven
Encoding: 55 55 26
Width: 479
GlyphClass: 2
Flags: W
LayerCount: 2
Fore
SplineSet
50 459 m 1,0,-1
 379 459 l 2,1,2
 407 459 407 459 417 469.5 c 128,-1,3
 427 480 427 480 429 506 c 1,4,-1
 447 506 l 1,5,-1
 447 494 l 2,6,7
 447 392 447 392 425 313.5 c 128,-1,8
 403 235 403 235 371.5 185.5 c 128,-1,9
 340 136 340 136 309 92 c 0,10,11
 234 -16 234 -16 234 -144 c 0,12,13
 234 -170 234 -170 220 -183.5 c 128,-1,14
 206 -197 206 -197 184.5 -197 c 128,-1,15
 163 -197 163 -197 149.5 -183 c 128,-1,16
 136 -169 136 -169 136 -143 c 0,17,18
 136 -17 136 -17 283 117 c 0,19,20
 340 169 340 169 366 220 c 0,21,22
 380 247 380 247 390 267.5 c 128,-1,23
 400 288 400 288 407 316 c 0,24,25
 418 359 418 359 422 391 c 1,26,-1
 426 416 l 1,27,28
 408 380 408 380 310 380 c 2,29,-1
 121 380 l 2,30,31
 93 380 93 380 81 369 c 128,-1,32
 69 358 69 358 67 333 c 1,33,-1
 50 333 l 1,34,-1
 50 459 l 1,0,-1
EndSplineSet
EndChar

StartChar: eight
Encoding: 56 56 27
Width: 561
GlyphClass: 2
Flags: W
LayerCount: 2
Fore
SplineSet
154 629.5 m 128,-1,1
 205 670 205 670 284.5 670 c 128,-1,2
 364 670 364 670 407.5 625.5 c 128,-1,3
 451 581 451 581 451 518 c 0,4,5
 451 473 451 473 428.5 433 c 128,-1,6
 406 393 406 393 367 367 c 1,7,8
 423 326 423 326 454.5 283 c 128,-1,9
 486 240 486 240 486 183 c 0,10,11
 486 103 486 103 429 41.5 c 128,-1,12
 372 -20 372 -20 277.5 -20 c 128,-1,13
 183 -20 183 -20 129 36.5 c 128,-1,14
 75 93 75 93 75 174 c 0,15,16
 75 229 75 229 103.5 279.5 c 128,-1,17
 132 330 132 330 184 361 c 1,18,19
 103 433 103 433 103 511 c 128,-1,0
 103 589 103 589 154 629.5 c 128,-1,1
418 123 m 0,20,21
 418 157 418 157 395 189.5 c 128,-1,22
 372 222 372 222 345 242.5 c 128,-1,23
 318 263 318 263 270.5 296 c 128,-1,24
 223 329 223 329 199 348 c 1,25,26
 149 322 149 322 121 273 c 128,-1,27
 93 224 93 224 93 175 c 0,28,29
 93 101 93 101 142 49.5 c 128,-1,30
 191 -2 191 -2 262.5 -2 c 128,-1,31
 334 -2 334 -2 376 33 c 128,-1,32
 418 68 418 68 418 123 c 0,20,21
210 498.5 m 128,-1,34
 224 479 224 479 232.5 469 c 128,-1,35
 241 459 241 459 259 444.5 c 128,-1,36
 277 430 277 430 286 423 c 0,37,38
 315 402 315 402 351 378 c 1,39,40
 387 400 387 400 410 436 c 128,-1,41
 433 472 433 472 433 514 c 0,42,43
 433 576 433 576 394.5 613 c 128,-1,44
 356 650 356 650 305 650 c 128,-1,45
 254 650 254 650 225 624.5 c 128,-1,46
 196 599 196 599 196 558.5 c 128,-1,33
 196 518 196 518 210 498.5 c 128,-1,34
EndSplineSet
EndChar

StartChar: nine
Encoding: 57 57 28
Width: 591
GlyphClass: 2
Flags: W
LayerCount: 2
Fore
SplineSet
261 -190 m 0,0,1
 298 -190 298 -190 324.5 -174.5 c 128,-1,2
 351 -159 351 -159 365 -138 c 128,-1,3
 379 -117 379 -117 387 -82 c 0,4,5
 398 -35 398 -35 398 40 c 2,6,-1
 398 112 l 1,7,-1
 395 112 l 1,8,9
 375 83 375 83 342 68 c 128,-1,10
 309 53 309 53 275 53 c 0,11,12
 190 53 190 53 139 108 c 128,-1,13
 88 163 88 163 88 257 c 128,-1,14
 88 351 88 351 144.5 415.5 c 128,-1,15
 201 480 201 480 292 480 c 0,16,17
 350 480 350 480 392 451.5 c 128,-1,18
 434 423 434 423 456 373 c 0,19,20
 500 276 500 276 500 126.5 c 128,-1,21
 500 -23 500 -23 442 -116.5 c 128,-1,22
 384 -210 384 -210 274 -210 c 0,23,24
 208 -210 208 -210 163.5 -179.5 c 128,-1,25
 119 -149 119 -149 119 -89 c 0,26,27
 119 -59 119 -59 138.5 -38.5 c 128,-1,28
 158 -18 158 -18 186 -18 c 128,-1,29
 214 -18 214 -18 229.5 -35 c 128,-1,30
 245 -52 245 -52 245 -74 c 128,-1,31
 245 -96 245 -96 231.5 -111 c 128,-1,32
 218 -126 218 -126 192 -126 c 128,-1,33
 166 -126 166 -126 156 -99 c 0,34,35
 153 -90 153 -90 147 -90 c 0,36,37
 138 -90 138 -90 138 -99 c 0,38,39
 138 -133 138 -133 169.5 -161.5 c 128,-1,40
 201 -190 201 -190 261 -190 c 0,0,1
398 177 m 2,41,-1
 398 273 l 2,42,43
 398 378 398 378 374 420.5 c 128,-1,44
 350 463 350 463 292.5 463 c 128,-1,45
 235 463 235 463 210 419.5 c 128,-1,46
 185 376 185 376 185 271 c 128,-1,47
 185 166 185 166 209 119.5 c 128,-1,48
 233 73 233 73 290 73 c 0,49,50
 327 73 327 73 362.5 103 c 128,-1,51
 398 133 398 133 398 177 c 2,41,-1
EndSplineSet
EndChar

StartChar: colon
Encoding: 58 58 29
Width: 229
GlyphClass: 2
Flags: W
LayerCount: 2
Fore
SplineSet
56 412 m 128,-1,1
 56 437 56 437 72.5 454 c 128,-1,2
 89 471 89 471 114 471 c 128,-1,3
 139 471 139 471 156 454 c 128,-1,4
 173 437 173 437 173 412 c 128,-1,5
 173 387 173 387 156 370.5 c 128,-1,6
 139 354 139 354 114 354 c 128,-1,7
 89 354 89 354 72.5 370.5 c 128,-1,0
 56 387 56 387 56 412 c 128,-1,1
56 49 m 128,-1,9
 56 74 56 74 72.5 91 c 128,-1,10
 89 108 89 108 114 108 c 128,-1,11
 139 108 139 108 156 91 c 128,-1,12
 173 74 173 74 173 49 c 128,-1,13
 173 24 173 24 156 7.5 c 128,-1,14
 139 -9 139 -9 114 -9 c 128,-1,15
 89 -9 89 -9 72.5 7.5 c 128,-1,8
 56 24 56 24 56 49 c 128,-1,9
EndSplineSet
EndChar

StartChar: semicolon
Encoding: 59 59 30
Width: 252
GlyphClass: 2
Flags: W
LayerCount: 2
Fore
SplineSet
56 411 m 128,-1,1
 56 436 56 436 72.5 453 c 128,-1,2
 89 470 89 470 114 470 c 128,-1,3
 139 470 139 470 156 453 c 128,-1,4
 173 436 173 436 173 411 c 128,-1,5
 173 386 173 386 156 369.5 c 128,-1,6
 139 353 139 353 114 353 c 128,-1,7
 89 353 89 353 72.5 369.5 c 128,-1,0
 56 386 56 386 56 411 c 128,-1,1
196 29 m 0,8,9
 196 -46 196 -46 108 -96 c 1,10,-1
 99 -81 l 1,11,12
 133 -62 133 -62 155.5 -33 c 128,-1,13
 178 -4 178 -4 178 27 c 128,-1,14
 178 58 178 58 160.5 76 c 128,-1,15
 143 94 143 94 120 94 c 0,16,17
 110 94 110 94 110 86 c 128,-1,18
 110 78 110 78 119 76 c 0,19,20
 145 70 145 70 145 38 c 0,21,22
 145 17 145 17 129.5 3.5 c 128,-1,23
 114 -10 114 -10 91.5 -10 c 128,-1,24
 69 -10 69 -10 53.5 6.5 c 128,-1,25
 38 23 38 23 38 49 c 128,-1,26
 38 75 38 75 58.5 94 c 128,-1,27
 79 113 79 113 113 113 c 128,-1,28
 147 113 147 113 171.5 90 c 128,-1,29
 196 67 196 67 196 29 c 0,8,9
EndSplineSet
EndChar

StartChar: less
Encoding: 60 60 31
Width: 471
GlyphClass: 2
Flags: W
LayerCount: 2
Fore
SplineSet
14 220 m 1,0,-1
 14 240 l 1,1,-1
 470 409 l 1,2,-1
 478 389 l 1,3,-1
 48 230 l 1,4,-1
 478 71 l 1,5,-1
 470 51 l 1,6,-1
 14 220 l 1,0,-1
EndSplineSet
EndChar

StartChar: equal
Encoding: 61 61 32
Width: 642
GlyphClass: 2
Flags: W
LayerCount: 2
Fore
SplineSet
83 144 m 1,0,-1
 83 165 l 1,1,-1
 557 165 l 1,2,-1
 557 144 l 1,3,-1
 83 144 l 1,0,-1
557 330 m 1,4,-1
 557 309 l 1,5,-1
 83 309 l 1,6,-1
 83 330 l 1,7,-1
 557 330 l 1,4,-1
EndSplineSet
EndChar

StartChar: greater
Encoding: 62 62 33
Width: 510
GlyphClass: 2
Flags: W
LayerCount: 2
Fore
SplineSet
466 240 m 1,0,-1
 466 220 l 1,1,-1
 10 51 l 1,2,-1
 2 71 l 1,3,-1
 432 230 l 1,4,-1
 2 389 l 1,5,-1
 10 409 l 1,6,-1
 466 240 l 1,0,-1
EndSplineSet
EndChar

StartChar: question
Encoding: 63 63 34
Width: 404
GlyphClass: 2
Flags: W
LayerCount: 2
Fore
SplineSet
146 48 m 128,-1,1
 146 73 146 73 162.5 90 c 128,-1,2
 179 107 179 107 204 107 c 128,-1,3
 229 107 229 107 246 90 c 128,-1,4
 263 73 263 73 263 48 c 128,-1,5
 263 23 263 23 246 6.5 c 128,-1,6
 229 -10 229 -10 204 -10 c 128,-1,7
 179 -10 179 -10 162.5 6.5 c 128,-1,0
 146 23 146 23 146 48 c 128,-1,1
165 670 m 0,8,9
 355 670 355 670 355 539 c 0,10,11
 355 500 355 500 333 467 c 128,-1,12
 311 434 311 434 279.5 411.5 c 128,-1,13
 248 389 248 389 217 369 c 0,14,15
 142 321 142 321 142 287.5 c 128,-1,16
 142 254 142 254 159.5 236 c 128,-1,17
 177 218 177 218 206 218 c 0,18,19
 259 218 259 218 283 263 c 1,20,-1
 298 253 l 1,21,22
 267 200 267 200 204 200 c 0,23,24
 167 200 167 200 143 223 c 128,-1,25
 119 246 119 246 119 279 c 128,-1,26
 119 312 119 312 140 344.5 c 128,-1,27
 161 377 161 377 185.5 401 c 128,-1,28
 210 425 210 425 231 461 c 128,-1,29
 252 497 252 497 252 542 c 128,-1,30
 252 587 252 587 225.5 618.5 c 128,-1,31
 199 650 199 650 142 650 c 128,-1,32
 85 650 85 650 54 623 c 128,-1,33
 23 596 23 596 23 567 c 0,34,35
 23 558 23 558 31.5 558 c 128,-1,36
 40 558 40 558 41 567 c 1,37,38
 47 593 47 593 81 593 c 0,39,40
 103 593 103 593 116 577.5 c 128,-1,41
 129 562 129 562 129 539.5 c 128,-1,42
 129 517 129 517 112.5 501.5 c 128,-1,43
 96 486 96 486 69.5 486 c 128,-1,44
 43 486 43 486 23.5 506.5 c 128,-1,45
 4 527 4 527 4 557 c 0,46,47
 4 613 4 613 51 641.5 c 128,-1,48
 98 670 98 670 165 670 c 0,8,9
EndSplineSet
EndChar

StartChar: at
Encoding: 64 64 35
Width: 710
GlyphClass: 2
Flags: W
LayerCount: 2
Fore
SplineSet
516 239 m 2,0,-1
 516 122 l 2,1,2
 516 71 516 71 556 71 c 0,3,4
 570 71 570 71 588 88.5 c 128,-1,5
 606 106 606 106 621.5 148.5 c 128,-1,6
 637 191 637 191 637 248 c 0,7,8
 637 369 637 369 554.5 446.5 c 128,-1,9
 472 524 472 524 354 524 c 128,-1,10
 236 524 236 524 154.5 440.5 c 128,-1,11
 73 357 73 357 73 238 c 128,-1,12
 73 119 73 119 148.5 41 c 128,-1,13
 224 -37 224 -37 343 -37 c 0,14,15
 416 -37 416 -37 478 -3 c 1,16,-1
 489 -23 l 1,17,18
 423 -60 423 -60 343 -60 c 0,19,20
 215 -60 215 -60 132.5 24 c 128,-1,21
 50 108 50 108 50 238 c 128,-1,22
 50 368 50 368 138 457.5 c 128,-1,23
 226 547 226 547 354.5 547 c 128,-1,24
 483 547 483 547 571.5 463.5 c 128,-1,25
 660 380 660 380 660 248 c 0,26,27
 660 154 660 154 622 96.5 c 128,-1,28
 584 39 584 39 528 39 c 0,29,30
 489 39 489 39 467 65 c 128,-1,31
 445 91 445 91 445 132 c 1,32,-1
 439 132 l 1,33,34
 425 85 425 85 394 62 c 128,-1,35
 363 39 363 39 310.5 39 c 128,-1,36
 258 39 258 39 220.5 66.5 c 128,-1,37
 183 94 183 94 183 142 c 0,38,39
 183 208 183 208 242 234.5 c 128,-1,40
 301 261 301 261 404 261 c 2,41,-1
 427 261 l 1,42,-1
 427 270 l 2,43,44
 427 345 427 345 416 376.5 c 128,-1,45
 405 408 405 408 386 418.5 c 128,-1,46
 367 429 367 429 324.5 429 c 128,-1,47
 282 429 282 429 255 406 c 128,-1,48
 228 383 228 383 228 356 c 0,49,50
 228 347 228 347 236 347 c 128,-1,51
 244 347 244 347 246 356 c 0,52,53
 252 382 252 382 286 382 c 0,54,55
 308 382 308 382 321 366.5 c 128,-1,56
 334 351 334 351 334 328.5 c 128,-1,57
 334 306 334 306 317.5 290.5 c 128,-1,58
 301 275 301 275 274.5 275 c 128,-1,59
 248 275 248 275 228.5 295.5 c 128,-1,60
 209 316 209 316 209 346 c 0,61,62
 209 398 209 398 251.5 423.5 c 128,-1,63
 294 449 294 449 346 449 c 128,-1,64
 398 449 398 449 427.5 442 c 128,-1,65
 457 435 457 435 475.5 422.5 c 128,-1,66
 494 410 494 410 502 382 c 0,67,68
 516 338 516 338 516 239 c 2,0,-1
427 195 m 2,69,-1
 427 243 l 1,70,-1
 408 243 l 2,71,72
 345 243 345 243 312.5 219.5 c 128,-1,73
 280 196 280 196 280 154 c 128,-1,74
 280 112 280 112 298 89 c 128,-1,75
 316 66 316 66 342 66 c 0,76,77
 427 66 427 66 427 195 c 2,69,-1
EndSplineSet
EndChar

StartChar: A
Encoding: 65 65 36
Width: 636
GlyphClass: 2
Flags: W
LayerCount: 2
Fore
SplineSet
154 148 m 2,0,1
 143 118 143 118 143 89.5 c 128,-1,2
 143 61 143 61 153.5 46 c 128,-1,3
 164 31 164 31 187 25 c 0,4,5
 222 16 222 16 280 16 c 2,6,-1
 297 16 l 1,7,-1
 297 0 l 1,8,-1
 1 0 l 1,9,-1
 1 16 l 1,10,11
 54 16 54 16 81.5 45.5 c 128,-1,12
 109 75 109 75 130 138 c 2,13,-1
 293 609 l 2,14,15
 300 631 300 631 306 642 c 0,16,17
 320 670 320 670 352 670 c 2,18,-1
 355 670 l 1,19,-1
 557 16 l 1,20,-1
 628 16 l 1,21,-1
 628 0 l 1,22,-1
 372 0 l 1,23,-1
 372 16 l 1,24,-1
 446 16 l 1,25,-1
 290 526 l 1,26,-1
 284 526 l 1,27,-1
 154 148 l 2,0,1
223.5 329 m 128,-1,29
 274 302 274 302 312 258 c 0,30,31
 388 173 388 173 427 79 c 1,32,-1
 443 83 l 1,33,34
 390 218 390 218 302.5 296 c 128,-1,35
 215 374 215 374 121 374 c 0,36,37
 69 374 69 374 35.5 345 c 128,-1,38
 2 316 2 316 2 279.5 c 128,-1,39
 2 243 2 243 23.5 221 c 128,-1,40
 45 199 45 199 72.5 199 c 128,-1,41
 100 199 100 199 120 217 c 128,-1,42
 140 235 140 235 140 263 c 128,-1,43
 140 291 140 291 125 306 c 128,-1,44
 110 321 110 321 88 321 c 0,45,46
 53 321 53 321 41 290 c 0,47,48
 38 282 38 282 31 282 c 0,49,50
 21 282 21 282 23 292 c 0,51,52
 27 322 27 322 57 339 c 128,-1,53
 87 356 87 356 130 356 c 128,-1,28
 173 356 173 356 223.5 329 c 128,-1,29
EndSplineSet
EndChar

StartChar: B
Encoding: 66 66 37
Width: 641
GlyphClass: 2
Flags: W
LayerCount: 2
Fore
SplineSet
413 57 m 128,-1,1
 457 98 457 98 457 187 c 128,-1,2
 457 276 457 276 407 310 c 128,-1,3
 357 344 357 344 252 344 c 2,4,-1
 229 344 l 1,5,-1
 229 16 l 1,6,-1
 276 16 l 2,7,0
 369 16 369 16 413 57 c 128,-1,1
433 527 m 0,8,9
 433 649 433 649 288 649 c 0,10,11
 217 649 217 649 169 612 c 0,12,13
 154 601 154 601 145.5 585 c 128,-1,14
 137 569 137 569 137 559.5 c 128,-1,15
 137 550 137 550 145 550 c 128,-1,16
 153 550 153 550 156 558 c 0,17,18
 168 589 168 589 203 589 c 0,19,20
 225 589 225 589 240.5 573 c 128,-1,21
 256 557 256 557 256 529 c 128,-1,22
 256 501 256 501 236 484 c 128,-1,23
 216 467 216 467 188 467 c 128,-1,24
 160 467 160 467 138.5 489 c 128,-1,25
 117 511 117 511 117 545 c 0,26,27
 117 599 117 599 169 634.5 c 128,-1,28
 221 670 221 670 319 670 c 128,-1,29
 417 670 417 670 481 635 c 128,-1,30
 545 600 545 600 545 530.5 c 128,-1,31
 545 461 545 461 498 417 c 128,-1,32
 451 373 451 373 374 358 c 1,33,-1
 374 352 l 1,34,35
 461 350 461 350 515 311 c 128,-1,36
 569 272 569 272 569 195 c 0,37,38
 569 0 569 0 291 0 c 2,39,-1
 52 0 l 1,40,-1
 52 16 l 1,41,-1
 125 16 l 1,42,-1
 125 385 l 1,43,44
 184 368 184 368 265.5 368 c 128,-1,45
 347 368 347 368 390 412.5 c 128,-1,46
 433 457 433 457 433 527 c 0,8,9
EndSplineSet
EndChar

StartChar: C
Encoding: 67 67 38
Width: 579
GlyphClass: 2
Flags: W
LayerCount: 2
Fore
SplineSet
336 650 m 0,0,1
 241 650 241 650 206 569 c 0,2,3
 177 500 177 500 174 388 c 0,4,5
 174 362 174 362 174 309 c 128,-1,6
 174 256 174 256 180 207.5 c 128,-1,7
 186 159 186 159 202 109 c 128,-1,8
 218 59 218 59 253 31.5 c 128,-1,9
 288 4 288 4 340 4 c 0,10,11
 424 4 424 4 471 60 c 128,-1,12
 518 116 518 116 525 207 c 1,13,-1
 543 205 l 1,14,15
 536 102 536 102 478 41 c 128,-1,16
 420 -20 420 -20 322 -20 c 0,17,18
 194 -20 194 -20 123 81.5 c 128,-1,19
 52 183 52 183 52 328 c 0,20,21
 52 418 52 418 83 494.5 c 128,-1,22
 114 571 114 571 178 620.5 c 128,-1,23
 242 670 242 670 323.5 670 c 128,-1,24
 405 670 405 670 458.5 634 c 128,-1,25
 512 598 512 598 512 545 c 0,26,27
 512 511 512 511 490.5 489 c 128,-1,28
 469 467 469 467 441 467 c 128,-1,29
 413 467 413 467 393 484 c 128,-1,30
 373 501 373 501 373 529 c 128,-1,31
 373 557 373 557 388.5 573 c 128,-1,32
 404 589 404 589 426 589 c 0,33,34
 461 589 461 589 473 558 c 0,35,36
 476 550 476 550 483 550 c 0,37,38
 494 550 494 550 492 560 c 0,39,40
 487 595 487 595 443.5 622.5 c 128,-1,41
 400 650 400 650 336 650 c 0,0,1
EndSplineSet
EndChar

StartChar: D
Encoding: 68 68 39
Width: 687
GlyphClass: 2
Flags: W
LayerCount: 2
Fore
SplineSet
125 440 m 1,0,1
 149 420 149 420 177.5 420 c 128,-1,2
 206 420 206 420 229 427 c 1,3,-1
 229 16 l 1,4,-1
 290 16 l 2,5,6
 401 16 401 16 453 72 c 0,7,8
 498 119 498 119 508 228 c 0,9,10
 513 273 513 273 513 343 c 128,-1,11
 513 413 513 413 503 466.5 c 128,-1,12
 493 520 493 520 470 563 c 0,13,14
 422 649 422 649 299 649 c 0,15,16
 212 649 212 649 165 612 c 0,17,18
 150 601 150 601 141.5 585 c 128,-1,19
 133 569 133 569 133 559.5 c 128,-1,20
 133 550 133 550 141 550 c 128,-1,21
 149 550 149 550 152 558 c 0,22,23
 164 589 164 589 199 589 c 0,24,25
 221 589 221 589 236.5 573 c 128,-1,26
 252 557 252 557 252 529 c 128,-1,27
 252 501 252 501 232 484 c 128,-1,28
 212 467 212 467 184 467 c 128,-1,29
 156 467 156 467 134.5 489 c 128,-1,30
 113 511 113 511 113 545 c 0,31,32
 113 599 113 599 165 634.5 c 128,-1,33
 217 670 217 670 303 670 c 0,34,35
 461 670 461 670 548 591.5 c 128,-1,36
 635 513 635 513 635 348 c 0,37,38
 635 0 635 0 311 0 c 2,39,-1
 52 0 l 1,40,-1
 52 16 l 1,41,-1
 125 16 l 1,42,-1
 125 440 l 1,0,1
EndSplineSet
EndChar

StartChar: E
Encoding: 69 69 40
Width: 545
GlyphClass: 2
Flags: W
LayerCount: 2
Fore
SplineSet
206 156 m 0,0,1
 206 85 206 85 248.5 46.5 c 128,-1,2
 291 8 291 8 355 8 c 128,-1,3
 419 8 419 8 460.5 38.5 c 128,-1,4
 502 69 502 69 502 126 c 0,5,6
 502 139 502 139 496 152 c 128,-1,7
 490 165 490 165 482 165 c 128,-1,8
 474 165 474 165 474 155 c 0,9,10
 474 154 474 154 477 147 c 128,-1,11
 480 140 480 140 480 124 c 128,-1,12
 480 108 480 108 466 93.5 c 128,-1,13
 452 79 452 79 427 79 c 128,-1,14
 402 79 402 79 384.5 95.5 c 128,-1,15
 367 112 367 112 367 141 c 128,-1,16
 367 170 367 170 387.5 190.5 c 128,-1,17
 408 211 408 211 441 211 c 128,-1,18
 474 211 474 211 497 186.5 c 128,-1,19
 520 162 520 162 520 125 c 0,20,21
 520 63 520 63 471.5 21.5 c 128,-1,22
 423 -20 423 -20 318 -20 c 128,-1,23
 213 -20 213 -20 156 23.5 c 128,-1,24
 99 67 99 67 99 141.5 c 128,-1,25
 99 216 99 216 145 267 c 128,-1,26
 191 318 191 318 277 337 c 1,27,-1
 274 346 l 1,28,29
 202 360 202 360 165 400.5 c 128,-1,30
 128 441 128 441 128 496 c 0,31,32
 128 572 128 572 186.5 621 c 128,-1,33
 245 670 245 670 334 670 c 0,34,35
 394 670 394 670 438.5 645 c 128,-1,36
 483 620 483 620 483 564 c 0,37,38
 483 527 483 527 461.5 505.5 c 128,-1,39
 440 484 440 484 412 484 c 128,-1,40
 384 484 384 484 363 501 c 128,-1,41
 342 518 342 518 342 546 c 128,-1,42
 342 574 342 574 358.5 591 c 128,-1,43
 375 608 375 608 400 608 c 0,44,45
 432 608 432 608 444 578 c 0,46,47
 446 571 446 571 448 568.5 c 128,-1,48
 450 566 450 566 455 566 c 0,49,50
 464 566 464 566 464 575 c 0,51,52
 464 606 464 606 432 626 c 128,-1,53
 400 646 400 646 353 646 c 128,-1,54
 306 646 306 646 267 607.5 c 128,-1,55
 228 569 228 569 228 502 c 128,-1,56
 228 435 228 435 262 399 c 128,-1,57
 296 363 296 363 351 363 c 0,58,59
 377 363 377 363 399 372 c 1,60,-1
 405 354 l 1,61,62
 206 296 206 296 206 156 c 0,0,1
EndSplineSet
EndChar

StartChar: F
Encoding: 70 70 41
Width: 552
GlyphClass: 2
Flags: W
LayerCount: 2
Fore
SplineSet
498.5 632.5 m 128,-1,1
 476 652 476 652 435 652 c 128,-1,2
 394 652 394 652 324.5 634.5 c 128,-1,3
 255 617 255 617 190.5 617 c 128,-1,4
 126 617 126 617 62 641 c 1,5,-1
 65 659 l 1,6,7
 130 635 130 635 192.5 635 c 128,-1,8
 255 635 255 635 322 652.5 c 128,-1,9
 389 670 389 670 437 670 c 128,-1,10
 485 670 485 670 513.5 644 c 128,-1,11
 542 618 542 618 542 580.5 c 128,-1,12
 542 543 542 543 520.5 521 c 128,-1,13
 499 499 499 499 471 499 c 128,-1,14
 443 499 443 499 423 516 c 128,-1,15
 403 533 403 533 403 561.5 c 128,-1,16
 403 590 403 590 418 605.5 c 128,-1,17
 433 621 433 621 462.5 621 c 128,-1,18
 492 621 492 621 502 590 c 0,19,20
 505 582 505 582 513 582 c 128,-1,21
 521 582 521 582 521 591 c 0,22,0
 521 613 521 613 498.5 632.5 c 128,-1,1
125 16 m 1,23,-1
 125 634 l 1,24,-1
 229 634 l 1,25,-1
 229 337 l 1,26,-1
 272 337 l 2,27,28
 344 337 344 337 371 364.5 c 128,-1,29
 398 392 398 392 398 465 c 1,30,-1
 415 465 l 1,31,-1
 415 190 l 1,32,-1
 398 190 l 1,33,34
 398 264 398 264 371 292.5 c 128,-1,35
 344 321 344 321 272 321 c 2,36,-1
 229 321 l 1,37,-1
 229 16 l 1,38,-1
 312 16 l 1,39,-1
 312 0 l 1,40,-1
 52 0 l 1,41,-1
 52 16 l 1,42,-1
 125 16 l 1,23,-1
EndSplineSet
EndChar

StartChar: G
Encoding: 71 71 42
Width: 661
GlyphClass: 2
Flags: W
LayerCount: 2
Fore
SplineSet
454 284 m 1,0,-1
 381 284 l 1,1,-1
 381 300 l 1,2,-1
 631 300 l 1,3,-1
 631 284 l 1,4,-1
 558 284 l 1,5,-1
 558 -33 l 2,6,7
 558 -132 558 -132 526 -183.5 c 128,-1,8
 494 -235 494 -235 436 -235 c 0,9,10
 395 -235 395 -235 369 -207 c 128,-1,11
 343 -179 343 -179 343 -144.5 c 128,-1,12
 343 -110 343 -110 364.5 -88 c 128,-1,13
 386 -66 386 -66 413.5 -66 c 128,-1,14
 441 -66 441 -66 461 -84 c 128,-1,15
 481 -102 481 -102 481 -130 c 128,-1,16
 481 -158 481 -158 466 -173 c 128,-1,17
 451 -188 451 -188 429 -188 c 0,18,19
 394 -188 394 -188 382 -157 c 0,20,21
 379 -149 379 -149 372 -149 c 0,22,23
 362 -149 362 -149 364 -159 c 0,24,25
 368 -184 368 -184 389 -200.5 c 128,-1,26
 410 -217 410 -217 443 -217 c 128,-1,27
 476 -217 476 -217 495.5 -190.5 c 128,-1,28
 515 -164 515 -164 515 -126.5 c 128,-1,29
 515 -89 515 -89 489 -50.5 c 128,-1,30
 463 -12 463 -12 458 7 c 1,31,32
 453 6 453 6 423 -3 c 0,33,34
 366 -20 366 -20 324 -20 c 0,35,36
 196 -20 196 -20 125 81.5 c 128,-1,37
 54 183 54 183 54 336 c 128,-1,38
 54 489 54 489 145 579.5 c 128,-1,39
 236 670 236 670 374 670 c 0,40,41
 453 670 453 670 506.5 634 c 128,-1,42
 560 598 560 598 560 545 c 0,43,44
 560 511 560 511 538.5 489 c 128,-1,45
 517 467 517 467 489 467 c 128,-1,46
 461 467 461 467 441 484 c 128,-1,47
 421 501 421 501 421 529 c 128,-1,48
 421 557 421 557 436.5 573 c 128,-1,49
 452 589 452 589 474 589 c 0,50,51
 509 589 509 589 521 558 c 0,52,53
 524 550 524 550 531 550 c 0,54,55
 542 550 542 550 540 560 c 0,56,57
 535 595 535 595 491.5 622.5 c 128,-1,58
 448 650 448 650 384 650 c 0,59,60
 270 650 270 650 223 567.5 c 128,-1,61
 176 485 176 485 176 320 c 0,62,63
 176 93 176 93 255 30 c 0,64,65
 290 3 290 3 345 3 c 128,-1,66
 400 3 400 3 454 26 c 1,67,-1
 454 284 l 1,0,-1
EndSplineSet
EndChar

StartChar: H
Encoding: 72 72 43
Width: 733
GlyphClass: 2
Flags: W
LayerCount: 2
Fore
SplineSet
375 335 m 2,0,-1
 328 333 l 1,1,2
 132 323 132 323 66 276 c 0,3,4
 4 231 4 231 4 142 c 0,5,6
 4 83 4 83 26 48.5 c 128,-1,7
 48 14 48 14 88 14 c 0,8,9
 125 14 125 14 125 71 c 2,10,-1
 125 634 l 1,11,-1
 52 634 l 1,12,-1
 52 650 l 1,13,-1
 312 650 l 1,14,-1
 312 634 l 1,15,-1
 229 634 l 1,16,-1
 229 105 l 2,17,18
 229 43 229 43 198.5 11.5 c 128,-1,19
 168 -20 168 -20 113.5 -20 c 128,-1,20
 59 -20 59 -20 21.5 20.5 c 128,-1,21
 -16 61 -16 61 -16 136 c 0,22,23
 -16 226 -16 226 34 272 c 1,24,25
 86 318 86 318 158 332 c 0,26,27
 243 349 243 349 380 353 c 0,28,29
 488 356 488 356 515.5 362.5 c 128,-1,30
 543 369 543 369 569 376 c 128,-1,31
 595 383 595 383 607 392 c 128,-1,32
 619 401 619 401 635.5 415 c 128,-1,33
 652 429 652 429 660 446 c 0,34,35
 678 488 678 488 678 533 c 128,-1,36
 678 578 678 578 668 602 c 128,-1,37
 658 626 658 626 641 626 c 0,38,39
 608 626 608 626 608 573 c 2,40,-1
 608 16 l 1,41,-1
 691 16 l 1,42,-1
 691 0 l 1,43,-1
 431 0 l 1,44,-1
 431 16 l 1,45,-1
 504 16 l 1,46,-1
 504 555 l 2,47,48
 504 613 504 613 530.5 641 c 128,-1,49
 557 669 557 669 601 669 c 128,-1,50
 645 669 645 669 671.5 634.5 c 128,-1,51
 698 600 698 600 698 540.5 c 128,-1,52
 698 481 698 481 678.5 443 c 128,-1,53
 659 405 659 405 634.5 385.5 c 128,-1,54
 610 366 610 366 559 354.5 c 128,-1,55
 508 343 508 343 475 340.5 c 128,-1,56
 442 338 442 338 375 335 c 2,0,-1
EndSplineSet
EndChar

StartChar: I
Encoding: 73 73 44
Width: 354
GlyphClass: 2
Flags: W
LayerCount: 2
Fore
SplineSet
229 16 m 1,0,-1
 312 16 l 1,1,-1
 312 0 l 1,2,-1
 52 0 l 1,3,-1
 52 16 l 1,4,-1
 125 16 l 1,5,-1
 125 588 l 1,6,-1
 229 611 l 1,7,-1
 229 16 l 1,0,-1
108 597 m 0,8,9
 174 597 174 597 219 622 c 128,-1,10
 264 647 264 647 264 695 c 128,-1,11
 264 743 264 743 240 764 c 128,-1,12
 216 785 216 785 185 785 c 128,-1,13
 154 785 154 785 135.5 767 c 128,-1,14
 117 749 117 749 117 735 c 128,-1,15
 117 721 117 721 125 721 c 128,-1,16
 133 721 133 721 136 729 c 0,17,18
 148 760 148 760 182 760 c 0,19,20
 204 760 204 760 219.5 744 c 128,-1,21
 235 728 235 728 235 700 c 128,-1,22
 235 672 235 672 215 655 c 128,-1,23
 195 638 195 638 167 638 c 128,-1,24
 139 638 139 638 117.5 660 c 128,-1,25
 96 682 96 682 96 717.5 c 128,-1,26
 96 753 96 753 121 778 c 128,-1,27
 146 803 146 803 185.5 803 c 128,-1,28
 225 803 225 803 253.5 776 c 128,-1,29
 282 749 282 749 282 703 c 0,30,31
 282 638 282 638 231.5 608 c 128,-1,32
 181 578 181 578 107 578 c 0,33,34
 88 578 88 578 54 582 c 1,35,-1
 54 601 l 1,36,37
 88 597 88 597 108 597 c 0,8,9
EndSplineSet
EndChar

StartChar: J
Encoding: 74 74 45
Width: 415
GlyphClass: 2
Flags: W
LayerCount: 2
Fore
SplineSet
302 634 m 1,0,-1
 302 115 l 2,1,2
 302 15 302 15 249 -37.5 c 128,-1,3
 196 -90 196 -90 128.5 -90 c 128,-1,4
 61 -90 61 -90 15.5 -52.5 c 128,-1,5
 -30 -15 -30 -15 -30 47 c 0,6,7
 -30 88 -30 88 -5 113 c 128,-1,8
 20 138 20 138 55.5 138 c 128,-1,9
 91 138 91 138 113 116.5 c 128,-1,10
 135 95 135 95 135 67 c 128,-1,11
 135 39 135 39 118 19 c 128,-1,12
 101 -1 101 -1 73 -1 c 128,-1,13
 45 -1 45 -1 29 14.5 c 128,-1,14
 13 30 13 30 13 52 c 0,15,16
 13 86 13 86 44 98 c 0,17,18
 52 101 52 101 52 109 c 128,-1,19
 52 117 52 117 38 117 c 128,-1,20
 24 117 24 117 6 98.5 c 128,-1,21
 -12 80 -12 80 -12 47 c 0,22,23
 -12 -3 -12 -3 23 -35 c 128,-1,24
 58 -67 58 -67 100 -67 c 128,-1,25
 142 -67 142 -67 170 -39 c 128,-1,26
 198 -11 198 -11 198 43 c 2,27,-1
 198 634 l 1,28,-1
 115 634 l 1,29,-1
 115 650 l 1,30,-1
 375 650 l 1,31,-1
 375 634 l 1,32,-1
 302 634 l 1,0,-1
EndSplineSet
EndChar

StartChar: K
Encoding: 75 75 46
Width: 668
GlyphClass: 2
Flags: W
LayerCount: 2
Fore
SplineSet
547 120 m 2,0,-1
 547 96 l 2,1,2
 547 60 547 60 552 46.5 c 128,-1,3
 557 33 557 33 569.5 33 c 128,-1,4
 582 33 582 33 595.5 53 c 128,-1,5
 609 73 609 73 618 113 c 1,6,-1
 636 109 l 1,7,8
 612 -10 612 -10 521 -10 c 0,9,10
 441 -10 441 -10 441 109 c 2,11,-1
 441 193 l 2,12,13
 441 270 441 270 398 298 c 128,-1,14
 355 326 355 326 281 326 c 0,15,16
 263 326 263 326 229 324 c 1,17,-1
 229 16 l 1,18,-1
 312 16 l 1,19,-1
 312 0 l 1,20,-1
 52 0 l 1,21,-1
 52 16 l 1,22,-1
 125 16 l 1,23,-1
 125 634 l 1,24,-1
 52 634 l 1,25,-1
 52 650 l 1,26,-1
 312 650 l 1,27,-1
 312 634 l 1,28,-1
 229 634 l 1,29,-1
 229 343 l 1,30,31
 358 343 358 343 435.5 408 c 128,-1,32
 513 473 513 473 513 557 c 0,33,34
 513 600 513 600 488.5 621 c 128,-1,35
 464 642 464 642 433 642 c 128,-1,36
 402 642 402 642 383.5 624 c 128,-1,37
 365 606 365 606 365 592 c 128,-1,38
 365 578 365 578 373 578 c 128,-1,39
 381 578 381 578 384 586 c 0,40,41
 396 617 396 617 430 617 c 0,42,43
 452 617 452 617 467.5 601 c 128,-1,44
 483 585 483 585 483 557 c 128,-1,45
 483 529 483 529 463 512 c 128,-1,46
 443 495 443 495 415 495 c 128,-1,47
 387 495 387 495 365.5 517 c 128,-1,48
 344 539 344 539 344 574.5 c 128,-1,49
 344 610 344 610 369 635 c 128,-1,50
 394 660 394 660 434 660 c 128,-1,51
 474 660 474 660 502.5 632.5 c 128,-1,52
 531 605 531 605 531 559 c 0,53,54
 531 441 531 441 402 363 c 1,55,-1
 406 355 l 1,56,57
 473 351 473 351 502 316 c 0,58,59
 533 278 533 278 539 240 c 0,60,61
 547 180 547 180 547 120 c 2,0,-1
EndSplineSet
EndChar

StartChar: L
Encoding: 76 76 47
Width: 557
GlyphClass: 2
Flags: W
LayerCount: 2
Fore
SplineSet
52 0 m 1,0,-1
 52 16 l 1,1,-1
 125 16 l 1,2,-1
 125 634 l 1,3,-1
 52 634 l 1,4,-1
 52 650 l 1,5,-1
 322 650 l 1,6,-1
 322 634 l 1,7,-1
 229 634 l 1,8,-1
 229 14 l 1,9,10
 267 11 267 11 327.5 -2.5 c 128,-1,11
 388 -16 388 -16 415 -16 c 0,12,13
 469 -16 469 -16 498 9 c 128,-1,14
 527 34 527 34 527 69 c 128,-1,15
 527 104 527 104 508.5 120 c 128,-1,16
 490 136 490 136 470 136 c 0,17,18
 461 136 461 136 461 127.5 c 128,-1,19
 461 119 461 119 468 118 c 0,20,21
 506 108 506 108 506 72 c 0,22,23
 506 51 506 51 490 35 c 128,-1,24
 474 19 474 19 445.5 19 c 128,-1,25
 417 19 417 19 400 39 c 128,-1,26
 383 59 383 59 383 87 c 128,-1,27
 383 115 383 115 405 136.5 c 128,-1,28
 427 158 427 158 461 158 c 128,-1,29
 495 158 495 158 520 133.5 c 128,-1,30
 545 109 545 109 545 67 c 128,-1,31
 545 25 545 25 511 -4.5 c 128,-1,32
 477 -34 477 -34 419 -34 c 0,33,34
 384 -34 384 -34 306.5 -17 c 128,-1,35
 229 0 229 0 155 0 c 2,36,-1
 52 0 l 1,0,-1
EndSplineSet
EndChar

StartChar: M
Encoding: 77 77 48
Width: 845
GlyphClass: 2
Flags: W
LayerCount: 2
Fore
SplineSet
803 650 m 1,0,-1
 803 634 l 1,1,-1
 720 634 l 1,2,-1
 720 16 l 1,3,-1
 803 16 l 1,4,-1
 803 0 l 1,5,-1
 543 0 l 1,6,-1
 543 16 l 1,7,-1
 616 16 l 1,8,-1
 616 588 l 1,9,-1
 609 588 l 1,10,-1
 355 157 l 1,11,12
 352 154 352 154 343 137 c 0,13,14
 326 106 326 106 326 85.5 c 128,-1,15
 326 65 326 65 335.5 51 c 128,-1,16
 345 37 345 37 360 37 c 0,17,18
 389 37 389 37 389 68 c 0,19,20
 389 87 389 87 374 117 c 2,21,-1
 152 588 l 1,22,-1
 145 588 l 1,23,-1
 145 143 l 2,24,25
 145 70 145 70 172.5 43 c 128,-1,26
 200 16 200 16 273 16 c 2,27,-1
 280 16 l 1,28,-1
 280 0 l 1,29,-1
 -6 0 l 1,30,-1
 -6 16 l 1,31,32
 67 16 67 16 96 43.5 c 128,-1,33
 125 71 125 71 125 143 c 2,34,-1
 125 594 l 1,35,36
 123 618 123 618 106.5 626.5 c 128,-1,37
 90 635 90 635 60 635 c 2,38,-1
 15 635 l 1,39,-1
 15 650 l 1,40,-1
 242 650 l 1,41,-1
 441 216 l 1,42,43
 487 124 487 124 487 86.5 c 128,-1,44
 487 49 487 49 461.5 28 c 128,-1,45
 436 7 436 7 398.5 7 c 128,-1,46
 361 7 361 7 334.5 27 c 128,-1,47
 308 47 308 47 308 89 c 0,48,49
 308 104 308 104 311 111.5 c 128,-1,50
 314 119 314 119 315 122 c 128,-1,51
 316 125 316 125 319 131 c 2,52,-1
 324 140 l 2,53,54
 329 151 329 151 333 157 c 0,55,56
 345 175 345 175 349 183 c 2,57,-1
 621 650 l 1,58,-1
 803 650 l 1,0,-1
EndSplineSet
EndChar

StartChar: N
Encoding: 78 78 49
Width: 662
GlyphClass: 2
Flags: W
LayerCount: 2
Fore
SplineSet
537 507 m 2,0,-1
 537 -7 l 1,1,-1
 521 -7 l 2,2,3
 488 -7 488 -7 467.5 14 c 128,-1,4
 447 35 447 35 413 94 c 2,5,-1
 149 548 l 1,6,-1
 145 548 l 1,7,-1
 145 80 l 2,8,9
 145 32 145 32 120 6 c 128,-1,10
 95 -20 95 -20 58.5 -20 c 128,-1,11
 22 -20 22 -20 0 1.5 c 128,-1,12
 -22 23 -22 23 -22 51 c 128,-1,13
 -22 79 -22 79 -5 99 c 128,-1,14
 12 119 12 119 40 119 c 128,-1,15
 68 119 68 119 84 103.5 c 128,-1,16
 100 88 100 88 100 66 c 0,17,18
 100 32 100 32 69 20 c 0,19,20
 61 17 61 17 61 9 c 128,-1,21
 61 1 61 1 75.5 1 c 128,-1,22
 90 1 90 1 107.5 20.5 c 128,-1,23
 125 40 125 40 125 80 c 2,24,-1
 125 589 l 1,25,26
 98 635 98 635 20 635 c 1,27,-1
 20 650 l 1,28,-1
 124 650 l 2,29,30
 172 650 172 650 196.5 633.5 c 128,-1,31
 221 617 221 617 246 575 c 2,32,-1
 511 120 l 1,33,-1
 517 120 l 1,34,-1
 517 507 l 2,35,36
 517 580 517 580 489.5 607 c 128,-1,37
 462 634 462 634 389 634 c 2,38,-1
 382 634 l 1,39,-1
 382 650 l 1,40,-1
 668 650 l 1,41,-1
 668 634 l 1,42,43
 595 634 595 634 566 606.5 c 128,-1,44
 537 579 537 579 537 507 c 2,0,-1
EndSplineSet
EndChar

StartChar: O
Encoding: 79 79 50
Width: 670
GlyphClass: 2
Flags: W
LayerCount: 2
Fore
SplineSet
492 613 m 128,-1,1
 442 649 442 649 385 649 c 128,-1,2
 328 649 328 649 292 633 c 128,-1,3
 256 617 256 617 234 590 c 128,-1,4
 212 563 212 563 198 521 c 0,5,6
 174 445 174 445 174 328 c 0,7,8
 174 158 174 158 196 104 c 0,9,10
 207 77 207 77 224 50 c 0,11,12
 257 -1 257 -1 335 -1 c 0,13,14
 410 -1 410 -1 444 51 c 0,15,16
 480 105 480 105 488 176 c 0,17,18
 496 243 496 243 496 308.5 c 128,-1,19
 496 374 496 374 495 398 c 1,20,21
 499 398 499 398 512 398 c 128,-1,22
 525 398 525 398 558 413 c 128,-1,23
 591 428 591 428 598 462 c 1,24,25
 618 395 618 395 618 328 c 0,26,27
 618 181 618 181 543.5 80.5 c 128,-1,28
 469 -20 469 -20 335 -20 c 128,-1,29
 201 -20 201 -20 126.5 80.5 c 128,-1,30
 52 181 52 181 52 333 c 128,-1,31
 52 485 52 485 132.5 577.5 c 128,-1,32
 213 670 213 670 355 670 c 0,33,34
 441 670 441 670 504 625 c 128,-1,35
 567 580 567 580 567 525 c 0,36,37
 567 491 567 491 545.5 469 c 128,-1,38
 524 447 524 447 496 447 c 128,-1,39
 468 447 468 447 448 464 c 128,-1,40
 428 481 428 481 428 509 c 128,-1,41
 428 537 428 537 443.5 553 c 128,-1,42
 459 569 459 569 481 569 c 0,43,44
 516 569 516 569 528 538 c 0,45,46
 531 530 531 530 538 530 c 0,47,48
 549 530 549 530 547 540 c 0,49,0
 542 577 542 577 492 613 c 128,-1,1
EndSplineSet
EndChar

StartChar: P
Encoding: 80 80 51
Width: 576
GlyphClass: 2
Flags: W
LayerCount: 2
Fore
SplineSet
125 441 m 1,0,1
 153 421 153 421 182 421 c 128,-1,2
 211 421 211 421 229 429 c 1,3,-1
 229 299 l 1,4,-1
 287 299 l 2,5,6
 372 299 372 299 407.5 342 c 128,-1,7
 443 385 443 385 443 475 c 0,8,9
 443 650 443 650 299 650 c 0,10,11
 208 650 208 650 160 612 c 0,12,13
 145 601 145 601 136.5 585 c 128,-1,14
 128 569 128 569 128 559.5 c 128,-1,15
 128 550 128 550 136 550 c 128,-1,16
 144 550 144 550 147 558 c 0,17,18
 159 589 159 589 194 589 c 0,19,20
 216 589 216 589 231.5 573 c 128,-1,21
 247 557 247 557 247 529 c 128,-1,22
 247 501 247 501 227 484 c 128,-1,23
 207 467 207 467 179 467 c 128,-1,24
 151 467 151 467 129.5 489 c 128,-1,25
 108 511 108 511 108 545 c 0,26,27
 108 599 108 599 162.5 634.5 c 128,-1,28
 217 670 217 670 303 670 c 0,29,30
 419 670 419 670 487 623 c 128,-1,31
 555 576 555 576 555 475 c 128,-1,32
 555 374 555 374 496 328.5 c 128,-1,33
 437 283 437 283 319 283 c 2,34,-1
 229 283 l 1,35,-1
 229 16 l 1,36,-1
 312 16 l 1,37,-1
 312 0 l 1,38,-1
 52 0 l 1,39,-1
 52 16 l 1,40,-1
 125 16 l 1,41,-1
 125 441 l 1,0,1
EndSplineSet
EndChar

StartChar: Q
Encoding: 81 81 52
Width: 670
GlyphClass: 2
Flags: W
LayerCount: 2
Fore
SplineSet
335 -20 m 128,-1,1
 201 -20 201 -20 126.5 80.5 c 128,-1,2
 52 181 52 181 52 326 c 128,-1,3
 52 471 52 471 128 570.5 c 128,-1,4
 204 670 204 670 335 670 c 128,-1,5
 466 670 466 670 542 570.5 c 128,-1,6
 618 471 618 471 618 326 c 128,-1,7
 618 181 618 181 543.5 80.5 c 128,-1,0
 469 -20 469 -20 335 -20 c 128,-1,1
269 11.5 m 128,-1,9
 297 -1 297 -1 334.5 -1 c 128,-1,10
 372 -1 372 -1 399.5 12 c 128,-1,11
 427 25 427 25 444 51 c 128,-1,12
 461 77 461 77 472 105.5 c 128,-1,13
 483 134 483 134 488 176 c 128,-1,14
 493 218 493 218 494.5 250 c 128,-1,15
 496 282 496 282 496 328 c 128,-1,16
 496 374 496 374 494.5 405.5 c 128,-1,17
 493 437 493 437 488 478.5 c 128,-1,18
 483 520 483 520 472 547.5 c 128,-1,19
 461 575 461 575 444 600.5 c 128,-1,20
 427 626 427 626 399.5 638.5 c 128,-1,21
 372 651 372 651 335 651 c 128,-1,22
 298 651 298 651 270.5 638.5 c 128,-1,23
 243 626 243 626 226 600.5 c 128,-1,24
 209 575 209 575 198 547.5 c 128,-1,25
 187 520 187 520 182 478 c 0,26,27
 174 412 174 412 174 345.5 c 128,-1,28
 174 279 174 279 175 248.5 c 128,-1,29
 176 218 176 218 180.5 174.5 c 128,-1,30
 185 131 185 131 196 104 c 128,-1,31
 207 77 207 77 224 50.5 c 128,-1,8
 241 24 241 24 269 11.5 c 128,-1,9
566 -161 m 0,32,33
 599 -161 599 -161 617.5 -142 c 128,-1,34
 636 -123 636 -123 636 -103 c 0,35,36
 636 -94 636 -94 628 -94 c 128,-1,37
 620 -94 620 -94 617 -102 c 0,38,39
 605 -133 605 -133 571 -133 c 0,40,41
 549 -133 549 -133 533.5 -117 c 128,-1,42
 518 -101 518 -101 518 -73 c 128,-1,43
 518 -45 518 -45 538 -28 c 128,-1,44
 558 -11 558 -11 586 -11 c 128,-1,45
 614 -11 614 -11 635.5 -33 c 128,-1,46
 657 -55 657 -55 657 -90.5 c 128,-1,47
 657 -126 657 -126 632 -152.5 c 128,-1,48
 607 -179 607 -179 561.5 -179 c 128,-1,49
 516 -179 516 -179 485 -147.5 c 128,-1,50
 454 -116 454 -116 439.5 -71.5 c 128,-1,51
 425 -27 425 -27 411.5 18 c 128,-1,52
 398 63 398 63 371.5 94.5 c 128,-1,53
 345 126 345 126 303 126 c 0,54,55
 277 126 277 126 258 108 c 128,-1,56
 239 90 239 90 239 63 c 128,-1,57
 239 36 239 36 266 14 c 1,58,-1
 248 10 l 1,59,60
 213 42 213 42 213 85.5 c 128,-1,61
 213 129 213 129 239.5 161 c 128,-1,62
 266 193 266 193 317 193 c 128,-1,63
 368 193 368 193 398 156.5 c 128,-1,64
 428 120 428 120 437.5 68 c 128,-1,65
 447 16 447 16 456 -36 c 128,-1,66
 465 -88 465 -88 491 -124.5 c 128,-1,67
 517 -161 517 -161 566 -161 c 0,32,33
EndSplineSet
EndChar

StartChar: R
Encoding: 82 82 53
Width: 667
GlyphClass: 2
Flags: W
LayerCount: 2
Fore
SplineSet
125 441 m 1,0,1
 153 421 153 421 182 421 c 128,-1,2
 211 421 211 421 229 429 c 1,3,-1
 229 346 l 1,4,-1
 293 346 l 2,5,6
 375 346 375 346 407.5 376 c 128,-1,7
 440 406 440 406 440 488 c 0,8,9
 440 650 440 650 299 650 c 0,10,11
 208 650 208 650 160 612 c 0,12,13
 145 601 145 601 136.5 585 c 128,-1,14
 128 569 128 569 128 559.5 c 128,-1,15
 128 550 128 550 136 550 c 128,-1,16
 144 550 144 550 147 558 c 0,17,18
 159 589 159 589 194 589 c 0,19,20
 216 589 216 589 231.5 573 c 128,-1,21
 247 557 247 557 247 529 c 128,-1,22
 247 501 247 501 227 484 c 128,-1,23
 207 467 207 467 179 467 c 128,-1,24
 151 467 151 467 129.5 489 c 128,-1,25
 108 511 108 511 108 545 c 0,26,27
 108 599 108 599 162.5 634.5 c 128,-1,28
 217 670 217 670 303 670 c 0,29,30
 419 670 419 670 485.5 626.5 c 128,-1,31
 552 583 552 583 552 497 c 0,32,33
 552 434 552 434 510.5 392.5 c 128,-1,34
 469 351 469 351 395 341 c 1,35,-1
 395 336 l 1,36,37
 487 336 487 336 516.5 292 c 128,-1,38
 546 248 546 248 546 142 c 2,39,-1
 546 96 l 2,40,41
 546 60 546 60 551 46.5 c 128,-1,42
 556 33 556 33 568.5 33 c 128,-1,43
 581 33 581 33 594.5 53 c 128,-1,44
 608 73 608 73 617 113 c 1,45,-1
 635 109 l 1,46,47
 611 -10 611 -10 520 -10 c 0,48,49
 484 -10 484 -10 462 20 c 128,-1,50
 440 50 440 50 440 109 c 2,51,-1
 440 175 l 2,52,53
 440 260 440 260 406.5 295 c 128,-1,54
 373 330 373 330 301 330 c 2,55,-1
 229 330 l 1,56,-1
 229 16 l 1,57,-1
 312 16 l 1,58,-1
 312 0 l 1,59,-1
 52 0 l 1,60,-1
 52 16 l 1,61,-1
 125 16 l 1,62,-1
 125 441 l 1,0,1
EndSplineSet
EndChar

StartChar: S
Encoding: 83 83 54
Width: 504
GlyphClass: 2
Flags: W
LayerCount: 2
Fore
SplineSet
50 87 m 0,0,1
 67 45 67 45 114 22 c 128,-1,2
 161 -1 161 -1 223.5 -1 c 128,-1,3
 286 -1 286 -1 335 34 c 128,-1,4
 384 69 384 69 384 135 c 0,5,6
 384 186 384 186 349 220 c 128,-1,7
 314 254 314 254 264.5 274.5 c 128,-1,8
 215 295 215 295 165.5 318 c 128,-1,9
 116 341 116 341 81 384 c 128,-1,10
 46 427 46 427 46 490 c 0,11,12
 46 573 46 573 104.5 621.5 c 128,-1,13
 163 670 163 670 246.5 670 c 128,-1,14
 330 670 330 670 379 634.5 c 128,-1,15
 428 599 428 599 428 545 c 0,16,17
 428 511 428 511 406.5 489 c 128,-1,18
 385 467 385 467 357 467 c 128,-1,19
 329 467 329 467 309 484 c 128,-1,20
 289 501 289 501 289 529 c 128,-1,21
 289 557 289 557 304.5 573 c 128,-1,22
 320 589 320 589 342 589 c 0,23,24
 377 589 377 589 389 558 c 0,25,26
 392 550 392 550 399 550 c 0,27,28
 410 550 410 550 408 560 c 0,29,30
 403 596 403 596 363.5 623.5 c 128,-1,31
 324 651 324 651 264.5 651 c 128,-1,32
 205 651 205 651 163.5 618.5 c 128,-1,33
 122 586 122 586 122 534.5 c 128,-1,34
 122 483 122 483 157 449 c 128,-1,35
 192 415 192 415 241.5 394.5 c 128,-1,36
 291 374 291 374 340.5 351 c 128,-1,37
 390 328 390 328 425 285 c 128,-1,38
 460 242 460 242 460 179 c 0,39,40
 460 83 460 83 390 31.5 c 128,-1,41
 320 -20 320 -20 231.5 -20 c 128,-1,42
 143 -20 143 -20 83.5 19.5 c 128,-1,43
 24 59 24 59 24 127 c 0,44,45
 24 161 24 161 45.5 183 c 128,-1,46
 67 205 67 205 95 205 c 128,-1,47
 123 205 123 205 143 188 c 128,-1,48
 163 171 163 171 163 143 c 128,-1,49
 163 115 163 115 147.5 99 c 128,-1,50
 132 83 132 83 110 83 c 0,51,52
 74 83 74 83 62 114 c 0,53,54
 59 122 59 122 51 122 c 128,-1,55
 43 122 43 122 43 114 c 128,-1,56
 43 106 43 106 50 87 c 0,0,1
EndSplineSet
EndChar

StartChar: T
Encoding: 84 84 55
Width: 492
GlyphClass: 2
Flags: W
LayerCount: 2
Fore
SplineSet
143 0 m 1,0,-1
 143 16 l 1,1,-1
 216 16 l 1,2,-1
 216 644 l 1,3,-1
 199 650 l 2,4,5
 188 654 188 654 163.5 663 c 128,-1,6
 139 672 139 672 123 677 c 0,7,8
 75 692 75 692 43 692 c 128,-1,9
 11 692 11 692 -11 675.5 c 128,-1,10
 -33 659 -33 659 -33 637 c 0,11,12
 -33 628 -33 628 -25 628 c 128,-1,13
 -17 628 -17 628 -14 636 c 0,14,15
 -2 667 -2 667 32 667 c 0,16,17
 54 667 54 667 69.5 651 c 128,-1,18
 85 635 85 635 85 607 c 128,-1,19
 85 579 85 579 65 562 c 128,-1,20
 45 545 45 545 17 545 c 128,-1,21
 -11 545 -11 545 -32.5 567 c 128,-1,22
 -54 589 -54 589 -54 628.5 c 128,-1,23
 -54 668 -54 668 -16 694 c 0,24,25
 9 710 9 710 40.5 710 c 128,-1,26
 72 710 72 710 104.5 701.5 c 128,-1,27
 137 693 137 693 181 676.5 c 128,-1,28
 225 660 225 660 239 656 c 0,29,30
 392 609 392 609 450 609 c 128,-1,31
 508 609 508 609 541 639.5 c 128,-1,32
 574 670 574 670 574 705 c 128,-1,33
 574 740 574 740 556 758.5 c 128,-1,34
 538 777 538 777 524 777 c 128,-1,35
 510 777 510 777 510 769 c 128,-1,36
 510 761 510 761 518 758 c 0,37,38
 549 746 549 746 549 712 c 0,39,40
 549 690 549 690 533 674.5 c 128,-1,41
 517 659 517 659 489 659 c 128,-1,42
 461 659 461 659 444 679 c 128,-1,43
 427 699 427 699 427 727 c 128,-1,44
 427 755 427 755 449 776.5 c 128,-1,45
 471 798 471 798 507 798 c 128,-1,46
 543 798 543 798 567.5 772.5 c 128,-1,47
 592 747 592 747 592 705 c 128,-1,48
 592 663 592 663 555.5 626.5 c 128,-1,49
 519 590 519 590 458.5 590 c 128,-1,50
 398 590 398 590 320 612 c 1,51,-1
 320 16 l 1,52,-1
 403 16 l 1,53,-1
 403 0 l 1,54,-1
 143 0 l 1,0,-1
EndSplineSet
EndChar

StartChar: U
Encoding: 85 85 56
Width: 641
GlyphClass: 2
Flags: W
LayerCount: 2
Fore
SplineSet
493.5 62.5 m 128,-1,1
 538 121 538 121 555 207.5 c 128,-1,2
 572 294 572 294 572 403 c 128,-1,3
 572 512 572 512 542 577 c 128,-1,4
 512 642 512 642 452 642 c 0,5,6
 419 642 419 642 400.5 624 c 128,-1,7
 382 606 382 606 382 592 c 128,-1,8
 382 578 382 578 390 578 c 128,-1,9
 398 578 398 578 401 586 c 0,10,11
 413 617 413 617 447 617 c 0,12,13
 469 617 469 617 484.5 601 c 128,-1,14
 500 585 500 585 500 557 c 128,-1,15
 500 529 500 529 480 512 c 128,-1,16
 460 495 460 495 432 495 c 128,-1,17
 404 495 404 495 382.5 517 c 128,-1,18
 361 539 361 539 361 573.5 c 128,-1,19
 361 608 361 608 386 634 c 128,-1,20
 411 660 411 660 449 660 c 0,21,22
 591 660 591 660 591 407 c 0,23,24
 591 227 591 227 552 131 c 1,25,26
 513 32 513 32 448 0 c 1,27,28
 410 -20 410 -20 350.5 -20 c 128,-1,29
 291 -20 291 -20 242.5 3.5 c 128,-1,30
 194 27 194 27 166 73 c 0,31,32
 116 157 116 157 116 308 c 2,33,-1
 116 634 l 1,34,-1
 43 634 l 1,35,-1
 43 650 l 1,36,-1
 303 650 l 1,37,-1
 303 634 l 1,38,-1
 220 634 l 1,39,-1
 220 308 l 2,40,41
 220 167 220 167 234 118 c 0,42,43
 251 57 251 57 280 35 c 0,44,45
 321 4 321 4 385 4 c 128,-1,0
 449 4 449 4 493.5 62.5 c 128,-1,1
EndSplineSet
EndChar

StartChar: V
Encoding: 86 86 57
Width: 485
GlyphClass: 2
Flags: W
LayerCount: 2
Fore
SplineSet
437 542 m 2,0,1
 444 563 444 563 444 584.5 c 128,-1,2
 444 606 444 606 427 622.5 c 128,-1,3
 410 639 410 639 397.5 639 c 128,-1,4
 385 639 385 639 385 631 c 128,-1,5
 385 623 385 623 393 620 c 0,6,7
 424 608 424 608 424 574 c 0,8,9
 424 552 424 552 408 536.5 c 128,-1,10
 392 521 392 521 364 521 c 128,-1,11
 336 521 336 521 319 541 c 128,-1,12
 302 561 302 561 302 589 c 128,-1,13
 302 617 302 617 324 638.5 c 128,-1,14
 346 660 346 660 382 660 c 128,-1,15
 418 660 418 660 440.5 636 c 128,-1,16
 463 612 463 612 463 585.5 c 128,-1,17
 463 559 463 559 456 540 c 2,18,-1
 285 41 l 2,19,20
 278 19 278 19 272 8 c 0,21,22
 258 -20 258 -20 226 -20 c 2,23,-1
 223 -20 l 1,24,-1
 21 634 l 1,25,-1
 -50 634 l 1,26,-1
 -50 650 l 1,27,-1
 210 650 l 1,28,-1
 210 634 l 1,29,-1
 136 634 l 1,30,-1
 286 118 l 1,31,-1
 292 118 l 1,32,-1
 437 542 l 2,0,1
EndSplineSet
EndChar

StartChar: W
Encoding: 87 87 58
Width: 816
GlyphClass: 2
Flags: W
LayerCount: 2
Fore
SplineSet
768 542 m 2,0,1
 775 563 775 563 775 584.5 c 128,-1,2
 775 606 775 606 758.5 622.5 c 128,-1,3
 742 639 742 639 729 639 c 128,-1,4
 716 639 716 639 716 631 c 128,-1,5
 716 623 716 623 724 620 c 0,6,7
 755 608 755 608 755 574 c 0,8,9
 755 552 755 552 739 536.5 c 128,-1,10
 723 521 723 521 695 521 c 128,-1,11
 667 521 667 521 650 541 c 128,-1,12
 633 561 633 561 633 589 c 128,-1,13
 633 617 633 617 655 638.5 c 128,-1,14
 677 660 677 660 713 660 c 128,-1,15
 749 660 749 660 771.5 636 c 128,-1,16
 794 612 794 612 794 585.5 c 128,-1,17
 794 559 794 559 787 540 c 2,18,-1
 616 41 l 2,19,20
 609 19 609 19 604 8 c 0,21,22
 589 -20 589 -20 557 -20 c 2,23,-1
 554 -20 l 1,24,-1
 415 430 l 1,25,-1
 285 41 l 2,26,27
 278 19 278 19 272 8 c 0,28,29
 258 -20 258 -20 226 -20 c 2,30,-1
 223 -20 l 1,31,-1
 21 634 l 1,32,-1
 -50 634 l 1,33,-1
 -50 650 l 1,34,-1
 210 650 l 1,35,-1
 210 634 l 1,36,-1
 136 634 l 1,37,-1
 286 118 l 1,38,-1
 292 118 l 1,39,-1
 405 462 l 1,40,-1
 352 634 l 1,41,-1
 281 634 l 1,42,-1
 281 650 l 1,43,-1
 541 650 l 1,44,-1
 541 634 l 1,45,-1
 467 634 l 1,46,-1
 617 118 l 1,47,-1
 623 118 l 1,48,-1
 768 542 l 2,0,1
EndSplineSet
EndChar

StartChar: X
Encoding: 88 88 59
Width: 673
GlyphClass: 2
Flags: W
LayerCount: 2
Fore
SplineSet
687 16 m 1,0,-1
 687 0 l 1,1,-1
 415 0 l 1,2,-1
 415 16 l 1,3,-1
 488 16 l 1,4,-1
 128 634 l 1,5,-1
 55 634 l 1,6,-1
 55 650 l 1,7,-1
 327 650 l 1,8,-1
 327 634 l 1,9,-1
 244 634 l 1,10,-1
 604 16 l 1,11,-1
 687 16 l 1,0,-1
570 660 m 0,12,13
 506 660 506 660 468 588 c 2,14,15
 468 588 468 588 339 346 c 1,16,-1
 359 346 l 1,17,-1
 479 570 l 2,18,19
 517 642 517 642 572 642 c 0,20,21
 589 642 589 642 605 632 c 128,-1,22
 621 622 621 622 621 613.5 c 128,-1,23
 621 605 621 605 612 605 c 0,24,25
 609 605 609 605 598 613.5 c 128,-1,26
 587 622 587 622 567.5 622 c 128,-1,27
 548 622 548 622 532 606.5 c 128,-1,28
 516 591 516 591 516 564.5 c 128,-1,29
 516 538 516 538 536 521.5 c 128,-1,30
 556 505 556 505 584 505 c 128,-1,31
 612 505 612 505 632 526.5 c 128,-1,32
 652 548 652 548 652 573.5 c 128,-1,33
 652 599 652 599 644 615 c 0,34,35
 622 660 622 660 570 660 c 0,12,13
111 -11 m 0,36,37
 60 -11 60 -11 37 34 c 0,38,39
 29 50 29 50 29 75.5 c 128,-1,40
 29 101 29 101 49 122.5 c 128,-1,41
 69 144 69 144 97 144 c 128,-1,42
 125 144 125 144 145 127.5 c 128,-1,43
 165 111 165 111 165 84.5 c 128,-1,44
 165 58 165 58 149 42.5 c 128,-1,45
 133 27 133 27 113.5 27 c 128,-1,46
 94 27 94 27 83 35.5 c 128,-1,47
 72 44 72 44 69 44 c 0,48,49
 60 44 60 44 60 35.5 c 128,-1,50
 60 27 60 27 76 17 c 128,-1,51
 92 7 92 7 109 7 c 0,52,53
 164 7 164 7 202 79 c 2,54,-1
 322 303 l 1,55,-1
 342 303 l 1,56,-1
 213 61 l 2,57,58
 175 -11 175 -11 111 -11 c 0,36,37
EndSplineSet
EndChar

StartChar: Y
Encoding: 89 89 60
Width: 572
GlyphClass: 2
Flags: W
LayerCount: 2
Fore
SplineSet
357 16 m 1,0,-1
 440 16 l 1,1,-1
 440 0 l 1,2,-1
 180 0 l 1,3,-1
 180 16 l 1,4,-1
 253 16 l 1,5,-1
 253 281 l 1,6,-1
 74 634 l 1,7,-1
 1 634 l 1,8,-1
 1 650 l 1,9,-1
 269 650 l 1,10,-1
 269 634 l 1,11,-1
 186 634 l 1,12,-1
 357 291 l 1,13,-1
 357 16 l 1,0,-1
496.5 622.5 m 128,-1,15
 513 606 513 606 513 583.5 c 128,-1,16
 513 561 513 561 507 540 c 0,17,18
 505 533 505 533 500.5 524.5 c 128,-1,19
 496 516 496 516 493.5 512 c 128,-1,20
 491 508 491 508 486 501 c 128,-1,21
 481 494 481 494 480 492 c 2,22,-1
 331 285 l 1,23,-1
 341 267 l 1,24,-1
 500 489 l 2,25,26
 532 533 532 533 532 572.5 c 128,-1,27
 532 612 532 612 509.5 636 c 128,-1,28
 487 660 487 660 451 660 c 128,-1,29
 415 660 415 660 393 638.5 c 128,-1,30
 371 617 371 617 371 589 c 128,-1,31
 371 561 371 561 388 541 c 128,-1,32
 405 521 405 521 433 521 c 128,-1,33
 461 521 461 521 477 536.5 c 128,-1,34
 493 552 493 552 493 574 c 0,35,36
 493 608 493 608 462 620 c 0,37,38
 454 623 454 623 454 631 c 128,-1,39
 454 639 454 639 467 639 c 128,-1,14
 480 639 480 639 496.5 622.5 c 128,-1,15
EndSplineSet
EndChar

StartChar: Z
Encoding: 90 90 61
Width: 568
GlyphClass: 2
Flags: W
LayerCount: 2
Fore
SplineSet
39 563 m 0,0,1
 39 613 39 613 79.5 641 c 128,-1,2
 120 669 120 669 183 669 c 0,3,4
 221 669 221 669 289 658 c 128,-1,5
 357 647 357 647 415.5 647 c 128,-1,6
 474 647 474 647 529 650 c 1,7,-1
 529 635 l 1,8,-1
 142 34 l 1,9,-1
 164 34 l 2,10,11
 230 34 230 34 313 15.5 c 128,-1,12
 396 -3 396 -3 422 -3 c 0,13,14
 476 -3 476 -3 505 22 c 128,-1,15
 534 47 534 47 534 82 c 128,-1,16
 534 117 534 117 515.5 133 c 128,-1,17
 497 149 497 149 477 149 c 0,18,19
 468 149 468 149 468 140.5 c 128,-1,20
 468 132 468 132 475 131 c 0,21,22
 513 121 513 121 513 85 c 0,23,24
 513 64 513 64 497 48 c 128,-1,25
 481 32 481 32 452.5 32 c 128,-1,26
 424 32 424 32 407 52 c 128,-1,27
 390 72 390 72 390 100 c 128,-1,28
 390 128 390 128 412 149.5 c 128,-1,29
 434 171 434 171 468 171 c 128,-1,30
 502 171 502 171 527 146.5 c 128,-1,31
 552 122 552 122 552 80 c 128,-1,32
 552 38 552 38 517 8.5 c 128,-1,33
 482 -21 482 -21 423 -21 c 0,34,35
 393 -21 393 -21 308.5 -2.5 c 128,-1,36
 224 16 224 16 162 16 c 128,-1,37
 100 16 100 16 27 2 c 1,38,-1
 15 17 l 1,39,-1
 409 629 l 1,40,41
 347 631 347 631 284 641 c 128,-1,42
 221 651 221 651 173.5 651 c 128,-1,43
 126 651 126 651 93 628 c 128,-1,44
 60 605 60 605 60 577 c 0,45,46
 60 568 60 568 68 568 c 128,-1,47
 76 568 76 568 79.5 580 c 128,-1,48
 83 592 83 592 97 600 c 128,-1,49
 111 608 111 608 129.5 608 c 128,-1,50
 148 608 148 608 164.5 592 c 128,-1,51
 181 576 181 576 181 547.5 c 128,-1,52
 181 519 181 519 161 502 c 128,-1,53
 141 485 141 485 113 485 c 128,-1,54
 85 485 85 485 62 507 c 128,-1,55
 39 529 39 529 39 563 c 0,0,1
EndSplineSet
EndChar

StartChar: bracketleft
Encoding: 91 91 62
Width: 306
GlyphClass: 2
Flags: W
LayerCount: 2
Fore
SplineSet
306 650 m 1,0,-1
 306 634 l 1,1,-1
 190 634 l 1,2,-1
 190 -159 l 1,3,-1
 306 -159 l 1,4,-1
 306 -175 l 1,5,-1
 86 -175 l 1,6,-1
 86 650 l 1,7,-1
 306 650 l 1,0,-1
EndSplineSet
EndChar

StartChar: backslash
Encoding: 92 92 63
Width: 295
GlyphClass: 2
Flags: W
LayerCount: 2
Fore
SplineSet
-30 713 m 1,0,-1
 262 -114 l 1,1,-1
 240 -114 l 1,2,-1
 -51 713 l 1,3,-1
 -30 713 l 1,0,-1
EndSplineSet
EndChar

StartChar: bracketright
Encoding: 93 93 64
Width: 306
GlyphClass: 2
Flags: W
LayerCount: 2
Fore
SplineSet
0 634 m 1,0,-1
 0 650 l 1,1,-1
 220 650 l 1,2,-1
 220 -175 l 1,3,-1
 0 -175 l 1,4,-1
 0 -159 l 1,5,-1
 116 -159 l 1,6,-1
 116 634 l 1,7,-1
 0 634 l 1,0,-1
EndSplineSet
EndChar

StartChar: asciicircum
Encoding: 94 94 65
Width: 477
GlyphClass: 2
Flags: W
LayerCount: 2
Fore
SplineSet
431 148 m 1,0,-1
 415 139 l 1,1,-1
 258 436 l 1,2,-1
 101 139 l 1,3,-1
 86 149 l 1,4,-1
 252 469 l 1,5,-1
 263 469 l 1,6,-1
 431 148 l 1,0,-1
EndSplineSet
EndChar

StartChar: underscore
Encoding: 95 95 66
Width: 438
GlyphClass: 2
Flags: W
LayerCount: 2
Fore
SplineSet
468 -194 m 1,0,-1
 468 -215 l 1,1,-1
 -26 -215 l 1,2,-1
 -26 -194 l 1,3,-1
 468 -194 l 1,0,-1
EndSplineSet
EndChar

StartChar: grave
Encoding: 96 96 67
Width: 352
GlyphClass: 2
Flags: W
LayerCount: 2
Fore
SplineSet
46 647 m 0,0,1
 46 662 46 662 55.5 671 c 128,-1,2
 65 680 65 680 84.5 680 c 128,-1,3
 104 680 104 680 126 653 c 1,4,5
 130 645 130 645 139 636 c 128,-1,6
 148 627 148 627 155.5 618 c 128,-1,7
 163 609 163 609 168.5 604.5 c 128,-1,8
 174 600 174 600 183 591.5 c 128,-1,9
 192 583 192 583 200 577 c 128,-1,10
 208 571 208 571 219 563 c 0,11,12
 236 551 236 551 267 534 c 1,13,-1
 260 519 l 1,14,-1
 80 603 l 2,15,16
 46 618 46 618 46 647 c 0,0,1
EndSplineSet
EndChar

StartChar: a
Encoding: 97 97 68
Width: 525
GlyphClass: 2
Flags: W
LayerCount: 2
Fore
SplineSet
241 480 m 0,0,1
 360 480 360 480 398.5 426.5 c 128,-1,2
 437 373 437 373 437 240 c 2,3,-1
 437 63 l 2,4,5
 437 22 437 22 455 22 c 0,6,7
 492 22 492 22 504 137 c 1,8,-1
 522 135 l 1,9,10
 507 -20 507 -20 421 -20 c 0,11,12
 396 -20 396 -20 382.5 -2 c 128,-1,13
 369 16 369 16 365.5 37.5 c 128,-1,14
 362 59 362 59 362 91 c 1,15,-1
 356 91 l 1,16,17
 343 38 343 38 303 9 c 128,-1,18
 263 -20 263 -20 200.5 -20 c 128,-1,19
 138 -20 138 -20 91 13.5 c 128,-1,20
 44 47 44 47 44 110 c 0,21,22
 44 157 44 157 71 188 c 0,23,24
 127 252 127 252 325 252 c 0,25,26
 336 252 336 252 348 252 c 1,27,-1
 348 301 l 2,28,29
 348 380 348 380 321 420 c 128,-1,30
 294 460 294 460 227.5 460 c 128,-1,31
 161 460 161 460 130 433 c 128,-1,32
 99 406 99 406 99 377 c 0,33,34
 99 368 99 368 107.5 368 c 128,-1,35
 116 368 116 368 117 377 c 1,36,37
 123 403 123 403 157 403 c 0,38,39
 179 403 179 403 192 387.5 c 128,-1,40
 205 372 205 372 205 349.5 c 128,-1,41
 205 327 205 327 188.5 311.5 c 128,-1,42
 172 296 172 296 145.5 296 c 128,-1,43
 119 296 119 296 99.5 316.5 c 128,-1,44
 80 337 80 337 80 367 c 0,45,46
 80 423 80 423 127 451.5 c 128,-1,47
 174 480 174 480 241 480 c 0,0,1
348 167 m 2,48,-1
 348 234 l 1,49,50
 338 234 338 234 316.5 234 c 128,-1,51
 295 234 295 234 265.5 231 c 128,-1,52
 236 228 236 228 205 216 c 0,53,54
 141 193 141 193 141 114 c 0,55,56
 141 66 141 66 164 37 c 128,-1,57
 187 8 187 8 238 8 c 128,-1,58
 289 8 289 8 318.5 54 c 128,-1,59
 348 100 348 100 348 167 c 2,48,-1
EndSplineSet
EndChar

StartChar: b
Encoding: 98 98 69
Width: 570
GlyphClass: 2
Flags: W
LayerCount: 2
Fore
SplineSet
193 369 m 1,0,-1
 199 369 l 1,1,2
 217 420 217 420 252.5 450 c 128,-1,3
 288 480 288 480 337 480 c 0,4,5
 427 480 427 480 470.5 409.5 c 128,-1,6
 514 339 514 339 514 231 c 128,-1,7
 514 123 514 123 469 51.5 c 128,-1,8
 424 -20 424 -20 331 -20 c 128,-1,9
 238 -20 238 -20 199 62 c 1,10,-1
 193 62 l 1,11,-1
 193 0 l 1,12,-1
 38 0 l 1,13,-1
 38 15 l 1,14,-1
 104 15 l 1,15,-1
 104 675 l 1,16,-1
 33 675 l 1,17,-1
 33 690 l 1,18,-1
 54 690 l 2,19,20
 132 690 132 690 193 703 c 1,21,-1
 193 369 l 1,0,-1
191 231 m 2,22,-1
 191 195 l 2,23,24
 191 117 191 117 221 62.5 c 128,-1,25
 251 8 251 8 315 8 c 0,26,27
 384 8 384 8 402 86 c 0,28,29
 417 149 417 149 417 212 c 128,-1,30
 417 275 417 275 413.5 308 c 128,-1,31
 410 341 410 341 400.5 376.5 c 128,-1,32
 391 412 391 412 368.5 432 c 128,-1,33
 346 452 346 452 314.5 452 c 128,-1,34
 283 452 283 452 258.5 429.5 c 128,-1,35
 234 407 234 407 220 372 c 0,36,37
 191 301 191 301 191 231 c 2,22,-1
EndSplineSet
EndChar

StartChar: c
Encoding: 99 99 70
Width: 459
GlyphClass: 2
Flags: W
LayerCount: 2
Fore
SplineSet
289 460 m 0,0,1
 153 460 153 460 153 234 c 128,-1,2
 153 8 153 8 291 8 c 0,3,4
 343 8 343 8 376.5 46 c 128,-1,5
 410 84 410 84 423 144 c 1,6,-1
 441 142 l 1,7,8
 426 69 426 69 381 24.5 c 128,-1,9
 336 -20 336 -20 267 -20 c 0,10,11
 164 -20 164 -20 110 49.5 c 128,-1,12
 56 119 56 119 56 232 c 128,-1,13
 56 345 56 345 110.5 412.5 c 128,-1,14
 165 480 165 480 273 480 c 0,15,16
 342 480 342 480 385 450 c 128,-1,17
 428 420 428 420 428 359 c 0,18,19
 428 329 428 329 408.5 308.5 c 128,-1,20
 389 288 389 288 362.5 288 c 128,-1,21
 336 288 336 288 319.5 303.5 c 128,-1,22
 303 319 303 319 303 341.5 c 128,-1,23
 303 364 303 364 316 379.5 c 128,-1,24
 329 395 329 395 351 395 c 0,25,26
 385 395 385 395 391 369 c 1,27,28
 392 360 392 360 400.5 360 c 128,-1,29
 409 360 409 360 409 369 c 0,30,31
 409 403 409 403 378.5 431.5 c 128,-1,32
 348 460 348 460 289 460 c 0,0,1
EndSplineSet
EndChar

StartChar: d
Encoding: 100 100 71
Width: 565
GlyphClass: 2
Flags: W
LayerCount: 2
Fore
SplineSet
532 0 m 1,0,-1
 377 0 l 1,1,-1
 377 91 l 1,2,-1
 371 91 l 1,3,4
 353 40 353 40 317.5 10 c 128,-1,5
 282 -20 282 -20 233 -20 c 0,6,7
 143 -20 143 -20 99.5 50.5 c 128,-1,8
 56 121 56 121 56 229 c 128,-1,9
 56 337 56 337 101 408.5 c 128,-1,10
 146 480 146 480 239 480 c 128,-1,11
 332 480 332 480 371 398 c 1,12,-1
 377 398 l 1,13,-1
 377 675 l 1,14,-1
 306 675 l 1,15,-1
 306 690 l 1,16,-1
 327 690 l 2,17,18
 405 690 405 690 466 703 c 1,19,-1
 466 15 l 1,20,-1
 532 15 l 1,21,-1
 532 0 l 1,0,-1
379 229 m 2,22,-1
 379 265 l 2,23,24
 379 343 379 343 349 397.5 c 128,-1,25
 319 452 319 452 255 452 c 0,26,27
 186 452 186 452 168 374 c 0,28,29
 153 311 153 311 153 248 c 128,-1,30
 153 185 153 185 156.5 152 c 128,-1,31
 160 119 160 119 169.5 83.5 c 128,-1,32
 179 48 179 48 201.5 28 c 128,-1,33
 224 8 224 8 255.5 8 c 128,-1,34
 287 8 287 8 311.5 30.5 c 128,-1,35
 336 53 336 53 350 88 c 0,36,37
 379 159 379 159 379 229 c 2,22,-1
EndSplineSet
EndChar

StartChar: e
Encoding: 101 101 72
Width: 490
GlyphClass: 2
Flags: W
LayerCount: 2
Fore
SplineSet
276 480 m 0,0,1
 351 480 351 480 401.5 448 c 128,-1,2
 452 416 452 416 452 352 c 0,3,4
 452 253 452 253 339 230 c 0,5,6
 282 219 282 219 197 219 c 2,7,-1
 150 219 l 1,8,-1
 150 190 l 2,9,10
 150 109 150 109 183.5 58.5 c 128,-1,11
 217 8 217 8 281.5 8 c 128,-1,12
 346 8 346 8 382.5 46 c 128,-1,13
 419 84 419 84 434 144 c 1,14,-1
 452 142 l 1,15,16
 436 69 436 69 387.5 24.5 c 128,-1,17
 339 -20 339 -20 265 -20 c 0,18,19
 161 -20 161 -20 107 48.5 c 128,-1,20
 53 117 53 117 53 230 c 128,-1,21
 53 343 53 343 111 411.5 c 128,-1,22
 169 480 169 480 276 480 c 0,0,1
150 237 m 1,23,-1
 185 237 l 2,24,25
 266 237 266 237 298.5 253 c 128,-1,26
 331 269 331 269 343 292.5 c 128,-1,27
 355 316 355 316 355 359 c 128,-1,28
 355 402 355 402 333.5 432.5 c 128,-1,29
 312 463 312 463 268 463 c 128,-1,30
 224 463 224 463 196.5 431.5 c 128,-1,31
 169 400 169 400 159.5 358 c 128,-1,32
 150 316 150 316 150 265 c 2,33,-1
 150 237 l 1,23,-1
EndSplineSet
EndChar

StartChar: f
Encoding: 102 102 73
Width: 311
GlyphClass: 2
Flags: W
LayerCount: 2
Fore
SplineSet
276 606 m 0,0,1
 289 606 289 606 289 631 c 128,-1,2
 289 656 289 656 271 674 c 128,-1,3
 253 692 253 692 219.5 692 c 128,-1,4
 186 692 186 692 165.5 666 c 128,-1,5
 145 640 145 640 145 601 c 128,-1,6
 145 562 145 562 169.5 524 c 128,-1,7
 194 486 194 486 197 460 c 1,8,-1
 290 460 l 1,9,-1
 290 445 l 1,10,-1
 198 445 l 1,11,-1
 198 15 l 1,12,-1
 264 15 l 1,13,-1
 264 0 l 1,14,-1
 43 0 l 1,15,-1
 43 15 l 1,16,-1
 109 15 l 1,17,-1
 109 445 l 1,18,-1
 38 445 l 1,19,-1
 38 460 l 1,20,-1
 109 460 l 1,21,-1
 109 528 l 2,22,23
 109 710 109 710 225 710 c 0,24,25
 260 710 260 710 283.5 686.5 c 128,-1,26
 307 663 307 663 307 631 c 128,-1,27
 307 599 307 599 287 576 c 128,-1,28
 267 553 267 553 240 553 c 128,-1,29
 213 553 213 553 196.5 568.5 c 128,-1,30
 180 584 180 584 180 606.5 c 128,-1,31
 180 629 180 629 193 644.5 c 128,-1,32
 206 660 206 660 226.5 660 c 128,-1,33
 247 660 247 660 258 650 c 128,-1,34
 269 640 269 640 269 625 c 1,35,-1
 268 614 l 2,36,37
 268 606 268 606 276 606 c 0,0,1
EndSplineSet
EndChar

StartChar: g
Encoding: 103 103 74
Width: 512
GlyphClass: 2
Flags: W
LayerCount: 2
Fore
SplineSet
388 598 m 0,0,1
 365 598 365 598 347.5 580 c 128,-1,2
 330 562 330 562 330 533 c 0,3,4
 330 481 330 481 377 446 c 0,5,6
 460 384 460 384 460 278 c 0,7,8
 460 190 460 190 404.5 132.5 c 128,-1,9
 349 75 349 75 263 75 c 0,10,11
 222 75 222 75 188 89 c 1,12,13
 151 78 151 78 122.5 57 c 128,-1,14
 94 36 94 36 94 8 c 0,15,16
 94 -40 94 -40 161 -40 c 0,17,18
 191 -40 191 -40 269 -10.5 c 128,-1,19
 347 19 347 19 385.5 19 c 128,-1,20
 424 19 424 19 450 -7.5 c 128,-1,21
 476 -34 476 -34 476 -80 c 0,22,23
 476 -152 476 -152 420 -193.5 c 128,-1,24
 364 -235 364 -235 294 -235 c 0,25,26
 157 -235 157 -235 111 -120 c 1,27,28
 46 -106 46 -106 46 -30 c 0,29,30
 46 14 46 14 81 47 c 128,-1,31
 116 80 116 80 168 98 c 1,32,33
 120 123 120 123 93 170.5 c 128,-1,34
 66 218 66 218 66 278 c 0,35,36
 66 366 66 366 121.5 423 c 128,-1,37
 177 480 177 480 263 480 c 0,38,39
 296 480 296 480 334 468 c 1,40,-1
 336 470 l 1,41,42
 312 497 312 497 312 534 c 128,-1,43
 312 571 312 571 336.5 594 c 128,-1,44
 361 617 361 617 395 617 c 128,-1,45
 429 617 429 617 449.5 598 c 128,-1,46
 470 579 470 579 470 553 c 128,-1,47
 470 527 470 527 454.5 510.5 c 128,-1,48
 439 494 439 494 416.5 494 c 128,-1,49
 394 494 394 494 378.5 507.5 c 128,-1,50
 363 521 363 521 363 542 c 0,51,52
 363 574 363 574 389 580 c 0,53,54
 398 582 398 582 398 590 c 128,-1,55
 398 598 398 598 388 598 c 0,0,1
368 278 m 128,-1,57
 368 319 368 319 364.5 347.5 c 128,-1,58
 361 376 361 376 351 405 c 128,-1,59
 341 434 341 434 319 449 c 128,-1,60
 297 464 297 464 263 464 c 128,-1,61
 229 464 229 464 207 449 c 128,-1,62
 185 434 185 434 175 405 c 128,-1,63
 165 376 165 376 161.5 347.5 c 128,-1,64
 158 319 158 319 158 278 c 128,-1,65
 158 237 158 237 161.5 208 c 128,-1,66
 165 179 165 179 175 150 c 128,-1,67
 185 121 185 121 207 106 c 128,-1,68
 229 91 229 91 263 91 c 128,-1,69
 297 91 297 91 319 106 c 128,-1,70
 341 121 341 121 351 150 c 128,-1,71
 361 179 361 179 364.5 208 c 128,-1,56
 368 237 368 237 368 278 c 128,-1,57
134 -122 m 2,72,-1
 133 -122 l 1,73,74
 147 -167 147 -167 190 -193 c 128,-1,75
 233 -219 233 -219 286.5 -219 c 128,-1,76
 340 -219 340 -219 384 -194 c 128,-1,77
 428 -169 428 -169 428 -122 c 0,78,79
 428 -95 428 -95 410.5 -79.5 c 128,-1,80
 393 -64 393 -64 364.5 -64 c 128,-1,81
 336 -64 336 -64 250 -93 c 128,-1,82
 164 -122 164 -122 134 -122 c 2,72,-1
EndSplineSet
EndChar

StartChar: h
Encoding: 104 104 75
Width: 588
GlyphClass: 2
Flags: W
LayerCount: 2
Fore
SplineSet
261 15 m 1,0,-1
 261 0 l 1,1,-1
 40 0 l 1,2,-1
 40 15 l 1,3,-1
 106 15 l 1,4,-1
 106 675 l 1,5,-1
 35 675 l 1,6,-1
 35 690 l 1,7,-1
 56 690 l 2,8,9
 135 690 135 690 197 703 c 1,10,-1
 197 373 l 1,11,-1
 203 373 l 1,12,13
 220 421 220 421 260.5 450.5 c 128,-1,14
 301 480 301 480 351 480 c 0,15,16
 438 480 438 480 470 428.5 c 128,-1,17
 502 377 502 377 502 275 c 2,18,-1
 502 15 l 1,19,-1
 568 15 l 1,20,-1
 568 0 l 1,21,-1
 347 0 l 1,22,-1
 347 15 l 1,23,-1
 413 15 l 1,24,-1
 413 261 l 2,25,26
 413 374 413 374 396 410 c 0,27,28
 388 426 388 426 371.5 439 c 128,-1,29
 355 452 355 452 323 452 c 128,-1,30
 291 452 291 452 262.5 429 c 128,-1,31
 234 406 234 406 220 366 c 0,32,33
 195 295 195 295 195 196 c 2,34,-1
 195 15 l 1,35,-1
 261 15 l 1,0,-1
EndSplineSet
EndChar

StartChar: i
Encoding: 105 105 76
Width: 296
GlyphClass: 2
Flags: W
LayerCount: 2
Fore
SplineSet
197 15 m 1,0,-1
 263 15 l 1,1,-1
 263 0 l 1,2,-1
 42 0 l 1,3,-1
 42 15 l 1,4,-1
 108 15 l 1,5,-1
 108 445 l 1,6,-1
 37 445 l 1,7,-1
 37 460 l 1,8,-1
 58 460 l 2,9,10
 136 460 136 460 197 473 c 1,11,-1
 197 15 l 1,0,-1
91 611 m 128,-1,13
 91 636 91 636 107.5 653 c 128,-1,14
 124 670 124 670 149 670 c 128,-1,15
 174 670 174 670 191 653 c 128,-1,16
 208 636 208 636 208 611 c 128,-1,17
 208 586 208 586 191 569.5 c 128,-1,18
 174 553 174 553 149 553 c 128,-1,19
 124 553 124 553 107.5 569.5 c 128,-1,12
 91 586 91 586 91 611 c 128,-1,13
EndSplineSet
EndChar

StartChar: j
Encoding: 106 106 77
Width: 287
GlyphClass: 2
Flags: W
LayerCount: 2
Fore
SplineSet
92 611 m 128,-1,1
 92 636 92 636 108.5 653 c 128,-1,2
 125 670 125 670 150 670 c 128,-1,3
 175 670 175 670 192 653 c 128,-1,4
 209 636 209 636 209 611 c 128,-1,5
 209 586 209 586 192 569.5 c 128,-1,6
 175 553 175 553 150 553 c 128,-1,7
 125 553 125 553 108.5 569.5 c 128,-1,0
 92 586 92 586 92 611 c 128,-1,1
32 -131 m 0,8,9
 19 -131 19 -131 19 -157 c 128,-1,10
 19 -183 19 -183 39.5 -200 c 128,-1,11
 60 -217 60 -217 90 -217 c 0,12,13
 166 -217 166 -217 166 -122 c 0,14,15
 166 -87 166 -87 139.5 -41 c 128,-1,16
 113 5 113 5 113 40 c 2,17,-1
 113 445 l 1,18,-1
 42 445 l 1,19,-1
 42 460 l 1,20,-1
 63 460 l 2,21,22
 141 460 141 460 202 473 c 1,23,-1
 202 -53 l 2,24,25
 202 -235 202 -235 90 -235 c 0,26,27
 52 -235 52 -235 26.5 -212 c 128,-1,28
 1 -189 1 -189 1 -156.5 c 128,-1,29
 1 -124 1 -124 21 -101 c 128,-1,30
 41 -78 41 -78 68 -78 c 128,-1,31
 95 -78 95 -78 111.5 -93.5 c 128,-1,32
 128 -109 128 -109 128 -131.5 c 128,-1,33
 128 -154 128 -154 115 -169.5 c 128,-1,34
 102 -185 102 -185 81.5 -185 c 128,-1,35
 61 -185 61 -185 50 -175 c 128,-1,36
 39 -165 39 -165 39 -150 c 1,37,-1
 40 -139 l 2,38,39
 40 -131 40 -131 32 -131 c 0,8,9
EndSplineSet
EndChar

StartChar: k
Encoding: 107 107 78
Width: 492
GlyphClass: 2
Flags: W
LayerCount: 2
Fore
SplineSet
257 262 m 1,0,-1
 193 251 l 1,1,-1
 193 15 l 1,2,-1
 259 15 l 1,3,-1
 259 0 l 1,4,-1
 38 0 l 1,5,-1
 38 15 l 1,6,-1
 104 15 l 1,7,-1
 104 675 l 1,8,-1
 33 675 l 1,9,-1
 33 690 l 1,10,-1
 54 690 l 2,11,12
 132 690 132 690 193 703 c 1,13,-1
 193 268 l 1,14,15
 391 294 391 294 391 396 c 0,16,17
 391 426 391 426 375.5 444 c 128,-1,18
 360 462 360 462 337 462 c 0,19,20
 327 462 327 462 327 454 c 128,-1,21
 327 446 327 446 336 444 c 0,22,23
 362 438 362 438 362 405 c 0,24,25
 362 384 362 384 346.5 370.5 c 128,-1,26
 331 357 331 357 308.5 357 c 128,-1,27
 286 357 286 357 270.5 373.5 c 128,-1,28
 255 390 255 390 255 416 c 128,-1,29
 255 442 255 442 275.5 461 c 128,-1,30
 296 480 296 480 330 480 c 128,-1,31
 364 480 364 480 386 457.5 c 128,-1,32
 408 435 408 435 408 396 c 0,33,34
 408 313 408 313 304 276 c 1,35,-1
 304 274 l 1,36,37
 382 270 382 270 406 233 c 128,-1,38
 430 196 430 196 430 112 c 2,39,-1
 430 74 l 2,40,41
 430 36 430 36 436.5 19.5 c 128,-1,42
 443 3 443 3 461 3 c 0,43,44
 468 3 468 3 479 6 c 1,45,-1
 481 -6 l 1,46,47
 455 -13 455 -13 427 -13 c 0,48,49
 341 -13 341 -13 341 86 c 2,50,-1
 341 140 l 2,51,52
 341 262 341 262 263 262 c 2,53,-1
 257 262 l 1,0,-1
EndSplineSet
EndChar

StartChar: l
Encoding: 108 108 79
Width: 291
GlyphClass: 2
Flags: W
LayerCount: 2
Fore
SplineSet
195 15 m 1,0,-1
 261 15 l 1,1,-1
 261 0 l 1,2,-1
 40 0 l 1,3,-1
 40 15 l 1,4,-1
 106 15 l 1,5,-1
 106 675 l 1,6,-1
 35 675 l 1,7,-1
 35 690 l 1,8,-1
 56 690 l 2,9,10
 134 690 134 690 195 703 c 1,11,-1
 195 15 l 1,0,-1
EndSplineSet
EndChar

StartChar: m
Encoding: 109 109 80
Width: 870
GlyphClass: 2
Flags: W
LayerCount: 2
Fore
SplineSet
261 15 m 1,0,-1
 261 0 l 1,1,-1
 40 0 l 1,2,-1
 40 15 l 1,3,-1
 106 15 l 1,4,-1
 106 445 l 1,5,-1
 35 445 l 1,6,-1
 35 460 l 1,7,-1
 56 460 l 2,8,9
 135 460 135 460 197 473 c 1,10,-1
 197 373 l 1,11,-1
 203 373 l 1,12,13
 220 421 220 421 259 450.5 c 128,-1,14
 298 480 298 480 348 480 c 0,15,16
 467 480 467 480 489 373 c 1,17,-1
 495 373 l 1,18,19
 512 421 512 421 551 450.5 c 128,-1,20
 590 480 590 480 640 480 c 0,21,22
 726 480 726 480 755 430 c 128,-1,23
 784 380 784 380 784 275 c 2,24,-1
 784 15 l 1,25,-1
 850 15 l 1,26,-1
 850 0 l 1,27,-1
 629 0 l 1,28,-1
 629 15 l 1,29,-1
 695 15 l 1,30,-1
 695 298 l 2,31,32
 695 412 695 412 662 440 c 1,33,34
 646 452 646 452 621 452 c 0,35,36
 487 452 487 452 487 196 c 2,37,-1
 487 15 l 1,38,-1
 553 15 l 1,39,-1
 553 0 l 1,40,-1
 337 0 l 1,41,-1
 337 15 l 1,42,-1
 403 15 l 1,43,-1
 403 298 l 2,44,45
 403 412 403 412 370 440 c 1,46,47
 354 452 354 452 329 452 c 0,48,49
 195 452 195 452 195 196 c 2,50,-1
 195 15 l 1,51,-1
 261 15 l 1,0,-1
EndSplineSet
EndChar

StartChar: n
Encoding: 110 110 81
Width: 588
GlyphClass: 2
Flags: W
LayerCount: 2
Fore
SplineSet
261 15 m 1,0,-1
 261 0 l 1,1,-1
 40 0 l 1,2,-1
 40 15 l 1,3,-1
 106 15 l 1,4,-1
 106 445 l 1,5,-1
 35 445 l 1,6,-1
 35 460 l 1,7,-1
 56 460 l 2,8,9
 135 460 135 460 197 473 c 1,10,-1
 197 373 l 1,11,-1
 203 373 l 1,12,13
 220 421 220 421 260.5 450.5 c 128,-1,14
 301 480 301 480 351 480 c 0,15,16
 438 480 438 480 470 428.5 c 128,-1,17
 502 377 502 377 502 275 c 2,18,-1
 502 15 l 1,19,-1
 568 15 l 1,20,-1
 568 0 l 1,21,-1
 347 0 l 1,22,-1
 347 15 l 1,23,-1
 413 15 l 1,24,-1
 413 261 l 2,25,26
 413 374 413 374 396 410 c 0,27,28
 388 426 388 426 371.5 439 c 128,-1,29
 355 452 355 452 323 452 c 128,-1,30
 291 452 291 452 262.5 429 c 128,-1,31
 234 406 234 406 220 366 c 0,32,33
 195 295 195 295 195 196 c 2,34,-1
 195 15 l 1,35,-1
 261 15 l 1,0,-1
EndSplineSet
EndChar

StartChar: o
Encoding: 111 111 82
Width: 546
GlyphClass: 2
Flags: W
LayerCount: 2
Fore
SplineSet
273 -20 m 128,-1,1
 169 -20 169 -20 111 50 c 128,-1,2
 53 120 53 120 53 230 c 128,-1,3
 53 340 53 340 111 410 c 128,-1,4
 169 480 169 480 273 480 c 128,-1,5
 377 480 377 480 435 410 c 128,-1,6
 493 340 493 340 493 230 c 128,-1,7
 493 120 493 120 435 50 c 128,-1,0
 377 -20 377 -20 273 -20 c 128,-1,1
396 230 m 128,-1,9
 396 268 396 268 394 297 c 128,-1,10
 392 326 392 326 384.5 359 c 128,-1,11
 377 392 377 392 364.5 413.5 c 128,-1,12
 352 435 352 435 328.5 449 c 128,-1,13
 305 463 305 463 273 463 c 128,-1,14
 241 463 241 463 217.5 449 c 128,-1,15
 194 435 194 435 181.5 413.5 c 128,-1,16
 169 392 169 392 161.5 359 c 128,-1,17
 154 326 154 326 152 297 c 128,-1,18
 150 268 150 268 150 230 c 128,-1,19
 150 192 150 192 152 163 c 128,-1,20
 154 134 154 134 161.5 101 c 128,-1,21
 169 68 169 68 181.5 46.5 c 128,-1,22
 194 25 194 25 217.5 11 c 128,-1,23
 241 -3 241 -3 273 -3 c 128,-1,24
 305 -3 305 -3 328.5 11 c 128,-1,25
 352 25 352 25 364.5 46.5 c 128,-1,26
 377 68 377 68 384.5 101 c 128,-1,27
 392 134 392 134 394 163 c 128,-1,8
 396 192 396 192 396 230 c 128,-1,9
EndSplineSet
EndChar

StartChar: p
Encoding: 112 112 83
Width: 567
GlyphClass: 2
Flags: W
LayerCount: 2
Fore
SplineSet
190 -200 m 1,0,-1
 256 -200 l 1,1,-1
 256 -215 l 1,2,-1
 35 -215 l 1,3,-1
 35 -200 l 1,4,-1
 101 -200 l 1,5,-1
 101 445 l 1,6,-1
 30 445 l 1,7,-1
 30 460 l 1,8,-1
 51 460 l 2,9,10
 129 460 129 460 190 473 c 1,11,-1
 190 369 l 1,12,-1
 196 369 l 1,13,14
 214 420 214 420 249.5 450 c 128,-1,15
 285 480 285 480 334 480 c 0,16,17
 424 480 424 480 467.5 409.5 c 128,-1,18
 511 339 511 339 511 231 c 128,-1,19
 511 123 511 123 466 51.5 c 128,-1,20
 421 -20 421 -20 328 -20 c 128,-1,21
 235 -20 235 -20 196 62 c 1,22,-1
 190 62 l 1,23,-1
 190 -200 l 1,0,-1
188 231 m 2,24,-1
 188 195 l 2,25,26
 188 117 188 117 218 62.5 c 128,-1,27
 248 8 248 8 312 8 c 0,28,29
 381 8 381 8 399 86 c 0,30,31
 414 149 414 149 414 212 c 128,-1,32
 414 275 414 275 410.5 308 c 128,-1,33
 407 341 407 341 397.5 376.5 c 128,-1,34
 388 412 388 412 365.5 432 c 128,-1,35
 343 452 343 452 311.5 452 c 128,-1,36
 280 452 280 452 255.5 429.5 c 128,-1,37
 231 407 231 407 217 372 c 0,38,39
 188 301 188 301 188 231 c 2,24,-1
EndSplineSet
EndChar

StartChar: q
Encoding: 113 113 84
Width: 567
GlyphClass: 2
Flags: W
LayerCount: 2
Fore
SplineSet
311 -200 m 1,0,-1
 377 -200 l 1,1,-1
 377 91 l 1,2,-1
 371 91 l 1,3,4
 353 40 353 40 317.5 10 c 128,-1,5
 282 -20 282 -20 233 -20 c 0,6,7
 143 -20 143 -20 99.5 50.5 c 128,-1,8
 56 121 56 121 56 229 c 128,-1,9
 56 337 56 337 101 408.5 c 128,-1,10
 146 480 146 480 239 480 c 128,-1,11
 332 480 332 480 371 398 c 1,12,-1
 377 398 l 1,13,-1
 377 473 l 1,14,15
 438 460 438 460 516 460 c 2,16,-1
 537 460 l 1,17,-1
 537 445 l 1,18,-1
 466 445 l 1,19,-1
 466 -200 l 1,20,-1
 532 -200 l 1,21,-1
 532 -215 l 1,22,-1
 311 -215 l 1,23,-1
 311 -200 l 1,0,-1
379 229 m 2,24,-1
 379 265 l 2,25,26
 379 343 379 343 349 397.5 c 128,-1,27
 319 452 319 452 255 452 c 0,28,29
 186 452 186 452 168 374 c 0,30,31
 153 311 153 311 153 248 c 128,-1,32
 153 185 153 185 156.5 152 c 128,-1,33
 160 119 160 119 169.5 83.5 c 128,-1,34
 179 48 179 48 201.5 28 c 128,-1,35
 224 8 224 8 255.5 8 c 128,-1,36
 287 8 287 8 311.5 30.5 c 128,-1,37
 336 53 336 53 350 88 c 0,38,39
 379 159 379 159 379 229 c 2,24,-1
EndSplineSet
EndChar

StartChar: r
Encoding: 114 114 85
Width: 408
GlyphClass: 2
Flags: W
LayerCount: 2
Fore
SplineSet
396 404 m 0,0,1
 396 430 396 430 377 447 c 128,-1,2
 358 464 358 464 326 464 c 128,-1,3
 294 464 294 464 266.5 438.5 c 128,-1,4
 239 413 239 413 224 372 c 0,5,6
 197 293 197 293 197 201 c 2,7,-1
 197 15 l 1,8,-1
 270 15 l 1,9,-1
 270 0 l 1,10,-1
 42 0 l 1,11,-1
 42 15 l 1,12,-1
 108 15 l 1,13,-1
 108 445 l 1,14,-1
 37 445 l 1,15,-1
 37 460 l 1,16,-1
 58 460 l 2,17,18
 138 460 138 460 199 473 c 1,19,-1
 199 369 l 1,20,-1
 205 369 l 1,21,22
 247 480 247 480 331 480 c 0,23,24
 368 480 368 480 391.5 456.5 c 128,-1,25
 415 433 415 433 415 398.5 c 128,-1,26
 415 364 415 364 395.5 343.5 c 128,-1,27
 376 323 376 323 349.5 323 c 128,-1,28
 323 323 323 323 306.5 338.5 c 128,-1,29
 290 354 290 354 290 376.5 c 128,-1,30
 290 399 290 399 303 414.5 c 128,-1,31
 316 430 316 430 338 430 c 0,32,33
 372 430 372 430 378 404 c 0,34,35
 380 395 380 395 388 395 c 128,-1,36
 396 395 396 395 396 404 c 0,0,1
EndSplineSet
EndChar

StartChar: s
Encoding: 115 115 86
Width: 475
GlyphClass: 2
Flags: W
LayerCount: 2
Fore
SplineSet
250 480 m 0,0,1
 402 480 402 480 402 377 c 0,2,3
 402 347 402 347 382.5 326.5 c 128,-1,4
 363 306 363 306 336.5 306 c 128,-1,5
 310 306 310 306 293.5 321.5 c 128,-1,6
 277 337 277 337 277 359.5 c 128,-1,7
 277 382 277 382 290 397.5 c 128,-1,8
 303 413 303 413 325 413 c 0,9,10
 359 413 359 413 365 387 c 1,11,12
 366 378 366 378 374.5 378 c 128,-1,13
 383 378 383 378 383 387 c 0,14,15
 383 415 383 415 355.5 437.5 c 128,-1,16
 328 460 328 460 271.5 460 c 128,-1,17
 215 460 215 460 178.5 439 c 128,-1,18
 142 418 142 418 142 380.5 c 128,-1,19
 142 343 142 343 171 320 c 128,-1,20
 200 297 200 297 241 282 c 128,-1,21
 282 267 282 267 323.5 250.5 c 128,-1,22
 365 234 365 234 394 203 c 128,-1,23
 423 172 423 172 423 128 c 0,24,25
 423 53 423 53 369.5 16.5 c 128,-1,26
 316 -20 316 -20 237 -20 c 128,-1,27
 158 -20 158 -20 110 8 c 128,-1,28
 62 36 62 36 62 93 c 0,29,30
 62 123 62 123 81.5 143.5 c 128,-1,31
 101 164 101 164 127.5 164 c 128,-1,32
 154 164 154 164 170.5 148.5 c 128,-1,33
 187 133 187 133 187 110.5 c 128,-1,34
 187 88 187 88 174 72.5 c 128,-1,35
 161 57 161 57 139 57 c 0,36,37
 105 57 105 57 99 83 c 1,38,39
 98 92 98 92 89.5 92 c 128,-1,40
 81 92 81 92 81 83 c 0,41,42
 81 53 81 53 114.5 26.5 c 128,-1,43
 148 0 148 0 214 0 c 0,44,45
 359 0 359 0 359 94 c 0,46,47
 359 152 359 152 260 188 c 0,48,49
 218 203 218 203 177 219.5 c 128,-1,50
 136 236 136 236 107 267 c 128,-1,51
 78 298 78 298 78 342 c 0,52,53
 78 406 78 406 128.5 443 c 128,-1,54
 179 480 179 480 250 480 c 0,0,1
EndSplineSet
EndChar

StartChar: t
Encoding: 116 116 87
Width: 329
GlyphClass: 2
Flags: W
LayerCount: 2
Fore
SplineSet
195 445 m 1,0,-1
 195 105 l 2,1,2
 195 21 195 21 206 12 c 0,3,4
 212 7 212 7 222 7 c 0,5,6
 247 7 247 7 270.5 36 c 128,-1,7
 294 65 294 65 309 99 c 1,8,-1
 325 93 l 1,9,10
 306 45 306 45 274 12.5 c 128,-1,11
 242 -20 242 -20 200 -20 c 0,12,13
 141 -20 141 -20 123.5 15.5 c 128,-1,14
 106 51 106 51 106 127 c 2,15,-1
 106 445 l 1,16,-1
 35 445 l 1,17,-1
 35 460 l 1,18,-1
 42 460 l 2,19,20
 157 460 157 460 182 592 c 1,21,-1
 195 592 l 1,22,-1
 195 460 l 1,23,-1
 316 460 l 1,24,-1
 316 445 l 1,25,-1
 195 445 l 1,0,-1
EndSplineSet
EndChar

StartChar: u
Encoding: 117 117 88
Width: 599
GlyphClass: 2
Flags: W
LayerCount: 2
Fore
SplineSet
406 445 m 1,0,-1
 335 445 l 1,1,-1
 335 460 l 1,2,-1
 356 460 l 2,3,4
 434 460 434 460 495 473 c 1,5,-1
 495 15 l 1,6,-1
 561 15 l 1,7,-1
 561 0 l 1,8,-1
 404 0 l 1,9,-1
 404 87 l 1,10,-1
 398 87 l 1,11,12
 381 39 381 39 340.5 9.5 c 128,-1,13
 300 -20 300 -20 250 -20 c 0,14,15
 165 -20 165 -20 135.5 31 c 128,-1,16
 106 82 106 82 106 185 c 2,17,-1
 106 445 l 1,18,-1
 35 445 l 1,19,-1
 35 460 l 1,20,-1
 56 460 l 2,21,22
 134 460 134 460 195 473 c 1,23,-1
 195 199 l 2,24,25
 195 105 195 105 202 81 c 128,-1,26
 209 57 209 57 217 40 c 0,27,28
 233 8 233 8 271.5 8 c 128,-1,29
 310 8 310 8 338.5 31 c 128,-1,30
 367 54 367 54 381 94 c 0,31,32
 406 165 406 165 406 264 c 2,33,-1
 406 445 l 1,0,-1
EndSplineSet
EndChar

StartChar: v
Encoding: 118 118 89
Width: 505
GlyphClass: 2
Flags: W
LayerCount: 2
Fore
SplineSet
238 61.5 m 128,-1,1
 264 25 264 25 297.5 25 c 128,-1,2
 331 25 331 25 364.5 69.5 c 128,-1,3
 398 114 398 114 419.5 183.5 c 128,-1,4
 441 253 441 253 441 320 c 0,5,6
 441 462 441 462 362 462 c 0,7,8
 352 462 352 462 352 454 c 128,-1,9
 352 446 352 446 361 444 c 0,10,11
 389 438 389 438 388.5 411.5 c 128,-1,12
 388 385 388 385 373.5 372 c 128,-1,13
 359 359 359 359 335.5 359 c 128,-1,14
 312 359 312 359 296.5 375 c 128,-1,15
 281 391 281 391 281 417 c 128,-1,16
 281 443 281 443 302 461.5 c 128,-1,17
 323 480 323 480 353 480 c 0,18,19
 459 480 459 480 459 324 c 0,20,21
 459 242 459 242 432.5 162.5 c 128,-1,22
 406 83 406 83 360.5 31.5 c 128,-1,23
 315 -20 315 -20 264 -20 c 0,24,25
 179 -20 179 -20 129.5 92 c 128,-1,26
 80 204 80 204 80 389 c 2,27,-1
 80 445 l 1,28,-1
 9 445 l 1,29,-1
 9 460 l 1,30,-1
 30 460 l 2,31,32
 109 460 109 460 171 473 c 1,33,-1
 171 412 l 2,34,35
 171 271 171 271 198 157 c 0,36,0
 212 98 212 98 238 61.5 c 128,-1,1
EndSplineSet
EndChar

StartChar: w
Encoding: 119 119 90
Width: 799
GlyphClass: 2
Flags: W
LayerCount: 2
Fore
SplineSet
595 25 m 0,0,1
 645 25 645 25 688 120 c 128,-1,2
 731 215 731 215 731 320 c 0,3,4
 731 464 731 464 653 464 c 0,5,6
 643 464 643 464 643 456 c 128,-1,7
 643 448 643 448 652 446 c 0,8,9
 679 441 679 441 679 406 c 1,10,11
 678 385 678 385 663.5 372 c 128,-1,12
 649 359 649 359 625.5 359 c 128,-1,13
 602 359 602 359 586.5 375 c 128,-1,14
 571 391 571 391 571 417 c 128,-1,15
 571 443 571 443 592 461.5 c 128,-1,16
 613 480 613 480 643 480 c 0,17,18
 749 480 749 480 749 324 c 0,19,20
 749 196 749 196 693 88 c 128,-1,21
 637 -20 637 -20 561 -20 c 0,22,23
 464 -20 464 -20 413 126 c 1,24,25
 386 60 386 60 347 20 c 128,-1,26
 308 -20 308 -20 264 -20 c 0,27,28
 179 -20 179 -20 129.5 92 c 128,-1,29
 80 204 80 204 80 389 c 2,30,-1
 80 445 l 1,31,-1
 9 445 l 1,32,-1
 9 460 l 1,33,-1
 30 460 l 2,34,35
 109 460 109 460 171 473 c 1,36,-1
 171 412 l 2,37,38
 171 271 171 271 198 157 c 0,39,40
 212 98 212 98 238 61.5 c 128,-1,41
 264 25 264 25 295.5 25 c 128,-1,42
 327 25 327 25 355.5 60.5 c 128,-1,43
 384 96 384 96 404 153 c 1,44,45
 377 251 377 251 377 389 c 2,46,-1
 377 445 l 1,47,-1
 306 445 l 1,48,-1
 306 460 l 1,49,-1
 327 460 l 2,50,51
 406 460 406 460 468 473 c 1,52,-1
 468 412 l 2,53,54
 468 271 468 271 495 157 c 0,55,56
 509 98 509 98 535 61.5 c 128,-1,57
 561 25 561 25 595 25 c 0,0,1
EndSplineSet
EndChar

StartChar: x
Encoding: 120 120 91
Width: 480
GlyphClass: 2
Flags: W
LayerCount: 2
Fore
SplineSet
317 441 m 128,-1,1
 344 476 344 476 379.5 476 c 128,-1,2
 415 476 415 476 435.5 457 c 128,-1,3
 456 438 456 438 456 412 c 128,-1,4
 456 386 456 386 440.5 369.5 c 128,-1,5
 425 353 425 353 402.5 353 c 128,-1,6
 380 353 380 353 364.5 366.5 c 128,-1,7
 349 380 349 380 349 399 c 128,-1,8
 349 418 349 418 357.5 427.5 c 128,-1,9
 366 437 366 437 375 441.5 c 128,-1,10
 384 446 384 446 384 450 c 0,11,12
 384 459 384 459 374 459 c 0,13,14
 347 459 347 459 322 418.5 c 128,-1,15
 297 378 297 378 267 304 c 1,16,-1
 366 82 l 2,17,18
 389 29 389 29 418 29 c 0,19,20
 443 29 443 29 457 76 c 1,21,-1
 473 71 l 1,22,23
 466 35 466 35 442.5 11 c 128,-1,24
 419 -13 419 -13 387 -13 c 0,25,26
 320 -13 320 -13 279 78 c 2,27,-1
 226 197 l 1,28,29
 173 67 173 67 152 36 c 0,30,31
 118 -16 118 -16 72 -16 c 0,32,33
 42 -16 42 -16 21.5 3 c 128,-1,34
 1 22 1 22 1 48 c 128,-1,35
 1 74 1 74 16.5 90.5 c 128,-1,36
 32 107 32 107 54.5 107 c 128,-1,37
 77 107 77 107 92.5 93.5 c 128,-1,38
 108 80 108 80 108 61 c 128,-1,39
 108 42 108 42 99 32.5 c 128,-1,40
 90 23 90 23 81.5 18.5 c 128,-1,41
 73 14 73 14 73 10 c 0,42,43
 73 1 73 1 83 1 c 0,44,45
 127 1 127 1 205 197 c 0,46,47
 212 213 212 213 215 221 c 1,48,-1
 146 378 l 2,49,50
 123 431 123 431 94 431 c 0,51,52
 69 431 69 431 55 384 c 1,53,-1
 39 389 l 1,54,55
 46 425 46 425 69.5 449 c 128,-1,56
 93 473 93 473 125 473 c 0,57,58
 192 473 192 473 233 382 c 1,59,-1
 257 327 l 1,60,0
 290 406 290 406 317 441 c 128,-1,1
EndSplineSet
EndChar

StartChar: y
Encoding: 121 121 92
Width: 480
GlyphClass: 2
Flags: W
LayerCount: 2
Fore
SplineSet
268 -233 m 0,0,1
 218 -233 218 -233 188 -197.5 c 128,-1,2
 158 -162 158 -162 158 -106 c 0,3,4
 158 -21 158 -21 246 43 c 1,5,-1
 245 47 l 1,6,7
 177 51 177 51 126 140 c 128,-1,8
 75 229 75 229 75 389 c 2,9,-1
 75 445 l 1,10,-1
 4 445 l 1,11,-1
 4 460 l 1,12,-1
 25 460 l 2,13,14
 104 460 104 460 166 473 c 1,15,-1
 166 412 l 2,16,17
 166 271 166 271 199.5 184.5 c 128,-1,18
 233 98 233 98 296 98 c 0,19,20
 341 98 341 98 390 166 c 128,-1,21
 439 234 439 234 439 320 c 0,22,23
 439 369 439 369 425 406.5 c 128,-1,24
 411 444 411 444 381 456 c 0,25,26
 371 461 371 461 358 461 c 128,-1,27
 345 461 345 461 345 452.5 c 128,-1,28
 345 444 345 444 354 443 c 0,29,30
 381 438 381 438 380 409 c 1,31,32
 380 353 380 353 328 353 c 0,33,34
 304 353 304 353 288.5 370 c 128,-1,35
 273 387 273 387 273 414.5 c 128,-1,36
 273 442 273 442 295 461 c 128,-1,37
 317 480 317 480 348 480 c 0,38,39
 404 480 404 480 430.5 436 c 128,-1,40
 457 392 457 392 457 324 c 0,41,42
 457 163 457 163 325 75 c 0,43,44
 323 73 323 73 304 61 c 128,-1,45
 285 49 285 49 280.5 45.5 c 128,-1,46
 276 42 276 42 259 30 c 128,-1,47
 242 18 242 18 236.5 12 c 128,-1,48
 231 6 231 6 218 -6.5 c 128,-1,49
 205 -19 205 -19 200 -28 c 128,-1,50
 195 -37 195 -37 188 -50 c 0,51,52
 176 -72 176 -72 176 -112.5 c 128,-1,53
 176 -153 176 -153 201 -183.5 c 128,-1,54
 226 -214 226 -214 257 -214 c 0,55,56
 267 -214 267 -214 267 -206 c 128,-1,57
 267 -198 267 -198 258 -196 c 0,58,59
 232 -190 232 -190 232 -156 c 0,60,61
 232 -135 232 -135 247.5 -121.5 c 128,-1,62
 263 -108 263 -108 285.5 -108 c 128,-1,63
 308 -108 308 -108 323.5 -124.5 c 128,-1,64
 339 -141 339 -141 339 -167 c 128,-1,65
 339 -193 339 -193 318 -213 c 128,-1,66
 297 -233 297 -233 268 -233 c 0,0,1
EndSplineSet
EndChar

StartChar: z
Encoding: 122 122 93
Width: 460
GlyphClass: 2
Flags: W
LayerCount: 2
Fore
SplineSet
84 457 m 128,-1,1
 116 480 116 480 159.5 480 c 128,-1,2
 203 480 203 480 262.5 469.5 c 128,-1,3
 322 459 322 459 356 459 c 128,-1,4
 390 459 390 459 418 466 c 1,5,-1
 422 459 l 1,6,-1
 145 15 l 1,7,-1
 146 15 l 1,8,9
 270 -4 270 -4 312.5 -4 c 128,-1,10
 355 -4 355 -4 388 14.5 c 128,-1,11
 421 33 421 33 421 73 c 0,12,13
 421 82 421 82 412.5 82 c 128,-1,14
 404 82 404 82 403 73 c 1,15,16
 397 47 397 47 363 47 c 0,17,18
 341 47 341 47 328 62.5 c 128,-1,19
 315 78 315 78 315 100.5 c 128,-1,20
 315 123 315 123 331.5 138.5 c 128,-1,21
 348 154 348 154 374.5 154 c 128,-1,22
 401 154 401 154 420.5 133.5 c 128,-1,23
 440 113 440 113 440 83 c 0,24,25
 440 30 440 30 402.5 5 c 128,-1,26
 365 -20 365 -20 317 -20 c 128,-1,27
 269 -20 269 -20 202 -9.5 c 128,-1,28
 135 1 135 1 101 1 c 128,-1,29
 67 1 67 1 39 -6 c 1,30,-1
 35 1 l 1,31,-1
 311 445 l 1,32,33
 188 464 188 464 157 464 c 128,-1,34
 126 464 126 464 98.5 447.5 c 128,-1,35
 71 431 71 431 71 397 c 0,36,37
 71 388 71 388 79.5 388 c 128,-1,38
 88 388 88 388 89 397 c 1,39,40
 95 423 95 423 129 423 c 0,41,42
 151 423 151 423 164 407.5 c 128,-1,43
 177 392 177 392 177 369.5 c 128,-1,44
 177 347 177 347 160.5 331.5 c 128,-1,45
 144 316 144 316 117.5 316 c 128,-1,46
 91 316 91 316 71.5 336.5 c 128,-1,47
 52 357 52 357 52 387 c 0,48,0
 52 434 52 434 84 457 c 128,-1,1
EndSplineSet
EndChar

StartChar: braceleft
Encoding: 123 123 94
Width: 224
GlyphClass: 2
Flags: W
LayerCount: 2
Fore
SplineSet
130 204 m 128,-1,1
 143 181 143 181 143 149 c 128,-1,2
 143 117 143 117 120 52.5 c 128,-1,3
 97 -12 97 -12 97 -62 c 0,4,5
 97 -175 97 -175 174 -194 c 0,6,7
 194 -199 194 -199 224 -199 c 1,8,-1
 224 -215 l 1,9,10
 124 -215 124 -215 62 -167 c 128,-1,11
 0 -119 0 -119 0 -25 c 0,12,13
 0 44 0 44 40 85 c 0,14,15
 56 102 56 102 72 116 c 0,16,17
 112 151 112 151 112 180 c 0,18,19
 112 230 112 230 37 230 c 1,20,-1
 37 245 l 1,21,22
 112 245 112 245 112 295 c 0,23,24
 112 330 112 330 56 374 c 0,25,26
 35 390 35 390 17.5 423.5 c 128,-1,27
 0 457 0 457 0 501 c 0,28,29
 0 595 0 595 62 642.5 c 128,-1,30
 124 690 124 690 224 690 c 1,31,-1
 224 674 l 1,32,33
 194 674 194 674 174 669 c 0,34,35
 97 651 97 651 97 543 c 0,36,37
 97 488 97 488 120 423 c 128,-1,38
 143 358 143 358 143 326 c 128,-1,39
 143 294 143 294 130 271 c 128,-1,40
 117 248 117 248 82 238 c 1,41,-1
 82 237 l 1,42,0
 117 227 117 227 130 204 c 128,-1,1
EndSplineSet
EndChar

StartChar: bar
Encoding: 124 124 95
Width: 362
GlyphClass: 2
Flags: W
LayerCount: 2
Fore
SplineSet
192 719 m 1,0,-1
 192 -205 l 1,1,-1
 170 -205 l 1,2,-1
 170 719 l 1,3,-1
 192 719 l 1,0,-1
EndSplineSet
EndChar

StartChar: braceright
Encoding: 125 125 96
Width: 224
GlyphClass: 2
Flags: W
LayerCount: 2
Fore
SplineSet
94 271 m 128,-1,1
 81 294 81 294 81 326 c 128,-1,2
 81 358 81 358 104 422.5 c 128,-1,3
 127 487 127 487 127 538 c 0,4,5
 127 650 127 650 50 669 c 0,6,7
 30 674 30 674 0 674 c 1,8,-1
 0 690 l 1,9,10
 100 690 100 690 162 642 c 128,-1,11
 224 594 224 594 224 500 c 0,12,13
 224 431 224 431 184 390 c 0,14,15
 168 373 168 373 152 358 c 1,16,17
 112 324 112 324 112 295 c 0,18,19
 112 245 112 245 187 245 c 1,20,-1
 187 230 l 1,21,22
 112 230 112 230 112 180 c 0,23,24
 112 146 112 146 168 102 c 0,25,26
 189 85 189 85 206.5 51.5 c 128,-1,27
 224 18 224 18 224 -26 c 0,28,29
 224 -120 224 -120 162 -167.5 c 128,-1,30
 100 -215 100 -215 0 -215 c 1,31,-1
 0 -199 l 1,32,33
 30 -199 30 -199 50 -194 c 0,34,35
 127 -176 127 -176 127 -68 c 0,36,37
 127 -13 127 -13 104 52 c 128,-1,38
 81 117 81 117 81 149 c 128,-1,39
 81 181 81 181 94 204 c 128,-1,40
 107 227 107 227 142 237 c 1,41,-1
 142 238 l 1,42,0
 107 248 107 248 94 271 c 128,-1,1
EndSplineSet
EndChar

StartChar: asciitilde
Encoding: 126 126 97
Width: 586
GlyphClass: 2
Flags: W
LayerCount: 2
Fore
SplineSet
466 239.5 m 128,-1,1
 441 230 441 230 404 230 c 128,-1,2
 367 230 367 230 293.5 252 c 128,-1,3
 220 274 220 274 189 274 c 0,4,5
 127 274 127 274 60 227 c 1,6,-1
 52 243 l 1,7,8
 127 292 127 292 191 292 c 0,9,10
 229 292 229 292 298.5 270 c 128,-1,11
 368 248 368 248 406 248 c 0,12,13
 468 248 468 248 520 290 c 1,14,-1
 532 276 l 1,15,0
 491 249 491 249 466 239.5 c 128,-1,1
EndSplineSet
EndChar

StartChar: exclamdown
Encoding: 161 161 100
Width: 281
GlyphClass: 2
Flags: W
LayerCount: 2
Fore
SplineSet
82 422 m 128,-1,1
 82 447 82 447 98.5 463.5 c 128,-1,2
 115 480 115 480 140 480 c 128,-1,3
 165 480 165 480 182 463.5 c 128,-1,4
 199 447 199 447 199 422 c 128,-1,5
 199 397 199 397 182 380 c 128,-1,6
 165 363 165 363 140 363 c 128,-1,7
 115 363 115 363 98.5 380 c 128,-1,0
 82 397 82 397 82 422 c 128,-1,1
133 270 m 1,8,-1
 149 270 l 1,9,10
 149 100 149 100 186 -65 c 0,11,12
 199 -120 199 -120 199 -143 c 128,-1,13
 199 -166 199 -166 184 -183 c 128,-1,14
 169 -200 169 -200 141 -200 c 128,-1,15
 113 -200 113 -200 98 -183 c 128,-1,16
 83 -166 83 -166 83 -143 c 128,-1,17
 83 -120 83 -120 96 -65 c 0,18,19
 133 100 133 100 133 270 c 1,8,-1
EndSplineSet
EndChar

StartChar: cent
Encoding: 162 162 101
Width: 481
GlyphClass: 2
Flags: W
LayerCount: 2
Fore
SplineSet
289 -62 m 1,0,-1
 269 -62 l 1,1,-1
 269 23 l 1,2,-1
 267 23 l 2,3,4
 168 23 168 23 112 87 c 128,-1,5
 56 151 56 151 56 253.5 c 128,-1,6
 56 356 56 356 111.5 417.5 c 128,-1,7
 167 479 167 479 269 480 c 1,8,-1
 269 570 l 1,9,-1
 289 570 l 1,10,-1
 289 479 l 1,11,12
 351 476 351 476 389.5 446 c 128,-1,13
 428 416 428 416 428 359 c 0,14,15
 428 329 428 329 408.5 308.5 c 128,-1,16
 389 288 389 288 362.5 288 c 128,-1,17
 336 288 336 288 319.5 303.5 c 128,-1,18
 303 319 303 319 303 341.5 c 128,-1,19
 303 364 303 364 316 379.5 c 128,-1,20
 329 395 329 395 351 395 c 0,21,22
 385 395 385 395 391 369 c 1,23,24
 392 360 392 360 400.5 360 c 128,-1,25
 409 360 409 360 409 369 c 0,26,27
 409 403 409 403 378.5 431.5 c 128,-1,28
 348 460 348 460 293.5 460 c 128,-1,29
 239 460 239 460 207.5 430 c 128,-1,30
 176 400 176 400 164.5 357.5 c 128,-1,31
 153 315 153 315 153 258 c 0,32,33
 153 167 153 167 185 109 c 128,-1,34
 217 51 217 51 291 51 c 0,35,36
 343 51 343 51 376.5 89 c 128,-1,37
 410 127 410 127 423 187 c 1,38,-1
 441 185 l 1,39,40
 427 117 427 117 388 74 c 128,-1,41
 349 31 349 31 289 24 c 1,42,-1
 289 -62 l 1,0,-1
EndSplineSet
EndChar

StartChar: sterling
Encoding: 163 163 102
Width: 479
GlyphClass: 2
Flags: W
LayerCount: 2
Fore
SplineSet
254 122 m 1,0,-1
 253 107 l 1,1,2
 300 87 300 87 332 87 c 0,3,4
 413 87 413 87 420 162 c 1,5,-1
 438 162 l 1,6,7
 438 153 438 153 438 133.5 c 128,-1,8
 438 114 438 114 432 82 c 128,-1,9
 426 50 426 50 400 20 c 128,-1,10
 374 -10 374 -10 332 -10 c 0,11,12
 271 -10 271 -10 220 43 c 1,13,14
 178 1 178 1 115 1 c 0,15,16
 79 1 79 1 49.5 20.5 c 128,-1,17
 20 40 20 40 20 73 c 128,-1,18
 20 106 20 106 48 127.5 c 128,-1,19
 76 149 76 149 118 149 c 128,-1,20
 160 149 160 149 205 128 c 1,21,22
 198 155 198 155 182 172 c 0,23,24
 149 210 149 210 122 232 c 1,25,-1
 48 232 l 1,26,-1
 48 253 l 1,27,-1
 102 253 l 1,28,29
 56 304 56 304 56 370 c 128,-1,30
 56 436 56 436 113.5 473 c 128,-1,31
 171 510 171 510 247 510 c 128,-1,32
 323 510 323 510 366.5 478.5 c 128,-1,33
 410 447 410 447 410 389 c 0,34,35
 410 359 410 359 392 339.5 c 128,-1,36
 374 320 374 320 346.5 320 c 128,-1,37
 319 320 319 320 301.5 335.5 c 128,-1,38
 284 351 284 351 284 374.5 c 128,-1,39
 284 398 284 398 297.5 412.5 c 128,-1,40
 311 427 311 427 333 427 c 0,41,42
 367 427 367 427 373 399 c 0,43,44
 374 390 374 390 382.5 390 c 128,-1,45
 391 390 391 390 391 399 c 0,46,47
 391 433 391 433 360.5 461.5 c 128,-1,48
 330 490 330 490 275 490 c 128,-1,49
 220 490 220 490 191.5 457.5 c 128,-1,50
 163 425 163 425 163 367.5 c 128,-1,51
 163 310 163 310 200 253 c 1,52,-1
 344 253 l 1,53,-1
 344 232 l 1,54,-1
 214 232 l 1,55,56
 254 171 254 171 254 122 c 1,0,-1
114 19 m 0,57,58
 176 19 176 19 199 65 c 1,59,60
 153 113 153 113 104 113 c 0,61,62
 76 113 76 113 61 98.5 c 128,-1,63
 46 84 46 84 46 65 c 128,-1,64
 46 46 46 46 64 32.5 c 128,-1,65
 82 19 82 19 114 19 c 0,57,58
EndSplineSet
EndChar

StartChar: currency
Encoding: 164 164 103
Width: 542
GlyphClass: 2
Flags: W
LayerCount: 2
Fore
SplineSet
431 381 m 1,0,1
 489 323 489 323 489 230.5 c 128,-1,2
 489 138 489 138 431 78 c 1,3,-1
 513 -4 l 1,4,-1
 498 -20 l 1,5,-1
 415 64 l 1,6,7
 355 16 355 16 270.5 16 c 128,-1,8
 186 16 186 16 127 64 c 1,9,-1
 44 -20 l 1,10,-1
 29 -4 l 1,11,-1
 111 78 l 1,12,13
 53 138 53 138 53 230.5 c 128,-1,14
 53 323 53 323 111 381 c 1,15,-1
 29 464 l 1,16,-1
 44 480 l 1,17,-1
 127 396 l 1,18,19
 186 444 186 444 270.5 444 c 128,-1,20
 355 444 355 444 415 396 c 1,21,-1
 498 480 l 1,22,-1
 513 464 l 1,23,-1
 431 381 l 1,0,1
394 230 m 128,-1,25
 394 427 394 427 271 427 c 128,-1,26
 148 427 148 427 148 230 c 128,-1,27
 148 33 148 33 271 33 c 128,-1,24
 394 33 394 33 394 230 c 128,-1,25
EndSplineSet
EndChar

StartChar: yen
Encoding: 165 165 104
Width: 479
GlyphClass: 2
Flags: W
LayerCount: 2
Fore
SplineSet
479 480 m 1,0,-1
 479 464 l 1,1,2
 443 464 443 464 432.5 459 c 128,-1,3
 422 454 422 454 417.5 452.5 c 128,-1,4
 413 451 413 451 406 441 c 128,-1,5
 399 431 399 431 397 427 c 128,-1,6
 395 423 395 423 387 406.5 c 128,-1,7
 379 390 379 390 375 382 c 2,8,-1
 284 202 l 1,9,-1
 398 202 l 1,10,-1
 398 186 l 1,11,-1
 282 186 l 1,12,-1
 282 142 l 1,13,-1
 398 142 l 1,14,-1
 398 126 l 1,15,-1
 282 126 l 1,16,-1
 282 15 l 1,17,-1
 335 15 l 1,18,-1
 335 0 l 1,19,-1
 140 0 l 1,20,-1
 140 15 l 1,21,-1
 193 15 l 1,22,-1
 193 126 l 1,23,-1
 75 126 l 1,24,-1
 75 142 l 1,25,-1
 193 142 l 1,26,-1
 193 186 l 1,27,-1
 75 186 l 1,28,-1
 75 202 l 1,29,-1
 184 202 l 1,30,-1
 43 464 l 1,31,-1
 0 464 l 1,32,-1
 0 480 l 1,33,-1
 206 480 l 1,34,-1
 206 464 l 1,35,-1
 143 464 l 1,36,-1
 272 219 l 1,37,-1
 327 325 l 2,38,39
 329 329 329 329 339 348.5 c 128,-1,40
 349 368 349 368 355 380 c 0,41,42
 373 416 373 416 373 432.5 c 128,-1,43
 373 449 373 449 359 456.5 c 128,-1,44
 345 464 345 464 307 464 c 2,45,-1
 279 464 l 1,46,-1
 279 480 l 1,47,-1
 479 480 l 1,0,-1
EndSplineSet
EndChar

StartChar: brokenbar
Encoding: 166 166 105
Width: 221
GlyphClass: 2
Flags: W
LayerCount: 2
Fore
SplineSet
122 -120 m 1,0,-1
 100 -120 l 1,1,-1
 100 232 l 1,2,-1
 122 232 l 1,3,-1
 122 -120 l 1,0,-1
122 367 m 1,4,-1
 100 367 l 1,5,-1
 100 719 l 1,6,-1
 122 719 l 1,7,-1
 122 367 l 1,4,-1
EndSplineSet
EndChar

StartChar: section
Encoding: 167 167 106
Width: 631
GlyphClass: 2
Flags: W
LayerCount: 2
Fore
SplineSet
71 268 m 0,0,1
 71 371 71 371 187 412 c 1,2,3
 121 464 121 464 121 543.5 c 128,-1,4
 121 623 121 623 171 666.5 c 128,-1,5
 221 710 221 710 300 710 c 128,-1,6
 379 710 379 710 432 681 c 128,-1,7
 485 652 485 652 485 595 c 0,8,9
 485 565 485 565 465.5 544.5 c 128,-1,10
 446 524 446 524 419.5 524 c 128,-1,11
 393 524 393 524 376.5 539.5 c 128,-1,12
 360 555 360 555 360 577.5 c 128,-1,13
 360 600 360 600 373 615.5 c 128,-1,14
 386 631 386 631 408 631 c 0,15,16
 442 631 442 631 448 605 c 0,17,18
 450 596 450 596 458 596 c 128,-1,19
 466 596 466 596 466 605 c 0,20,21
 466 634 466 634 426.5 662.5 c 128,-1,22
 387 691 387 691 324.5 691 c 128,-1,23
 262 691 262 691 229.5 662.5 c 128,-1,24
 197 634 197 634 197 586 c 128,-1,25
 197 538 197 538 233 504.5 c 128,-1,26
 269 471 269 471 320 449.5 c 128,-1,27
 371 428 371 428 422 404 c 128,-1,28
 473 380 473 380 509 336.5 c 128,-1,29
 545 293 545 293 545 229 c 0,30,31
 545 112 545 112 448 66 c 1,32,33
 495 14 495 14 495 -56 c 0,34,35
 495 -145 495 -145 435 -190 c 128,-1,36
 375 -235 375 -235 272 -235 c 0,37,38
 202 -235 202 -235 149.5 -202.5 c 128,-1,39
 97 -170 97 -170 97 -112 c 0,40,41
 97 -82 97 -82 116.5 -61.5 c 128,-1,42
 136 -41 136 -41 162.5 -41 c 128,-1,43
 189 -41 189 -41 205.5 -56.5 c 128,-1,44
 222 -72 222 -72 222 -94.5 c 128,-1,45
 222 -117 222 -117 209 -132.5 c 128,-1,46
 196 -148 196 -148 174 -148 c 0,47,48
 140 -148 140 -148 134 -122 c 0,49,50
 132 -113 132 -113 124 -113 c 128,-1,51
 116 -113 116 -113 116 -122 c 0,52,53
 118 -155 118 -155 154 -185 c 128,-1,54
 190 -215 190 -215 259.5 -215 c 128,-1,55
 329 -215 329 -215 374 -184 c 128,-1,56
 419 -153 419 -153 419 -100.5 c 128,-1,57
 419 -48 419 -48 383 -14 c 128,-1,58
 347 20 347 20 296 42.5 c 128,-1,59
 245 65 245 65 194 90 c 128,-1,60
 143 115 143 115 107 159.5 c 128,-1,61
 71 204 71 204 71 268 c 0,0,1
147 304 m 0,62,63
 147 252 147 252 190.5 218.5 c 128,-1,64
 234 185 234 185 310 151.5 c 128,-1,65
 386 118 386 118 421 91 c 1,66,67
 469 125 469 125 469 185 c 0,68,69
 469 229 469 229 441 262 c 128,-1,70
 413 295 413 295 378.5 312 c 128,-1,71
 344 329 344 329 290 354 c 128,-1,72
 236 379 236 379 207 398 c 1,73,74
 147 373 147 373 147 304 c 0,62,63
EndSplineSet
EndChar

StartChar: dieresis
Encoding: 168 168 107
Width: 420
GlyphClass: 2
Flags: W
LayerCount: 2
Fore
SplineSet
239 611 m 128,-1,1
 239 636 239 636 257 653.5 c 128,-1,2
 275 671 275 671 300 671 c 128,-1,3
 325 671 325 671 342.5 653.5 c 128,-1,4
 360 636 360 636 360 611 c 128,-1,5
 360 586 360 586 342.5 568 c 128,-1,6
 325 550 325 550 300 550 c 128,-1,7
 275 550 275 550 257 568 c 128,-1,0
 239 586 239 586 239 611 c 128,-1,1
60 611 m 128,-1,9
 60 636 60 636 77.5 653.5 c 128,-1,10
 95 671 95 671 120 671 c 128,-1,11
 145 671 145 671 163 653.5 c 128,-1,12
 181 636 181 636 181 611 c 128,-1,13
 181 586 181 586 163 568 c 128,-1,14
 145 550 145 550 120 550 c 128,-1,15
 95 550 95 550 77.5 568 c 128,-1,8
 60 586 60 586 60 611 c 128,-1,9
EndSplineSet
EndChar

StartChar: copyright
Encoding: 169 169 108
Width: 699
GlyphClass: 2
Flags: W
LayerCount: 2
Fore
SplineSet
365 -83 m 0,0,1
 234 -83 234 -83 142 9.5 c 128,-1,2
 50 102 50 102 50 232.5 c 128,-1,3
 50 363 50 363 142 455.5 c 128,-1,4
 234 548 234 548 362 548 c 128,-1,5
 490 548 490 548 569.5 468 c 128,-1,6
 649 388 649 388 649 271 c 0,7,8
 649 177 649 177 582 103.5 c 128,-1,9
 515 30 515 30 401.5 30 c 128,-1,10
 288 30 288 30 231.5 85 c 128,-1,11
 175 140 175 140 175 234.5 c 128,-1,12
 175 329 175 329 230 384.5 c 128,-1,13
 285 440 285 440 381 440 c 0,14,15
 447 440 447 440 491.5 408 c 128,-1,16
 536 376 536 376 536 319 c 0,17,18
 536 289 536 289 516.5 268.5 c 128,-1,19
 497 248 497 248 470.5 248 c 128,-1,20
 444 248 444 248 427.5 263.5 c 128,-1,21
 411 279 411 279 411 301.5 c 128,-1,22
 411 324 411 324 424 339.5 c 128,-1,23
 437 355 437 355 459 355 c 0,24,25
 493 355 493 355 499 329 c 1,26,27
 500 320 500 320 508.5 320 c 128,-1,28
 517 320 517 320 517 329 c 0,29,30
 517 361 517 361 484 390.5 c 128,-1,31
 451 420 451 420 391 420 c 128,-1,32
 331 420 331 420 301 371 c 128,-1,33
 271 322 271 322 271 241 c 128,-1,34
 271 160 271 160 308 109 c 128,-1,35
 345 58 345 58 423.5 58 c 128,-1,36
 502 58 502 58 563.5 119 c 128,-1,37
 625 180 625 180 625 280.5 c 128,-1,38
 625 381 625 381 551.5 452 c 128,-1,39
 478 523 478 523 361.5 523 c 128,-1,40
 245 523 245 523 159.5 438 c 128,-1,41
 74 353 74 353 74 232.5 c 128,-1,42
 74 112 74 112 159.5 26.5 c 128,-1,43
 245 -59 245 -59 365 -59 c 0,44,45
 430 -59 430 -59 491 -30 c 1,46,-1
 503 -52 l 1,47,48
 438 -83 438 -83 365 -83 c 0,0,1
EndSplineSet
EndChar

StartChar: ordfeminine
Encoding: 170 170 109
Width: 340
GlyphClass: 2
Flags: W
LayerCount: 2
Fore
SplineSet
37 219 m 1,0,-1
 37 240 l 1,1,-1
 270 240 l 1,2,-1
 270 219 l 1,3,-1
 37 219 l 1,0,-1
138 597 m 0,4,5
 208 597 208 597 235 570 c 128,-1,6
 262 543 262 543 262 468 c 2,7,-1
 262 356 l 2,8,9
 262 332 262 332 272 332 c 0,10,11
 280 332 280 332 287 351 c 128,-1,12
 294 370 294 370 296 394 c 1,13,-1
 310 393 l 1,14,15
 302 300 302 300 253 300 c 0,16,17
 209 300 209 300 207 378 c 1,18,-1
 203 378 l 1,19,20
 195 338 195 338 175 319 c 128,-1,21
 155 300 155 300 115 300 c 0,22,23
 30 300 30 300 30 377 c 0,24,25
 30 466 30 466 177 466 c 0,26,27
 183 466 183 466 190 466 c 1,28,-1
 190 489 l 2,29,30
 190 539 190 539 178 561 c 128,-1,31
 166 583 166 583 127.5 583 c 128,-1,32
 89 583 89 583 72 567 c 128,-1,33
 55 551 55 551 55 538 c 128,-1,34
 55 525 55 525 61 525 c 128,-1,35
 67 525 67 525 67 533 c 0,36,37
 70 560 70 560 97 560 c 0,38,39
 112 560 112 560 120.5 550 c 128,-1,40
 129 540 129 540 129 523 c 128,-1,41
 129 506 129 506 116 495.5 c 128,-1,42
 103 485 103 485 85.5 485 c 128,-1,43
 68 485 68 485 55 497 c 128,-1,44
 42 509 42 509 42 528 c 0,45,46
 42 562 42 562 70 579.5 c 128,-1,47
 98 597 98 597 138 597 c 0,4,5
190 412 m 2,48,-1
 190 453 l 1,49,50
 188 453 188 453 186 453 c 0,51,52
 146 453 146 453 126.5 432 c 128,-1,53
 107 411 107 411 107 380 c 0,54,55
 107 321 107 321 140 321 c 0,56,57
 190 321 190 321 190 412 c 2,48,-1
EndSplineSet
EndChar

StartChar: guillemotleft
Encoding: 171 171 110
Width: 313
GlyphClass: 2
Flags: W
LayerCount: 2
Fore
SplineSet
5 237 m 1,0,-1
 134 409 l 1,1,-1
 151 396 l 1,2,-1
 32 237 l 1,3,-1
 151 78 l 1,4,-1
 134 65 l 1,5,-1
 5 237 l 1,0,-1
117 237 m 1,6,-1
 246 409 l 1,7,-1
 263 396 l 1,8,-1
 144 237 l 1,9,-1
 263 78 l 1,10,-1
 246 65 l 1,11,-1
 117 237 l 1,6,-1
EndSplineSet
EndChar

StartChar: logicalnot
Encoding: 172 172 111
Width: 513
GlyphClass: 2
Flags: W
LayerCount: 2
Fore
SplineSet
34 242 m 1,0,-1
 34 263 l 1,1,-1
 478 263 l 1,2,-1
 478 96 l 1,3,-1
 456 96 l 1,4,-1
 456 242 l 1,5,-1
 34 242 l 1,0,-1
EndSplineSet
EndChar

StartChar: registered
Encoding: 174 174 112
Width: 710
GlyphClass: 2
Flags: W
LayerCount: 2
Fore
SplineSet
530 65 m 0,0,1
 567 65 567 65 602 114.5 c 128,-1,2
 637 164 637 164 637 248 c 0,3,4
 637 369 637 369 554.5 446.5 c 128,-1,5
 472 524 472 524 354 524 c 128,-1,6
 236 524 236 524 154.5 440.5 c 128,-1,7
 73 357 73 357 73 238 c 128,-1,8
 73 119 73 119 148.5 41 c 128,-1,9
 224 -37 224 -37 343 -37 c 0,10,11
 416 -37 416 -37 478 -3 c 1,12,-1
 489 -23 l 1,13,14
 423 -60 423 -60 343 -60 c 0,15,16
 215 -60 215 -60 132.5 24 c 128,-1,17
 50 108 50 108 50 238 c 128,-1,18
 50 368 50 368 138 457.5 c 128,-1,19
 226 547 226 547 354.5 547 c 128,-1,20
 483 547 483 547 571.5 463.5 c 128,-1,21
 660 380 660 380 660 248 c 0,22,23
 660 152 660 152 615 93 c 128,-1,24
 570 34 570 34 498 34 c 0,25,26
 464 34 464 34 445.5 56.5 c 128,-1,27
 427 79 427 79 427 119 c 2,28,-1
 427 150 l 2,29,30
 427 202 427 202 407.5 221.5 c 128,-1,31
 388 241 388 241 343 241 c 2,32,-1
 318 241 l 1,33,-1
 318 58 l 1,34,-1
 371 58 l 1,35,-1
 371 40 l 1,36,-1
 187 40 l 1,37,-1
 187 58 l 1,38,-1
 232 58 l 1,39,-1
 232 427 l 1,40,-1
 187 427 l 1,41,-1
 187 445 l 1,42,-1
 384 445 l 2,43,44
 518 445 518 445 518 356 c 0,45,46
 518 314 518 314 493 286.5 c 128,-1,47
 468 259 468 259 420 253 c 1,48,-1
 420 249 l 1,49,50
 471 249 471 249 493.5 220 c 128,-1,51
 516 191 516 191 516 129 c 2,52,-1
 516 92 l 2,53,54
 516 65 516 65 530 65 c 0,0,1
407 278.5 m 128,-1,56
 429 298 429 298 429 345 c 128,-1,57
 429 392 429 392 414 409.5 c 128,-1,58
 399 427 399 427 352 427 c 2,59,-1
 318 427 l 1,60,-1
 318 259 l 1,61,-1
 337 259 l 2,62,55
 385 259 385 259 407 278.5 c 128,-1,56
EndSplineSet
EndChar

StartChar: macron
Encoding: 175 175 113
Width: 283
GlyphClass: 2
Flags: W
LayerCount: 2
Fore
SplineSet
2 570 m 1,0,-1
 2 589 l 1,1,-1
 281 589 l 1,2,-1
 281 570 l 1,3,-1
 2 570 l 1,0,-1
EndSplineSet
EndChar

StartChar: degree
Encoding: 176 176 114
Width: 280
GlyphClass: 2
Flags: W
LayerCount: 2
Fore
SplineSet
24 552 m 128,-1,1
 24 600 24 600 58 634 c 128,-1,2
 92 668 92 668 140 668 c 128,-1,3
 188 668 188 668 222 634 c 128,-1,4
 256 600 256 600 256 552 c 128,-1,5
 256 504 256 504 222 470 c 128,-1,6
 188 436 188 436 140 436 c 128,-1,7
 92 436 92 436 58 470 c 128,-1,0
 24 504 24 504 24 552 c 128,-1,1
55 552 m 128,-1,9
 55 517 55 517 80 492 c 128,-1,10
 105 467 105 467 140 467 c 128,-1,11
 175 467 175 467 200 492 c 128,-1,12
 225 517 225 517 225 552 c 128,-1,13
 225 587 225 587 200 612 c 128,-1,14
 175 637 175 637 140 637 c 128,-1,15
 105 637 105 637 80 612 c 128,-1,8
 55 587 55 587 55 552 c 128,-1,9
EndSplineSet
EndChar

StartChar: plusminus
Encoding: 177 177 115
Width: 615
GlyphClass: 2
Flags: W
LayerCount: 2
Fore
SplineSet
83 276 m 1,0,-1
 83 297 l 1,1,-1
 310 297 l 1,2,-1
 310 474 l 1,3,-1
 330 474 l 1,4,-1
 330 297 l 1,5,-1
 557 297 l 1,6,-1
 557 276 l 1,7,-1
 330 276 l 1,8,-1
 330 100 l 1,9,-1
 310 100 l 1,10,-1
 310 276 l 1,11,-1
 83 276 l 1,0,-1
557 51 m 1,12,-1
 557 30 l 1,13,-1
 83 30 l 1,14,-1
 83 51 l 1,15,-1
 557 51 l 1,12,-1
EndSplineSet
EndChar

StartChar: twosuperior
Encoding: 178 178 116
Width: 330
GlyphClass: 2
Flags: W
LayerCount: 2
Fore
SplineSet
71.5 632 m 128,-1,1
 103 656 103 656 159 656 c 128,-1,2
 215 656 215 656 256.5 632 c 128,-1,3
 298 608 298 608 298 562 c 128,-1,4
 298 516 298 516 272 486.5 c 128,-1,5
 246 457 246 457 209.5 440.5 c 128,-1,6
 173 424 173 424 136.5 409.5 c 128,-1,7
 100 395 100 395 74 373 c 128,-1,8
 48 351 48 351 48 321 c 1,9,-1
 55 319 l 1,10,11
 64 333 64 333 70.5 339.5 c 128,-1,12
 77 346 77 346 98.5 353.5 c 128,-1,13
 120 361 120 361 152 361 c 2,14,-1
 266 361 l 2,15,16
 296 361 296 361 297 396 c 1,17,-1
 310 396 l 1,18,-1
 310 291 l 1,19,-1
 30 291 l 1,20,-1
 30 321 l 2,21,22
 30 374 30 374 98 416 c 0,23,24
 127 434 127 434 156 452 c 0,25,26
 224 495 224 495 224 552 c 0,27,28
 224 592 224 592 203 615 c 128,-1,29
 182 638 182 638 141 638 c 128,-1,30
 100 638 100 638 79 618 c 128,-1,31
 58 598 58 598 58 573 c 0,32,33
 58 563 58 563 66 563 c 128,-1,34
 74 563 74 563 76 572 c 0,35,36
 80 597 80 597 108 597 c 0,37,38
 126 597 126 597 135.5 585 c 128,-1,39
 145 573 145 573 145 554.5 c 128,-1,40
 145 536 145 536 131 523 c 128,-1,41
 117 510 117 510 93.5 510 c 128,-1,42
 70 510 70 510 55 526 c 128,-1,43
 40 542 40 542 40 565 c 0,44,0
 40 608 40 608 71.5 632 c 128,-1,1
48 227 m 1,45,-1
 48 248 l 1,46,-1
 281 248 l 1,47,-1
 281 227 l 1,48,-1
 48 227 l 1,45,-1
EndSplineSet
EndChar

StartChar: threesuperior
Encoding: 179 179 117
Width: 309
GlyphClass: 2
Flags: W
LayerCount: 2
Fore
SplineSet
181 623 m 128,-1,1
 161 639 161 639 131 639 c 128,-1,2
 101 639 101 639 78 623 c 128,-1,3
 55 607 55 607 55 587 c 0,4,5
 55 578 55 578 63 578 c 0,6,7
 67 578 67 578 73 592.5 c 128,-1,8
 79 607 79 607 99.5 607 c 128,-1,9
 120 607 120 607 129.5 595.5 c 128,-1,10
 139 584 139 584 139 566 c 128,-1,11
 139 548 139 548 125.5 535 c 128,-1,12
 112 522 112 522 88.5 522 c 128,-1,13
 65 522 65 522 51.5 537.5 c 128,-1,14
 38 553 38 553 38 575 c 0,15,16
 38 614 38 614 70.5 635 c 128,-1,17
 103 656 103 656 154 656 c 0,18,19
 275 656 275 656 275 578 c 0,20,21
 275 544 275 544 247 525 c 128,-1,22
 219 506 219 506 166 492 c 1,23,-1
 167 487 l 1,24,25
 172 487 172 487 176 487 c 0,26,27
 227 487 227 487 258 465 c 128,-1,28
 289 443 289 443 289 394.5 c 128,-1,29
 289 346 289 346 245.5 314.5 c 128,-1,30
 202 283 202 283 154 283 c 128,-1,31
 106 283 106 283 71 303.5 c 128,-1,32
 36 324 36 324 36 365 c 0,33,34
 36 392 36 392 53.5 408.5 c 128,-1,35
 71 425 71 425 94.5 425 c 128,-1,36
 118 425 118 425 130.5 411 c 128,-1,37
 143 397 143 397 143 379 c 128,-1,38
 143 361 143 361 133 348.5 c 128,-1,39
 123 336 123 336 99.5 336 c 128,-1,40
 76 336 76 336 71 361 c 0,41,42
 70 370 70 370 61.5 370 c 128,-1,43
 53 370 53 370 53 361 c 0,44,45
 53 339 53 339 76.5 320.5 c 128,-1,46
 100 302 100 302 136 302 c 0,47,48
 215 302 215 302 215 387.5 c 128,-1,49
 215 473 215 473 141 473 c 0,50,51
 121 473 121 473 87 459 c 1,52,-1
 81 475 l 1,53,54
 86 477 86 477 102 483 c 128,-1,55
 118 489 118 489 125.5 492.5 c 128,-1,56
 133 496 133 496 147 503 c 128,-1,57
 161 510 161 510 168.5 516.5 c 128,-1,58
 176 523 176 523 184 532 c 0,59,60
 201 549 201 549 201 578 c 128,-1,0
 201 607 201 607 181 623 c 128,-1,1
51 227 m 1,61,-1
 51 248 l 1,62,-1
 284 248 l 1,63,-1
 284 227 l 1,64,-1
 51 227 l 1,61,-1
EndSplineSet
EndChar

StartChar: acute
Encoding: 180 180 118
Width: 328
GlyphClass: 2
Flags: W
LayerCount: 2
Fore
SplineSet
187 653 m 2,0,1
 210 680 210 680 229 680 c 128,-1,2
 248 680 248 680 257.5 671 c 128,-1,3
 267 662 267 662 267 647 c 0,4,5
 267 618 267 618 233 603 c 2,6,-1
 53 519 l 1,7,-1
 46 534 l 1,8,9
 93 559 93 559 112.5 576 c 128,-1,10
 132 593 132 593 137.5 597.5 c 128,-1,11
 143 602 143 602 153 613.5 c 128,-1,12
 163 625 163 625 165 627 c 128,-1,13
 167 629 167 629 177 641 c 2,14,-1
 187 653 l 2,0,1
EndSplineSet
EndChar

StartChar: mu
Encoding: 181 181 119
Width: 599
GlyphClass: 2
Flags: W
LayerCount: 2
Fore
SplineSet
406 445 m 1,0,-1
 335 445 l 1,1,-1
 335 460 l 1,2,-1
 356 460 l 2,3,4
 434 460 434 460 495 473 c 1,5,-1
 495 15 l 1,6,-1
 561 15 l 1,7,-1
 561 0 l 1,8,-1
 404 0 l 1,9,-1
 404 87 l 1,10,-1
 398 87 l 1,11,12
 385 53 385 53 365 31.5 c 128,-1,13
 345 10 345 10 327 1.5 c 128,-1,14
 309 -7 309 -7 292 -14 c 0,15,16
 257 -27 257 -27 257 -61 c 0,17,18
 257 -76 257 -76 269 -88 c 128,-1,19
 281 -100 281 -100 293 -114 c 128,-1,20
 305 -128 305 -128 305 -151 c 128,-1,21
 305 -174 305 -174 288 -190.5 c 128,-1,22
 271 -207 271 -207 246 -207 c 128,-1,23
 221 -207 221 -207 204.5 -190.5 c 128,-1,24
 188 -174 188 -174 188 -151 c 128,-1,25
 188 -128 188 -128 200.5 -114 c 128,-1,26
 213 -100 213 -100 225.5 -88 c 128,-1,27
 238 -76 238 -76 238 -57 c 128,-1,28
 238 -38 238 -38 224.5 -27.5 c 128,-1,29
 211 -17 211 -17 191.5 -9 c 128,-1,30
 172 -1 172 -1 152.5 14 c 128,-1,31
 133 29 133 29 119.5 72 c 128,-1,32
 106 115 106 115 106 185 c 2,33,-1
 106 445 l 1,34,-1
 35 445 l 1,35,-1
 35 460 l 1,36,-1
 56 460 l 2,37,38
 134 460 134 460 195 473 c 1,39,-1
 195 199 l 2,40,41
 195 105 195 105 202 81 c 128,-1,42
 209 57 209 57 217 40 c 0,43,44
 233 8 233 8 271.5 8 c 128,-1,45
 310 8 310 8 338.5 31 c 128,-1,46
 367 54 367 54 381 94 c 0,47,48
 406 165 406 165 406 264 c 2,49,-1
 406 445 l 1,0,-1
EndSplineSet
EndChar

StartChar: paragraph
Encoding: 182 182 120
Width: 343
GlyphClass: 2
Flags: W
LayerCount: 2
Fore
SplineSet
167 -197 m 1,0,-1
 156 -196 l 2,1,2
 148 -196 148 -196 148 -204 c 0,3,4
 148 -218 148 -218 173 -218 c 128,-1,5
 198 -218 198 -218 213.5 -205.5 c 128,-1,6
 229 -193 229 -193 236 -170 c 0,7,8
 246 -133 246 -133 246 -81 c 2,9,-1
 246 644 l 1,10,-1
 209 648 l 1,11,-1
 209 -112 l 1,12,13
 192 -87 192 -87 162 -83 c 1,14,-1
 162 393 l 1,15,16
 154 392 154 392 140 392 c 0,17,18
 80 392 80 392 42 431 c 128,-1,19
 4 470 4 470 4 529 c 128,-1,20
 4 588 4 588 45.5 629 c 128,-1,21
 87 670 87 670 155 670 c 0,22,23
 177 670 177 670 209 664.5 c 128,-1,24
 241 659 241 659 273 659 c 2,25,-1
 302 659 l 1,26,-1
 302 643 l 1,27,-1
 266 643 l 1,28,-1
 266 -77 l 2,29,30
 266 -235 266 -235 171 -235 c 0,31,32
 141 -235 141 -235 119 -215.5 c 128,-1,33
 97 -196 97 -196 97 -168.5 c 128,-1,34
 97 -141 97 -141 112.5 -124.5 c 128,-1,35
 128 -108 128 -108 150.5 -108 c 128,-1,36
 173 -108 173 -108 187.5 -121 c 128,-1,37
 202 -134 202 -134 202 -154.5 c 128,-1,38
 202 -175 202 -175 192 -186 c 128,-1,39
 182 -197 182 -197 167 -197 c 1,0,-1
EndSplineSet
EndChar

StartChar: periodcentered
Encoding: 183 183 121
Width: 277
GlyphClass: 2
Flags: W
LayerCount: 2
Fore
SplineSet
80 261 m 128,-1,1
 80 286 80 286 96.5 303 c 128,-1,2
 113 320 113 320 138 320 c 128,-1,3
 163 320 163 320 180 303 c 128,-1,4
 197 286 197 286 197 261 c 128,-1,5
 197 236 197 236 180 219.5 c 128,-1,6
 163 203 163 203 138 203 c 128,-1,7
 113 203 113 203 96.5 219.5 c 128,-1,0
 80 236 80 236 80 261 c 128,-1,1
EndSplineSet
EndChar

StartChar: cedilla
Encoding: 184 184 122
Width: 375
GlyphClass: 2
Flags: W
LayerCount: 2
Fore
SplineSet
155 -73 m 1,0,1
 185 -51 185 -51 221.5 -51 c 128,-1,2
 258 -51 258 -51 287.5 -75 c 128,-1,3
 317 -99 317 -99 317 -143.5 c 128,-1,4
 317 -188 317 -188 292.5 -211.5 c 128,-1,5
 268 -235 268 -235 234 -235 c 128,-1,6
 200 -235 200 -235 179.5 -216 c 128,-1,7
 159 -197 159 -197 159 -171 c 128,-1,8
 159 -145 159 -145 174.5 -128.5 c 128,-1,9
 190 -112 190 -112 212.5 -112 c 128,-1,10
 235 -112 235 -112 250.5 -125.5 c 128,-1,11
 266 -139 266 -139 266 -160 c 0,12,13
 266 -193 266 -193 240 -199 c 1,14,15
 231 -200 231 -200 231 -208.5 c 128,-1,16
 231 -217 231 -217 241 -217 c 0,17,18
 264 -217 264 -217 281.5 -198 c 128,-1,19
 299 -179 299 -179 299 -145 c 128,-1,20
 299 -111 299 -111 275.5 -90 c 128,-1,21
 252 -69 252 -69 222 -69 c 0,22,23
 169 -69 169 -69 141 -112 c 1,24,-1
 127 -95 l 1,25,-1
 164 0 l 1,26,-1
 184 0 l 1,27,-1
 155 -73 l 1,0,1
EndSplineSet
EndChar

StartChar: onesuperior
Encoding: 185 185 123
Width: 262
GlyphClass: 2
Flags: W
LayerCount: 2
Fore
SplineSet
99 309 m 1,0,-1
 99 574 l 1,1,2
 73 556 73 556 34 546 c 1,3,-1
 30 563 l 1,4,5
 72 575 72 575 95.5 594.5 c 128,-1,6
 119 614 119 614 125 650 c 1,7,8
 147 651 147 651 166 663 c 1,9,-1
 166 309 l 1,10,-1
 232 309 l 1,11,-1
 232 291 l 1,12,-1
 39 291 l 1,13,-1
 39 309 l 1,14,-1
 99 309 l 1,0,-1
18 227 m 1,15,-1
 18 248 l 1,16,-1
 251 248 l 1,17,-1
 251 227 l 1,18,-1
 18 227 l 1,15,-1
EndSplineSet
EndChar

StartChar: ordmasculine
Encoding: 186 186 124
Width: 342
GlyphClass: 2
Flags: W
LayerCount: 2
Fore
SplineSet
52 227 m 1,0,-1
 52 248 l 1,1,-1
 285 248 l 1,2,-1
 285 227 l 1,3,-1
 52 227 l 1,0,-1
171 585 m 128,-1,5
 109 585 109 585 109 448.5 c 128,-1,6
 109 312 109 312 171 312 c 128,-1,7
 233 312 233 312 233 448.5 c 128,-1,4
 233 585 233 585 171 585 c 128,-1,5
171 300 m 128,-1,9
 106 300 106 300 68 338 c 128,-1,10
 30 376 30 376 30 448 c 128,-1,11
 30 520 30 520 68 558.5 c 128,-1,12
 106 597 106 597 171 597 c 128,-1,13
 236 597 236 597 274 558.5 c 128,-1,14
 312 520 312 520 312 448 c 128,-1,15
 312 376 312 376 274 338 c 128,-1,8
 236 300 236 300 171 300 c 128,-1,9
EndSplineSet
EndChar

StartChar: guillemotright
Encoding: 187 187 125
Width: 313
GlyphClass: 2
Flags: W
LayerCount: 2
Fore
SplineSet
169 237 m 1,0,-1
 50 396 l 1,1,-1
 67 409 l 1,2,-1
 196 237 l 1,3,-1
 67 65 l 1,4,-1
 50 78 l 1,5,-1
 169 237 l 1,0,-1
281 237 m 1,6,-1
 162 396 l 1,7,-1
 179 409 l 1,8,-1
 308 237 l 1,9,-1
 179 65 l 1,10,-1
 162 78 l 1,11,-1
 281 237 l 1,6,-1
EndSplineSet
EndChar

StartChar: onequarter
Encoding: 188 188 126
Width: 699
GlyphClass: 2
Flags: W
LayerCount: 2
Fore
SplineSet
177 10 m 1,0,-1
 537 656 l 1,1,-1
 561 656 l 1,2,-1
 202 10 l 1,3,-1
 177 10 l 1,0,-1
149 309 m 1,4,-1
 149 574 l 1,5,6
 123 556 123 556 84 546 c 1,7,-1
 80 563 l 1,8,9
 122 575 122 575 145.5 594.5 c 128,-1,10
 169 614 169 614 175 650 c 1,11,12
 197 651 197 651 216 663 c 1,13,-1
 216 309 l 1,14,-1
 282 309 l 1,15,-1
 282 291 l 1,16,-1
 89 291 l 1,17,-1
 89 309 l 1,18,-1
 149 309 l 1,4,-1
523 368 m 1,19,20
 548 368 548 368 572 382 c 1,21,-1
 572 139 l 1,22,-1
 619 139 l 1,23,-1
 619 115 l 1,24,-1
 572 115 l 1,25,-1
 572 20 l 1,26,-1
 505 20 l 1,27,-1
 505 115 l 1,28,-1
 375 115 l 1,29,-1
 375 134 l 1,30,31
 500 253 500 253 523 368 c 1,19,20
408 139 m 1,32,-1
 505 139 l 1,33,-1
 505 262 l 1,34,-1
 501 262 l 1,35,36
 473 207 473 207 408 142 c 1,37,-1
 408 139 l 1,32,-1
EndSplineSet
EndChar

StartChar: onehalf
Encoding: 189 189 127
Width: 781
GlyphClass: 2
Flags: W
LayerCount: 2
Fore
SplineSet
462 360.5 m 128,-1,1
 493 385 493 385 549 385 c 128,-1,2
 605 385 605 385 642 361 c 128,-1,3
 679 337 679 337 679 291.5 c 128,-1,4
 679 246 679 246 655.5 216.5 c 128,-1,5
 632 187 632 187 597.5 170 c 128,-1,6
 563 153 563 153 528 139 c 0,7,8
 444 105 444 105 441 60 c 1,9,-1
 448 58 l 1,10,11
 456 69 456 69 463 75 c 0,12,13
 480 90 480 90 543 90 c 2,14,-1
 647 90 l 2,15,16
 677 90 677 90 678 125 c 1,17,-1
 691 125 l 1,18,-1
 691 20 l 1,19,-1
 421 20 l 1,20,-1
 421 50 l 2,21,22
 421 103 421 103 486 146 c 0,23,24
 513 163 513 163 540 181 c 0,25,26
 605 224 605 224 605 281 c 0,27,28
 605 367 605 367 535 367 c 0,29,30
 491 367 491 367 470 347 c 128,-1,31
 449 327 449 327 449 302 c 0,32,33
 449 292 449 292 457 292 c 0,34,35
 463 292 463 292 465 301 c 0,36,37
 469 326 469 326 499 326 c 0,38,39
 517 326 517 326 526.5 314 c 128,-1,40
 536 302 536 302 536 283.5 c 128,-1,41
 536 265 536 265 522 252 c 128,-1,42
 508 239 508 239 484.5 239 c 128,-1,43
 461 239 461 239 446 255 c 128,-1,44
 431 271 431 271 431 294 c 0,45,0
 431 336 431 336 462 360.5 c 128,-1,1
177 10 m 1,46,-1
 537 656 l 1,47,-1
 561 656 l 1,48,-1
 202 10 l 1,49,-1
 177 10 l 1,46,-1
149 309 m 1,50,-1
 149 574 l 1,51,52
 123 556 123 556 84 546 c 1,53,-1
 80 563 l 1,54,55
 122 575 122 575 145.5 594.5 c 128,-1,56
 169 614 169 614 175 650 c 1,57,58
 197 651 197 651 216 663 c 1,59,-1
 216 309 l 1,60,-1
 282 309 l 1,61,-1
 282 291 l 1,62,-1
 89 291 l 1,63,-1
 89 309 l 1,64,-1
 149 309 l 1,50,-1
EndSplineSet
EndChar

StartChar: threequarters
Encoding: 190 190 128
Width: 723
GlyphClass: 2
Flags: W
LayerCount: 2
Fore
SplineSet
201 10 m 1,0,-1
 561 656 l 1,1,-1
 585 656 l 1,2,-1
 226 10 l 1,3,-1
 201 10 l 1,0,-1
547 368 m 1,4,5
 572 368 572 368 596 382 c 1,6,-1
 596 139 l 1,7,-1
 643 139 l 1,8,-1
 643 115 l 1,9,-1
 596 115 l 1,10,-1
 596 20 l 1,11,-1
 529 20 l 1,12,-1
 529 115 l 1,13,-1
 399 115 l 1,14,-1
 399 134 l 1,15,16
 524 253 524 253 547 368 c 1,4,5
432 139 m 1,17,-1
 529 139 l 1,18,-1
 529 262 l 1,19,-1
 525 262 l 1,20,21
 497 207 497 207 432 142 c 1,22,-1
 432 139 l 1,17,-1
227 623 m 128,-1,24
 207 639 207 639 177 639 c 128,-1,25
 147 639 147 639 124 623.5 c 128,-1,26
 101 608 101 608 101 588 c 0,27,28
 101 579 101 579 109 579 c 0,29,30
 113 579 113 579 118.5 593 c 128,-1,31
 124 607 124 607 145 607 c 128,-1,32
 166 607 166 607 175.5 595.5 c 128,-1,33
 185 584 185 584 185 566 c 128,-1,34
 185 548 185 548 171.5 535 c 128,-1,35
 158 522 158 522 134.5 522 c 128,-1,36
 111 522 111 522 97.5 537.5 c 128,-1,37
 84 553 84 553 84 575 c 0,38,39
 84 614 84 614 116.5 635 c 128,-1,40
 149 656 149 656 200 656 c 0,41,42
 321 656 321 656 321 578 c 0,43,44
 321 544 321 544 293 525 c 128,-1,45
 265 506 265 506 212 492 c 1,46,-1
 213 487 l 1,47,48
 218 487 218 487 222 487 c 0,49,50
 273 487 273 487 304 465 c 128,-1,51
 335 443 335 443 335 394.5 c 128,-1,52
 335 346 335 346 291.5 314.5 c 128,-1,53
 248 283 248 283 200 283 c 128,-1,54
 152 283 152 283 117 303.5 c 128,-1,55
 82 324 82 324 82 365 c 0,56,57
 82 392 82 392 99.5 408.5 c 128,-1,58
 117 425 117 425 140.5 425 c 128,-1,59
 164 425 164 425 176.5 411 c 128,-1,60
 189 397 189 397 189 379 c 128,-1,61
 189 361 189 361 179 348.5 c 128,-1,62
 169 336 169 336 145.5 336 c 128,-1,63
 122 336 122 336 117 361 c 0,64,65
 116 370 116 370 107.5 370 c 128,-1,66
 99 370 99 370 99 361 c 0,67,68
 99 339 99 339 122.5 320.5 c 128,-1,69
 146 302 146 302 182 302 c 0,70,71
 261 302 261 302 261 387.5 c 128,-1,72
 261 473 261 473 187 473 c 0,73,74
 167 473 167 473 133 459 c 1,75,-1
 127 475 l 1,76,77
 132 477 132 477 148 483 c 128,-1,78
 164 489 164 489 171.5 492.5 c 128,-1,79
 179 496 179 496 193 503 c 128,-1,80
 207 510 207 510 214.5 516.5 c 128,-1,81
 222 523 222 523 230 532 c 0,82,83
 247 549 247 549 247 578 c 128,-1,23
 247 607 247 607 227 623 c 128,-1,24
EndSplineSet
EndChar

StartChar: questiondown
Encoding: 191 191 129
Width: 404
GlyphClass: 2
Flags: W
LayerCount: 2
Fore
SplineSet
258 422 m 128,-1,1
 258 397 258 397 241.5 380 c 128,-1,2
 225 363 225 363 200 363 c 128,-1,3
 175 363 175 363 158 380 c 128,-1,4
 141 397 141 397 141 422 c 128,-1,5
 141 447 141 447 158 463.5 c 128,-1,6
 175 480 175 480 200 480 c 128,-1,7
 225 480 225 480 241.5 463.5 c 128,-1,0
 258 447 258 447 258 422 c 128,-1,1
239 -200 m 0,8,9
 49 -200 49 -200 49 -69 c 0,10,11
 49 -30 49 -30 71 3 c 128,-1,12
 93 36 93 36 124.5 58.5 c 128,-1,13
 156 81 156 81 187 101 c 0,14,15
 262 149 262 149 262 182.5 c 128,-1,16
 262 216 262 216 244.5 234 c 128,-1,17
 227 252 227 252 198 252 c 0,18,19
 145 252 145 252 121 207 c 1,20,-1
 106 217 l 1,21,22
 137 270 137 270 200 270 c 0,23,24
 237 270 237 270 261 247 c 128,-1,25
 285 224 285 224 285 191 c 128,-1,26
 285 158 285 158 264 125.5 c 128,-1,27
 243 93 243 93 218.5 69 c 128,-1,28
 194 45 194 45 173 9 c 128,-1,29
 152 -27 152 -27 152 -72 c 128,-1,30
 152 -117 152 -117 178.5 -148.5 c 128,-1,31
 205 -180 205 -180 262 -180 c 128,-1,32
 319 -180 319 -180 350 -153 c 128,-1,33
 381 -126 381 -126 381 -97 c 0,34,35
 381 -88 381 -88 372.5 -88 c 128,-1,36
 364 -88 364 -88 363 -97 c 1,37,38
 357 -123 357 -123 323 -123 c 0,39,40
 301 -123 301 -123 288 -107.5 c 128,-1,41
 275 -92 275 -92 275 -69.5 c 128,-1,42
 275 -47 275 -47 291.5 -31.5 c 128,-1,43
 308 -16 308 -16 334.5 -16 c 128,-1,44
 361 -16 361 -16 380.5 -36.5 c 128,-1,45
 400 -57 400 -57 400 -87 c 0,46,47
 400 -143 400 -143 353 -171.5 c 128,-1,48
 306 -200 306 -200 239 -200 c 0,8,9
EndSplineSet
EndChar

StartChar: Agrave
Encoding: 192 192 130
Width: 636
GlyphClass: 2
Flags: W
LayerCount: 2
Fore
SplineSet
154 148 m 2,0,1
 143 118 143 118 143 89.5 c 128,-1,2
 143 61 143 61 153.5 46 c 128,-1,3
 164 31 164 31 187 25 c 0,4,5
 222 16 222 16 280 16 c 2,6,-1
 297 16 l 1,7,-1
 297 0 l 1,8,-1
 1 0 l 1,9,-1
 1 16 l 1,10,11
 54 16 54 16 81.5 45.5 c 128,-1,12
 109 75 109 75 130 138 c 2,13,-1
 293 609 l 2,14,15
 300 631 300 631 306 642 c 0,16,17
 320 670 320 670 352 670 c 2,18,-1
 355 670 l 1,19,-1
 557 16 l 1,20,-1
 628 16 l 1,21,-1
 628 0 l 1,22,-1
 372 0 l 1,23,-1
 372 16 l 1,24,-1
 446 16 l 1,25,-1
 377 242 l 1,26,-1
 186 242 l 1,27,-1
 154 148 l 2,0,1
284 526 m 1,28,-1
 192 258 l 1,29,-1
 372 258 l 1,30,-1
 290 526 l 1,31,-1
 284 526 l 1,28,-1
161 828 m 0,32,33
 161 843 161 843 170.5 852 c 128,-1,34
 180 861 180 861 199 861 c 128,-1,35
 218 861 218 861 241 834 c 1,36,37
 245 826 245 826 254 817 c 128,-1,38
 263 808 263 808 270.5 799 c 128,-1,39
 278 790 278 790 283.5 785.5 c 128,-1,40
 289 781 289 781 298 772.5 c 128,-1,41
 307 764 307 764 315 758 c 128,-1,42
 323 752 323 752 334 744 c 0,43,44
 351 732 351 732 382 715 c 1,45,-1
 375 700 l 1,46,-1
 195 784 l 2,47,48
 161 799 161 799 161 828 c 0,32,33
EndSplineSet
EndChar

StartChar: Aacute
Encoding: 193 193 131
Width: 636
GlyphClass: 2
Flags: W
LayerCount: 2
Fore
SplineSet
410 834 m 2,0,1
 432 861 432 861 452 861 c 0,2,3
 490 861 490 861 490 828 c 0,4,5
 490 799 490 799 456 784 c 2,6,-1
 276 700 l 1,7,-1
 269 715 l 1,8,9
 316 740 316 740 335.5 757 c 128,-1,10
 355 774 355 774 360.5 778.5 c 128,-1,11
 366 783 366 783 376 794.5 c 128,-1,12
 386 806 386 806 388 808 c 128,-1,13
 390 810 390 810 400 822 c 2,14,-1
 410 834 l 2,0,1
154 148 m 2,15,16
 143 118 143 118 143 89.5 c 128,-1,17
 143 61 143 61 153.5 46 c 128,-1,18
 164 31 164 31 187 25 c 0,19,20
 222 16 222 16 280 16 c 2,21,-1
 297 16 l 1,22,-1
 297 0 l 1,23,-1
 1 0 l 1,24,-1
 1 16 l 1,25,26
 54 16 54 16 81.5 45.5 c 128,-1,27
 109 75 109 75 130 138 c 2,28,-1
 293 609 l 2,29,30
 300 631 300 631 306 642 c 0,31,32
 320 670 320 670 352 670 c 2,33,-1
 355 670 l 1,34,-1
 557 16 l 1,35,-1
 628 16 l 1,36,-1
 628 0 l 1,37,-1
 372 0 l 1,38,-1
 372 16 l 1,39,-1
 446 16 l 1,40,-1
 377 242 l 1,41,-1
 186 242 l 1,42,-1
 154 148 l 2,15,16
284 526 m 1,43,-1
 192 258 l 1,44,-1
 372 258 l 1,45,-1
 290 526 l 1,46,-1
 284 526 l 1,43,-1
EndSplineSet
EndChar

StartChar: Acircumflex
Encoding: 194 194 132
Width: 636
GlyphClass: 2
Flags: W
LayerCount: 2
Fore
SplineSet
330 861 m 128,-1,1
 354 861 354 861 376 834 c 1,2,3
 380 826 380 826 389 817 c 128,-1,4
 398 808 398 808 405.5 799 c 128,-1,5
 413 790 413 790 418.5 785.5 c 128,-1,6
 424 781 424 781 433 772.5 c 128,-1,7
 442 764 442 764 450 758 c 128,-1,8
 458 752 458 752 469 744 c 0,9,10
 486 732 486 732 517 715 c 1,11,-1
 510 700 l 1,12,-1
 330 784 l 1,13,-1
 150 700 l 1,14,-1
 143 715 l 1,15,16
 190 740 190 740 209.5 757 c 128,-1,17
 229 774 229 774 234.5 778.5 c 128,-1,18
 240 783 240 783 250 794.5 c 128,-1,19
 260 806 260 806 262 808 c 128,-1,20
 264 810 264 810 274 822 c 2,21,-1
 284 834 l 2,22,0
 306 861 306 861 330 861 c 128,-1,1
154 148 m 2,23,24
 143 118 143 118 143 89.5 c 128,-1,25
 143 61 143 61 153.5 46 c 128,-1,26
 164 31 164 31 187 25 c 0,27,28
 222 16 222 16 280 16 c 2,29,-1
 297 16 l 1,30,-1
 297 0 l 1,31,-1
 1 0 l 1,32,-1
 1 16 l 1,33,34
 54 16 54 16 81.5 45.5 c 128,-1,35
 109 75 109 75 130 138 c 2,36,-1
 293 609 l 2,37,38
 300 631 300 631 306 642 c 0,39,40
 320 670 320 670 352 670 c 2,41,-1
 355 670 l 1,42,-1
 557 16 l 1,43,-1
 628 16 l 1,44,-1
 628 0 l 1,45,-1
 372 0 l 1,46,-1
 372 16 l 1,47,-1
 446 16 l 1,48,-1
 377 242 l 1,49,-1
 186 242 l 1,50,-1
 154 148 l 2,23,24
284 526 m 1,51,-1
 192 258 l 1,52,-1
 372 258 l 1,53,-1
 290 526 l 1,54,-1
 284 526 l 1,51,-1
EndSplineSet
EndChar

StartChar: Atilde
Encoding: 195 195 133
Width: 636
GlyphClass: 2
Flags: W
LayerCount: 2
Fore
SplineSet
154 148 m 2,0,1
 143 118 143 118 143 89.5 c 128,-1,2
 143 61 143 61 153.5 46 c 128,-1,3
 164 31 164 31 187 25 c 0,4,5
 222 16 222 16 280 16 c 2,6,-1
 297 16 l 1,7,-1
 297 0 l 1,8,-1
 1 0 l 1,9,-1
 1 16 l 1,10,11
 54 16 54 16 81.5 45.5 c 128,-1,12
 109 75 109 75 130 138 c 2,13,-1
 293 609 l 2,14,15
 300 631 300 631 306 642 c 0,16,17
 320 670 320 670 352 670 c 2,18,-1
 355 670 l 1,19,-1
 557 16 l 1,20,-1
 628 16 l 1,21,-1
 628 0 l 1,22,-1
 372 0 l 1,23,-1
 372 16 l 1,24,-1
 446 16 l 1,25,-1
 377 242 l 1,26,-1
 186 242 l 1,27,-1
 154 148 l 2,0,1
284 526 m 1,28,-1
 192 258 l 1,29,-1
 372 258 l 1,30,-1
 290 526 l 1,31,-1
 284 526 l 1,28,-1
204 820.5 m 128,-1,33
 224 852 224 852 254.5 852 c 128,-1,34
 285 852 285 852 338.5 826 c 128,-1,35
 392 800 392 800 412 800 c 0,36,37
 462 800 462 800 462 851 c 1,38,-1
 477 851 l 1,39,40
 477 804 477 804 457 772.5 c 128,-1,41
 437 741 437 741 406.5 741 c 128,-1,42
 376 741 376 741 322 767 c 128,-1,43
 268 793 268 793 249 793 c 0,44,45
 199 793 199 793 199 742 c 1,46,-1
 184 742 l 1,47,32
 184 789 184 789 204 820.5 c 128,-1,33
EndSplineSet
EndChar

StartChar: Adieresis
Encoding: 196 196 134
Width: 636
GlyphClass: 2
Flags: W
LayerCount: 2
Fore
SplineSet
154 148 m 2,0,1
 143 118 143 118 143 89.5 c 128,-1,2
 143 61 143 61 153.5 46 c 128,-1,3
 164 31 164 31 187 25 c 0,4,5
 222 16 222 16 280 16 c 2,6,-1
 297 16 l 1,7,-1
 297 0 l 1,8,-1
 1 0 l 1,9,-1
 1 16 l 1,10,11
 54 16 54 16 81.5 45.5 c 128,-1,12
 109 75 109 75 130 138 c 2,13,-1
 293 609 l 2,14,15
 300 631 300 631 306 642 c 0,16,17
 320 670 320 670 352 670 c 2,18,-1
 355 670 l 1,19,-1
 557 16 l 1,20,-1
 628 16 l 1,21,-1
 628 0 l 1,22,-1
 372 0 l 1,23,-1
 372 16 l 1,24,-1
 446 16 l 1,25,-1
 377 242 l 1,26,-1
 186 242 l 1,27,-1
 154 148 l 2,0,1
284 526 m 1,28,-1
 192 258 l 1,29,-1
 372 258 l 1,30,-1
 290 526 l 1,31,-1
 284 526 l 1,28,-1
359 792 m 128,-1,33
 359 817 359 817 377 834.5 c 128,-1,34
 395 852 395 852 420 852 c 128,-1,35
 445 852 445 852 462.5 834.5 c 128,-1,36
 480 817 480 817 480 792 c 128,-1,37
 480 767 480 767 462.5 749 c 128,-1,38
 445 731 445 731 420 731 c 128,-1,39
 395 731 395 731 377 749 c 128,-1,32
 359 767 359 767 359 792 c 128,-1,33
180 792 m 128,-1,41
 180 817 180 817 197.5 834.5 c 128,-1,42
 215 852 215 852 240 852 c 128,-1,43
 265 852 265 852 283 834.5 c 128,-1,44
 301 817 301 817 301 792 c 128,-1,45
 301 767 301 767 283 749 c 128,-1,46
 265 731 265 731 240 731 c 128,-1,47
 215 731 215 731 197.5 749 c 128,-1,40
 180 767 180 767 180 792 c 128,-1,41
EndSplineSet
EndChar

StartChar: Aring
Encoding: 197 197 135
Width: 612
GlyphClass: 2
Flags: W
LayerCount: 2
Fore
SplineSet
267 812 m 128,-1,1
 267 795 267 795 279.5 782 c 128,-1,2
 292 769 292 769 308.5 769 c 128,-1,3
 325 769 325 769 337.5 782 c 128,-1,4
 350 795 350 795 350 812 c 128,-1,5
 350 829 350 829 337.5 841.5 c 128,-1,6
 325 854 325 854 308.5 854 c 128,-1,7
 292 854 292 854 279.5 841.5 c 128,-1,0
 267 829 267 829 267 812 c 128,-1,1
266 768.5 m 128,-1,9
 249 786 249 786 249 811.5 c 128,-1,10
 249 837 249 837 266 854.5 c 128,-1,11
 283 872 283 872 308 872 c 128,-1,12
 333 872 333 872 350.5 854.5 c 128,-1,13
 368 837 368 837 368 811.5 c 128,-1,14
 368 786 368 786 350.5 768.5 c 128,-1,15
 333 751 333 751 308 751 c 128,-1,8
 283 751 283 751 266 768.5 c 128,-1,9
154 148 m 2,16,17
 143 118 143 118 143 89.5 c 128,-1,18
 143 61 143 61 153.5 46 c 128,-1,19
 164 31 164 31 187 25 c 0,20,21
 222 16 222 16 280 16 c 2,22,-1
 297 16 l 1,23,-1
 297 0 l 1,24,-1
 1 0 l 1,25,-1
 1 16 l 1,26,27
 54 16 54 16 81.5 45.5 c 128,-1,28
 109 75 109 75 130 138 c 2,29,-1
 293 609 l 2,30,31
 300 631 300 631 306 642 c 0,32,33
 320 670 320 670 352 670 c 2,34,-1
 355 670 l 1,35,-1
 557 16 l 1,36,-1
 628 16 l 1,37,-1
 628 0 l 1,38,-1
 372 0 l 1,39,-1
 372 16 l 1,40,-1
 446 16 l 1,41,-1
 377 242 l 1,42,-1
 186 242 l 1,43,-1
 154 148 l 2,16,17
284 526 m 1,44,-1
 192 258 l 1,45,-1
 372 258 l 1,46,-1
 290 526 l 1,47,-1
 284 526 l 1,44,-1
EndSplineSet
EndChar

StartChar: AE
Encoding: 198 198 136
Width: 1255
GlyphClass: 2
Flags: W
LayerCount: 2
Fore
SplineSet
309 16 m 1,0,-1
 382 16 l 1,1,-1
 382 331 l 1,2,-1
 225 331 l 1,3,-1
 120 144 l 2,4,5
 90 90 90 90 90 62.5 c 128,-1,6
 90 35 90 35 118.5 25.5 c 128,-1,7
 147 16 147 16 217 16 c 2,8,-1
 234 16 l 1,9,-1
 234 0 l 1,10,-1
 -59 0 l 1,11,-1
 -59 16 l 1,12,13
 -2 16 -2 16 32 46.5 c 128,-1,14
 66 77 66 77 100 138 c 2,15,-1
 353 589 l 1,16,17
 373 628 373 628 389 639 c 128,-1,18
 405 650 405 650 421 650 c 2,19,-1
 760 650 l 1,20,-1
 760 442 l 1,21,-1
 744 442 l 1,22,23
 744 563 744 563 706.5 598.5 c 128,-1,24
 669 634 669 634 546 634 c 2,25,-1
 486 634 l 1,26,-1
 486 347 l 1,27,-1
 509 347 l 2,28,29
 581 347 581 347 608 374.5 c 128,-1,30
 635 402 635 402 635 475 c 1,31,-1
 652 475 l 1,32,-1
 652 200 l 1,33,-1
 635 200 l 1,34,35
 635 274 635 274 608 302.5 c 128,-1,36
 581 331 581 331 509 331 c 2,37,-1
 486 331 l 1,38,-1
 486 16 l 1,39,-1
 537 16 l 2,40,41
 613 16 613 16 654 24 c 128,-1,42
 695 32 695 32 721 59 c 128,-1,43
 747 86 747 86 755.5 126.5 c 128,-1,44
 764 167 764 167 768 245 c 1,45,-1
 784 245 l 1,46,-1
 774 0 l 1,47,-1
 309 0 l 1,48,-1
 309 16 l 1,0,-1
382 595 m 1,49,-1
 373 595 l 1,50,-1
 234 347 l 1,51,-1
 382 347 l 1,52,-1
 382 595 l 1,49,-1
EndSplineSet
EndChar

StartChar: Ccedilla
Encoding: 199 199 137
Width: 579
GlyphClass: 2
Flags: W
LayerCount: 2
Fore
SplineSet
174 388 m 0,0,1
 174 362 174 362 174 309 c 128,-1,2
 174 256 174 256 180 207 c 128,-1,3
 186 158 186 158 202 108 c 128,-1,4
 218 58 218 58 253 30.5 c 128,-1,5
 288 3 288 3 340 3 c 0,6,7
 424 3 424 3 471 59 c 128,-1,8
 518 115 518 115 525 207 c 1,9,-1
 543 205 l 1,10,11
 536 102 536 102 478 41 c 128,-1,12
 420 -20 420 -20 322 -20 c 0,13,14
 305 -20 305 -20 275 -16 c 1,15,-1
 254 -73 l 1,16,17
 288 -51 288 -51 322 -51 c 128,-1,18
 356 -51 356 -51 386 -75 c 128,-1,19
 416 -99 416 -99 416 -143.5 c 128,-1,20
 416 -188 416 -188 391.5 -211.5 c 128,-1,21
 367 -235 367 -235 333 -235 c 128,-1,22
 299 -235 299 -235 278.5 -216 c 128,-1,23
 258 -197 258 -197 258 -171 c 128,-1,24
 258 -145 258 -145 273.5 -128.5 c 128,-1,25
 289 -112 289 -112 311.5 -112 c 128,-1,26
 334 -112 334 -112 349.5 -125.5 c 128,-1,27
 365 -139 365 -139 365 -160 c 0,28,29
 365 -193 365 -193 339 -199 c 1,30,31
 330 -200 330 -200 330 -208.5 c 128,-1,32
 330 -217 330 -217 340 -217 c 0,33,34
 363 -217 363 -217 380.5 -198 c 128,-1,35
 398 -179 398 -179 398 -145 c 128,-1,36
 398 -111 398 -111 373.5 -90 c 128,-1,37
 349 -69 349 -69 323.5 -69 c 128,-1,38
 298 -69 298 -69 275 -81.5 c 128,-1,39
 252 -94 252 -94 240 -112 c 1,40,-1
 226 -95 l 1,41,-1
 257 -12 l 1,42,43
 191 5 191 5 144 56 c 0,44,45
 52 156 52 156 52 328 c 0,46,47
 52 468 52 468 126.5 569 c 128,-1,48
 201 670 201 670 327 670 c 0,49,50
 372 670 372 670 421 653 c 128,-1,51
 470 636 470 636 479 636 c 0,52,53
 508 636 508 636 513 670 c 1,54,-1
 525 670 l 1,55,-1
 525 436 l 1,56,-1
 509 436 l 1,57,58
 494 535 494 535 455 593 c 128,-1,59
 416 651 416 651 336 651 c 0,60,61
 241 651 241 651 206 570 c 0,62,63
 177 501 177 501 174 388 c 0,0,1
EndSplineSet
EndChar

StartChar: Egrave
Encoding: 200 200 138
Width: 619
GlyphClass: 2
Flags: W
LayerCount: 2
Fore
SplineSet
52 0 m 1,0,-1
 52 16 l 1,1,-1
 125 16 l 1,2,-1
 125 634 l 1,3,-1
 52 634 l 1,4,-1
 52 650 l 1,5,-1
 533 650 l 1,6,-1
 533 442 l 1,7,-1
 517 442 l 1,8,9
 517 563 517 563 479.5 598.5 c 128,-1,10
 442 634 442 634 319 634 c 2,11,-1
 229 634 l 1,12,-1
 229 347 l 1,13,-1
 282 347 l 2,14,15
 354 347 354 347 381 374.5 c 128,-1,16
 408 402 408 402 408 475 c 1,17,-1
 425 475 l 1,18,-1
 425 200 l 1,19,-1
 408 200 l 1,20,21
 408 274 408 274 381 302.5 c 128,-1,22
 354 331 354 331 282 331 c 2,23,-1
 229 331 l 1,24,-1
 229 16 l 1,25,-1
 310 16 l 2,26,27
 386 16 386 16 427 24 c 128,-1,28
 468 32 468 32 494 59 c 128,-1,29
 520 86 520 86 528.5 126.5 c 128,-1,30
 537 167 537 167 541 245 c 1,31,-1
 557 245 l 1,32,-1
 547 0 l 1,33,-1
 52 0 l 1,0,-1
230 828 m 0,34,35
 230 843 230 843 239.5 852 c 128,-1,36
 249 861 249 861 268.5 861 c 128,-1,37
 288 861 288 861 310 834 c 1,38,39
 314 826 314 826 323 817 c 128,-1,40
 332 808 332 808 339.5 799 c 128,-1,41
 347 790 347 790 352.5 785.5 c 128,-1,42
 358 781 358 781 367 772.5 c 128,-1,43
 376 764 376 764 384 758 c 128,-1,44
 392 752 392 752 403 744 c 0,45,46
 420 732 420 732 451 715 c 1,47,-1
 444 700 l 1,48,-1
 264 784 l 2,49,50
 230 799 230 799 230 828 c 0,34,35
EndSplineSet
EndChar

StartChar: Eacute
Encoding: 201 201 139
Width: 619
GlyphClass: 2
Flags: W
LayerCount: 2
Fore
SplineSet
424 834 m 2,0,1
 446 861 446 861 466 861 c 0,2,3
 504 861 504 861 504 828 c 0,4,5
 504 799 504 799 470 784 c 2,6,-1
 290 700 l 1,7,-1
 283 715 l 1,8,9
 330 740 330 740 349.5 757 c 128,-1,10
 369 774 369 774 374.5 778.5 c 128,-1,11
 380 783 380 783 390 794.5 c 128,-1,12
 400 806 400 806 402 808 c 128,-1,13
 404 810 404 810 414 822 c 2,14,-1
 424 834 l 2,0,1
52 0 m 1,15,-1
 52 16 l 1,16,-1
 125 16 l 1,17,-1
 125 634 l 1,18,-1
 52 634 l 1,19,-1
 52 650 l 1,20,-1
 533 650 l 1,21,-1
 533 442 l 1,22,-1
 517 442 l 1,23,24
 517 563 517 563 479.5 598.5 c 128,-1,25
 442 634 442 634 319 634 c 2,26,-1
 229 634 l 1,27,-1
 229 347 l 1,28,-1
 282 347 l 2,29,30
 354 347 354 347 381 374.5 c 128,-1,31
 408 402 408 402 408 475 c 1,32,-1
 425 475 l 1,33,-1
 425 200 l 1,34,-1
 408 200 l 1,35,36
 408 274 408 274 381 302.5 c 128,-1,37
 354 331 354 331 282 331 c 2,38,-1
 229 331 l 1,39,-1
 229 16 l 1,40,-1
 310 16 l 2,41,42
 386 16 386 16 427 24 c 128,-1,43
 468 32 468 32 494 59 c 128,-1,44
 520 86 520 86 528.5 126.5 c 128,-1,45
 537 167 537 167 541 245 c 1,46,-1
 557 245 l 1,47,-1
 547 0 l 1,48,-1
 52 0 l 1,15,-1
EndSplineSet
EndChar

StartChar: Ecircumflex
Encoding: 202 202 140
Width: 619
GlyphClass: 2
Flags: W
LayerCount: 2
Fore
SplineSet
52 0 m 1,0,-1
 52 16 l 1,1,-1
 125 16 l 1,2,-1
 125 634 l 1,3,-1
 52 634 l 1,4,-1
 52 650 l 1,5,-1
 533 650 l 1,6,-1
 533 442 l 1,7,-1
 517 442 l 1,8,9
 517 563 517 563 479.5 598.5 c 128,-1,10
 442 634 442 634 319 634 c 2,11,-1
 229 634 l 1,12,-1
 229 347 l 1,13,-1
 282 347 l 2,14,15
 354 347 354 347 381 374.5 c 128,-1,16
 408 402 408 402 408 475 c 1,17,-1
 425 475 l 1,18,-1
 425 200 l 1,19,-1
 408 200 l 1,20,21
 408 274 408 274 381 302.5 c 128,-1,22
 354 331 354 331 282 331 c 2,23,-1
 229 331 l 1,24,-1
 229 16 l 1,25,-1
 310 16 l 2,26,27
 386 16 386 16 427 24 c 128,-1,28
 468 32 468 32 494 59 c 128,-1,29
 520 86 520 86 528.5 126.5 c 128,-1,30
 537 167 537 167 541 245 c 1,31,-1
 557 245 l 1,32,-1
 547 0 l 1,33,-1
 52 0 l 1,0,-1
327 861 m 128,-1,35
 350 861 350 861 373 834 c 1,36,37
 377 826 377 826 386 817 c 128,-1,38
 395 808 395 808 402.5 799 c 128,-1,39
 410 790 410 790 415.5 785.5 c 128,-1,40
 421 781 421 781 430 772.5 c 128,-1,41
 439 764 439 764 447 758 c 128,-1,42
 455 752 455 752 466 744 c 0,43,44
 483 732 483 732 514 715 c 1,45,-1
 507 700 l 1,46,-1
 327 784 l 1,47,-1
 147 700 l 1,48,-1
 140 715 l 1,49,50
 187 740 187 740 206.5 757 c 128,-1,51
 226 774 226 774 231.5 778.5 c 128,-1,52
 237 783 237 783 247 794.5 c 128,-1,53
 257 806 257 806 259 808 c 128,-1,54
 261 810 261 810 271 822 c 2,55,-1
 281 834 l 2,56,34
 304 861 304 861 327 861 c 128,-1,35
EndSplineSet
EndChar

StartChar: Edieresis
Encoding: 203 203 141
Width: 619
GlyphClass: 2
Flags: W
LayerCount: 2
Fore
SplineSet
52 0 m 1,0,-1
 52 16 l 1,1,-1
 125 16 l 1,2,-1
 125 634 l 1,3,-1
 52 634 l 1,4,-1
 52 650 l 1,5,-1
 533 650 l 1,6,-1
 533 442 l 1,7,-1
 517 442 l 1,8,9
 517 563 517 563 479.5 598.5 c 128,-1,10
 442 634 442 634 319 634 c 2,11,-1
 229 634 l 1,12,-1
 229 347 l 1,13,-1
 282 347 l 2,14,15
 354 347 354 347 381 374.5 c 128,-1,16
 408 402 408 402 408 475 c 1,17,-1
 425 475 l 1,18,-1
 425 200 l 1,19,-1
 408 200 l 1,20,21
 408 274 408 274 381 302.5 c 128,-1,22
 354 331 354 331 282 331 c 2,23,-1
 229 331 l 1,24,-1
 229 16 l 1,25,-1
 310 16 l 2,26,27
 386 16 386 16 427 24 c 128,-1,28
 468 32 468 32 494 59 c 128,-1,29
 520 86 520 86 528.5 126.5 c 128,-1,30
 537 167 537 167 541 245 c 1,31,-1
 557 245 l 1,32,-1
 547 0 l 1,33,-1
 52 0 l 1,0,-1
340 792 m 128,-1,35
 340 817 340 817 358 834.5 c 128,-1,36
 376 852 376 852 401 852 c 128,-1,37
 426 852 426 852 443.5 834.5 c 128,-1,38
 461 817 461 817 461 792 c 128,-1,39
 461 767 461 767 443.5 749 c 128,-1,40
 426 731 426 731 401 731 c 128,-1,41
 376 731 376 731 358 749 c 128,-1,34
 340 767 340 767 340 792 c 128,-1,35
161 792 m 128,-1,43
 161 817 161 817 178.5 834.5 c 128,-1,44
 196 852 196 852 221 852 c 128,-1,45
 246 852 246 852 264 834.5 c 128,-1,46
 282 817 282 817 282 792 c 128,-1,47
 282 767 282 767 264 749 c 128,-1,48
 246 731 246 731 221 731 c 128,-1,49
 196 731 196 731 178.5 749 c 128,-1,42
 161 767 161 767 161 792 c 128,-1,43
EndSplineSet
EndChar

StartChar: Igrave
Encoding: 204 204 142
Width: 354
GlyphClass: 2
Flags: W
LayerCount: 2
Fore
SplineSet
125 634 m 1,0,-1
 52 634 l 1,1,-1
 52 650 l 1,2,-1
 312 650 l 1,3,-1
 312 634 l 1,4,-1
 229 634 l 1,5,-1
 229 16 l 1,6,-1
 312 16 l 1,7,-1
 312 0 l 1,8,-1
 52 0 l 1,9,-1
 52 16 l 1,10,-1
 125 16 l 1,11,-1
 125 634 l 1,0,-1
25 828 m 0,12,13
 25 843 25 843 34.5 852 c 128,-1,14
 44 861 44 861 63 861 c 128,-1,15
 82 861 82 861 105 834 c 1,16,17
 109 826 109 826 118 817 c 128,-1,18
 127 808 127 808 134.5 799 c 128,-1,19
 142 790 142 790 147.5 785.5 c 128,-1,20
 153 781 153 781 162 772.5 c 128,-1,21
 171 764 171 764 179 758 c 128,-1,22
 187 752 187 752 198 744 c 0,23,24
 215 732 215 732 246 715 c 1,25,-1
 239 700 l 1,26,-1
 59 784 l 2,27,28
 25 799 25 799 25 828 c 0,12,13
EndSplineSet
EndChar

StartChar: Iacute
Encoding: 205 205 143
Width: 354
GlyphClass: 2
Flags: W
LayerCount: 2
Fore
SplineSet
125 634 m 1,0,-1
 52 634 l 1,1,-1
 52 650 l 1,2,-1
 312 650 l 1,3,-1
 312 634 l 1,4,-1
 229 634 l 1,5,-1
 229 16 l 1,6,-1
 312 16 l 1,7,-1
 312 0 l 1,8,-1
 52 0 l 1,9,-1
 52 16 l 1,10,-1
 125 16 l 1,11,-1
 125 634 l 1,0,-1
249 834 m 2,12,13
 272 861 272 861 291 861 c 128,-1,14
 310 861 310 861 319.5 852 c 128,-1,15
 329 843 329 843 329 828 c 0,16,17
 329 799 329 799 295 784 c 2,18,-1
 115 700 l 1,19,-1
 108 715 l 1,20,21
 155 740 155 740 174.5 757 c 128,-1,22
 194 774 194 774 199.5 778.5 c 128,-1,23
 205 783 205 783 215 794.5 c 128,-1,24
 225 806 225 806 227 808 c 128,-1,25
 229 810 229 810 239 822 c 2,26,-1
 249 834 l 2,12,13
EndSplineSet
EndChar

StartChar: Icircumflex
Encoding: 206 206 144
Width: 354
GlyphClass: 2
Flags: W
LayerCount: 2
Fore
SplineSet
125 634 m 1,0,-1
 52 634 l 1,1,-1
 52 650 l 1,2,-1
 312 650 l 1,3,-1
 312 634 l 1,4,-1
 229 634 l 1,5,-1
 229 16 l 1,6,-1
 312 16 l 1,7,-1
 312 0 l 1,8,-1
 52 0 l 1,9,-1
 52 16 l 1,10,-1
 125 16 l 1,11,-1
 125 634 l 1,0,-1
180 861 m 128,-1,13
 204 861 204 861 226 834 c 1,14,15
 230 826 230 826 239 817 c 128,-1,16
 248 808 248 808 255.5 799 c 128,-1,17
 263 790 263 790 268.5 785.5 c 128,-1,18
 274 781 274 781 283 772.5 c 128,-1,19
 292 764 292 764 300 758 c 128,-1,20
 308 752 308 752 319 744 c 0,21,22
 336 732 336 732 367 715 c 1,23,-1
 360 700 l 1,24,-1
 180 784 l 1,25,-1
 0 700 l 1,26,-1
 -7 715 l 1,27,28
 40 740 40 740 59.5 757 c 128,-1,29
 79 774 79 774 84.5 778.5 c 128,-1,30
 90 783 90 783 100 794.5 c 128,-1,31
 110 806 110 806 112 808 c 128,-1,32
 114 810 114 810 124 822 c 2,33,-1
 134 834 l 2,34,12
 156 861 156 861 180 861 c 128,-1,13
EndSplineSet
EndChar

StartChar: Idieresis
Encoding: 207 207 145
Width: 354
GlyphClass: 2
Flags: W
LayerCount: 2
Fore
SplineSet
125 634 m 1,0,-1
 52 634 l 1,1,-1
 52 650 l 1,2,-1
 312 650 l 1,3,-1
 312 634 l 1,4,-1
 229 634 l 1,5,-1
 229 16 l 1,6,-1
 312 16 l 1,7,-1
 312 0 l 1,8,-1
 52 0 l 1,9,-1
 52 16 l 1,10,-1
 125 16 l 1,11,-1
 125 634 l 1,0,-1
209 792 m 128,-1,13
 209 817 209 817 227 834.5 c 128,-1,14
 245 852 245 852 270 852 c 128,-1,15
 295 852 295 852 312.5 834.5 c 128,-1,16
 330 817 330 817 330 792 c 128,-1,17
 330 767 330 767 312.5 749 c 128,-1,18
 295 731 295 731 270 731 c 128,-1,19
 245 731 245 731 227 749 c 128,-1,12
 209 767 209 767 209 792 c 128,-1,13
30 792 m 128,-1,21
 30 817 30 817 47.5 834.5 c 128,-1,22
 65 852 65 852 90 852 c 128,-1,23
 115 852 115 852 133 834.5 c 128,-1,24
 151 817 151 817 151 792 c 128,-1,25
 151 767 151 767 133 749 c 128,-1,26
 115 731 115 731 90 731 c 128,-1,27
 65 731 65 731 47.5 749 c 128,-1,20
 30 767 30 767 30 792 c 128,-1,21
EndSplineSet
EndChar

StartChar: Eth
Encoding: 208 208 146
Width: 687
GlyphClass: 2
Flags: W
LayerCount: 2
Fore
SplineSet
52 320 m 1,0,-1
 52 336 l 1,1,-1
 125 336 l 1,2,-1
 125 634 l 1,3,-1
 52 634 l 1,4,-1
 52 650 l 1,5,-1
 325 650 l 2,6,7
 477 650 477 650 556 570 c 128,-1,8
 635 490 635 490 635 328.5 c 128,-1,9
 635 167 635 167 556.5 83.5 c 128,-1,10
 478 0 478 0 311 0 c 2,11,-1
 52 0 l 1,12,-1
 52 16 l 1,13,-1
 125 16 l 1,14,-1
 125 320 l 1,15,-1
 52 320 l 1,0,-1
505 197.5 m 128,-1,17
 513 249 513 249 513 325 c 128,-1,18
 513 401 513 401 504.5 452 c 128,-1,19
 496 503 496 503 475 546 c 0,20,21
 433 634 433 634 310 634 c 2,22,-1
 229 634 l 1,23,-1
 229 336 l 1,24,-1
 304 336 l 1,25,-1
 304 320 l 1,26,-1
 229 320 l 1,27,-1
 229 16 l 1,28,-1
 290 16 l 2,29,30
 430 16 430 16 474 102 c 0,31,16
 497 146 497 146 505 197.5 c 128,-1,17
EndSplineSet
EndChar

StartChar: Ntilde
Encoding: 209 209 147
Width: 689
GlyphClass: 2
Flags: W
LayerCount: 2
Fore
SplineSet
537 507 m 2,0,-1
 537 -7 l 1,1,-1
 521 -7 l 2,2,3
 488 -7 488 -7 467.5 14 c 128,-1,4
 447 35 447 35 413 94 c 2,5,-1
 149 548 l 1,6,-1
 145 548 l 1,7,-1
 145 143 l 2,8,9
 145 70 145 70 172.5 43 c 128,-1,10
 200 16 200 16 273 16 c 2,11,-1
 280 16 l 1,12,-1
 280 0 l 1,13,-1
 -6 0 l 1,14,-1
 -6 16 l 1,15,16
 67 16 67 16 96 43.5 c 128,-1,17
 125 71 125 71 125 143 c 2,18,-1
 125 589 l 1,19,20
 98 635 98 635 20 635 c 1,21,-1
 20 650 l 1,22,-1
 124 650 l 2,23,24
 172 650 172 650 196.5 633.5 c 128,-1,25
 221 617 221 617 246 575 c 2,26,-1
 511 120 l 1,27,-1
 517 120 l 1,28,-1
 517 507 l 2,29,30
 517 580 517 580 489.5 607 c 128,-1,31
 462 634 462 634 389 634 c 2,32,-1
 382 634 l 1,33,-1
 382 650 l 1,34,-1
 668 650 l 1,35,-1
 668 634 l 1,36,37
 595 634 595 634 566 606.5 c 128,-1,38
 537 579 537 579 537 507 c 2,0,-1
203 820.5 m 128,-1,40
 223 852 223 852 253.5 852 c 128,-1,41
 284 852 284 852 337.5 826 c 128,-1,42
 391 800 391 800 411 800 c 0,43,44
 461 800 461 800 461 851 c 1,45,-1
 476 851 l 1,46,47
 476 804 476 804 456 772.5 c 128,-1,48
 436 741 436 741 405 741 c 128,-1,49
 374 741 374 741 321 767 c 128,-1,50
 268 793 268 793 248 793 c 0,51,52
 198 793 198 793 198 742 c 1,53,-1
 183 742 l 1,54,39
 183 789 183 789 203 820.5 c 128,-1,40
EndSplineSet
EndChar

StartChar: Ograve
Encoding: 210 210 148
Width: 670
GlyphClass: 2
Flags: W
LayerCount: 2
Fore
SplineSet
202 828 m 0,0,1
 202 843 202 843 211.5 852 c 128,-1,2
 221 861 221 861 240.5 861 c 128,-1,3
 260 861 260 861 282 834 c 1,4,5
 286 826 286 826 295 817 c 128,-1,6
 304 808 304 808 311.5 799 c 128,-1,7
 319 790 319 790 324.5 785.5 c 128,-1,8
 330 781 330 781 339 772.5 c 128,-1,9
 348 764 348 764 356 758 c 128,-1,10
 364 752 364 752 375 744 c 0,11,12
 392 732 392 732 423 715 c 1,13,-1
 416 700 l 1,14,-1
 236 784 l 2,15,16
 202 799 202 799 202 828 c 0,0,1
335 -20 m 128,-1,18
 201 -20 201 -20 126.5 80.5 c 128,-1,19
 52 181 52 181 52 326 c 128,-1,20
 52 471 52 471 128 570.5 c 128,-1,21
 204 670 204 670 335 670 c 128,-1,22
 466 670 466 670 542 570.5 c 128,-1,23
 618 471 618 471 618 326 c 128,-1,24
 618 181 618 181 543.5 80.5 c 128,-1,17
 469 -20 469 -20 335 -20 c 128,-1,18
269 11.5 m 128,-1,26
 297 -1 297 -1 334.5 -1 c 128,-1,27
 372 -1 372 -1 399.5 12 c 128,-1,28
 427 25 427 25 444 51 c 128,-1,29
 461 77 461 77 472 105.5 c 128,-1,30
 483 134 483 134 488 176 c 128,-1,31
 493 218 493 218 494.5 250 c 128,-1,32
 496 282 496 282 496 328 c 128,-1,33
 496 374 496 374 494.5 405.5 c 128,-1,34
 493 437 493 437 488 478.5 c 128,-1,35
 483 520 483 520 472 547.5 c 128,-1,36
 461 575 461 575 444 600.5 c 128,-1,37
 427 626 427 626 399.5 638.5 c 128,-1,38
 372 651 372 651 335 651 c 128,-1,39
 298 651 298 651 270.5 638.5 c 128,-1,40
 243 626 243 626 226 600.5 c 128,-1,41
 209 575 209 575 198 547.5 c 128,-1,42
 187 520 187 520 182 478 c 0,43,44
 174 412 174 412 174 345.5 c 128,-1,45
 174 279 174 279 175 248.5 c 128,-1,46
 176 218 176 218 180.5 174.5 c 128,-1,47
 185 131 185 131 196 104 c 128,-1,48
 207 77 207 77 224 50.5 c 128,-1,25
 241 24 241 24 269 11.5 c 128,-1,26
EndSplineSet
EndChar

StartChar: Oacute
Encoding: 211 211 149
Width: 670
GlyphClass: 2
Flags: W
LayerCount: 2
Fore
SplineSet
389 834 m 2,0,1
 412 861 412 861 431 861 c 128,-1,2
 450 861 450 861 459.5 852 c 128,-1,3
 469 843 469 843 469 828 c 0,4,5
 469 799 469 799 435 784 c 2,6,-1
 255 700 l 1,7,-1
 248 715 l 1,8,9
 295 740 295 740 314.5 757 c 128,-1,10
 334 774 334 774 339.5 778.5 c 128,-1,11
 345 783 345 783 355 794.5 c 128,-1,12
 365 806 365 806 367 808 c 128,-1,13
 369 810 369 810 379 822 c 2,14,-1
 389 834 l 2,0,1
335 -20 m 128,-1,16
 201 -20 201 -20 126.5 80.5 c 128,-1,17
 52 181 52 181 52 326 c 128,-1,18
 52 471 52 471 128 570.5 c 128,-1,19
 204 670 204 670 335 670 c 128,-1,20
 466 670 466 670 542 570.5 c 128,-1,21
 618 471 618 471 618 326 c 128,-1,22
 618 181 618 181 543.5 80.5 c 128,-1,15
 469 -20 469 -20 335 -20 c 128,-1,16
269 11.5 m 128,-1,24
 297 -1 297 -1 334.5 -1 c 128,-1,25
 372 -1 372 -1 399.5 12 c 128,-1,26
 427 25 427 25 444 51 c 128,-1,27
 461 77 461 77 472 105.5 c 128,-1,28
 483 134 483 134 488 176 c 128,-1,29
 493 218 493 218 494.5 250 c 128,-1,30
 496 282 496 282 496 328 c 128,-1,31
 496 374 496 374 494.5 405.5 c 128,-1,32
 493 437 493 437 488 478.5 c 128,-1,33
 483 520 483 520 472 547.5 c 128,-1,34
 461 575 461 575 444 600.5 c 128,-1,35
 427 626 427 626 399.5 638.5 c 128,-1,36
 372 651 372 651 335 651 c 128,-1,37
 298 651 298 651 270.5 638.5 c 128,-1,38
 243 626 243 626 226 600.5 c 128,-1,39
 209 575 209 575 198 547.5 c 128,-1,40
 187 520 187 520 182 478 c 0,41,42
 174 412 174 412 174 345.5 c 128,-1,43
 174 279 174 279 175 248.5 c 128,-1,44
 176 218 176 218 180.5 174.5 c 128,-1,45
 185 131 185 131 196 104 c 128,-1,46
 207 77 207 77 224 50.5 c 128,-1,23
 241 24 241 24 269 11.5 c 128,-1,24
EndSplineSet
EndChar

StartChar: Ocircumflex
Encoding: 212 212 150
Width: 670
GlyphClass: 2
Flags: W
LayerCount: 2
Fore
SplineSet
335 -20 m 128,-1,1
 201 -20 201 -20 126.5 80.5 c 128,-1,2
 52 181 52 181 52 326 c 128,-1,3
 52 471 52 471 128 570.5 c 128,-1,4
 204 670 204 670 335 670 c 128,-1,5
 466 670 466 670 542 570.5 c 128,-1,6
 618 471 618 471 618 326 c 128,-1,7
 618 181 618 181 543.5 80.5 c 128,-1,0
 469 -20 469 -20 335 -20 c 128,-1,1
269 11.5 m 128,-1,9
 297 -1 297 -1 334.5 -1 c 128,-1,10
 372 -1 372 -1 399.5 12 c 128,-1,11
 427 25 427 25 444 51 c 128,-1,12
 461 77 461 77 472 105.5 c 128,-1,13
 483 134 483 134 488 176 c 128,-1,14
 493 218 493 218 494.5 250 c 128,-1,15
 496 282 496 282 496 328 c 128,-1,16
 496 374 496 374 494.5 405.5 c 128,-1,17
 493 437 493 437 488 478.5 c 128,-1,18
 483 520 483 520 472 547.5 c 128,-1,19
 461 575 461 575 444 600.5 c 128,-1,20
 427 626 427 626 399.5 638.5 c 128,-1,21
 372 651 372 651 335 651 c 128,-1,22
 298 651 298 651 270.5 638.5 c 128,-1,23
 243 626 243 626 226 600.5 c 128,-1,24
 209 575 209 575 198 547.5 c 128,-1,25
 187 520 187 520 182 478 c 0,26,27
 174 412 174 412 174 345.5 c 128,-1,28
 174 279 174 279 175 248.5 c 128,-1,29
 176 218 176 218 180.5 174.5 c 128,-1,30
 185 131 185 131 196 104 c 128,-1,31
 207 77 207 77 224 50.5 c 128,-1,8
 241 24 241 24 269 11.5 c 128,-1,9
337 861 m 128,-1,33
 360 861 360 861 383 834 c 1,34,35
 387 826 387 826 396 817 c 128,-1,36
 405 808 405 808 412.5 799 c 128,-1,37
 420 790 420 790 425.5 785.5 c 128,-1,38
 431 781 431 781 440 772.5 c 128,-1,39
 449 764 449 764 457 758 c 128,-1,40
 465 752 465 752 476 744 c 0,41,42
 493 732 493 732 524 715 c 1,43,-1
 517 700 l 1,44,-1
 337 784 l 1,45,-1
 157 700 l 1,46,-1
 150 715 l 1,47,48
 197 740 197 740 216.5 757 c 128,-1,49
 236 774 236 774 241.5 778.5 c 128,-1,50
 247 783 247 783 257 794.5 c 128,-1,51
 267 806 267 806 269 808 c 128,-1,52
 271 810 271 810 281 822 c 2,53,-1
 291 834 l 2,54,32
 314 861 314 861 337 861 c 128,-1,33
EndSplineSet
EndChar

StartChar: Otilde
Encoding: 213 213 151
Width: 670
GlyphClass: 2
Flags: W
LayerCount: 2
Fore
SplineSet
335 -20 m 128,-1,1
 201 -20 201 -20 126.5 80.5 c 128,-1,2
 52 181 52 181 52 326 c 128,-1,3
 52 471 52 471 128 570.5 c 128,-1,4
 204 670 204 670 335 670 c 128,-1,5
 466 670 466 670 542 570.5 c 128,-1,6
 618 471 618 471 618 326 c 128,-1,7
 618 181 618 181 543.5 80.5 c 128,-1,0
 469 -20 469 -20 335 -20 c 128,-1,1
269 11.5 m 128,-1,9
 297 -1 297 -1 334.5 -1 c 128,-1,10
 372 -1 372 -1 399.5 12 c 128,-1,11
 427 25 427 25 444 51 c 128,-1,12
 461 77 461 77 472 105.5 c 128,-1,13
 483 134 483 134 488 176 c 128,-1,14
 493 218 493 218 494.5 250 c 128,-1,15
 496 282 496 282 496 328 c 128,-1,16
 496 374 496 374 494.5 405.5 c 128,-1,17
 493 437 493 437 488 478.5 c 128,-1,18
 483 520 483 520 472 547.5 c 128,-1,19
 461 575 461 575 444 600.5 c 128,-1,20
 427 626 427 626 399.5 638.5 c 128,-1,21
 372 651 372 651 335 651 c 128,-1,22
 298 651 298 651 270.5 638.5 c 128,-1,23
 243 626 243 626 226 600.5 c 128,-1,24
 209 575 209 575 198 547.5 c 128,-1,25
 187 520 187 520 182 478 c 0,26,27
 174 412 174 412 174 345.5 c 128,-1,28
 174 279 174 279 175 248.5 c 128,-1,29
 176 218 176 218 180.5 174.5 c 128,-1,30
 185 131 185 131 196 104 c 128,-1,31
 207 77 207 77 224 50.5 c 128,-1,8
 241 24 241 24 269 11.5 c 128,-1,9
210 820.5 m 128,-1,33
 230 852 230 852 260.5 852 c 128,-1,34
 291 852 291 852 344.5 826 c 128,-1,35
 398 800 398 800 418 800 c 0,36,37
 468 800 468 800 468 851 c 1,38,-1
 483 851 l 1,39,40
 483 804 483 804 463 772.5 c 128,-1,41
 443 741 443 741 412.5 741 c 128,-1,42
 382 741 382 741 328 767 c 128,-1,43
 274 793 274 793 255 793 c 0,44,45
 205 793 205 793 205 742 c 1,46,-1
 190 742 l 1,47,32
 190 789 190 789 210 820.5 c 128,-1,33
EndSplineSet
EndChar

StartChar: Odieresis
Encoding: 214 214 152
Width: 670
GlyphClass: 2
Flags: W
LayerCount: 2
Fore
SplineSet
335 -20 m 128,-1,1
 201 -20 201 -20 126.5 80.5 c 128,-1,2
 52 181 52 181 52 326 c 128,-1,3
 52 471 52 471 128 570.5 c 128,-1,4
 204 670 204 670 335 670 c 128,-1,5
 466 670 466 670 542 570.5 c 128,-1,6
 618 471 618 471 618 326 c 128,-1,7
 618 181 618 181 543.5 80.5 c 128,-1,0
 469 -20 469 -20 335 -20 c 128,-1,1
269 11.5 m 128,-1,9
 297 -1 297 -1 334.5 -1 c 128,-1,10
 372 -1 372 -1 399.5 12 c 128,-1,11
 427 25 427 25 444 51 c 128,-1,12
 461 77 461 77 472 105.5 c 128,-1,13
 483 134 483 134 488 176 c 128,-1,14
 493 218 493 218 494.5 250 c 128,-1,15
 496 282 496 282 496 328 c 128,-1,16
 496 374 496 374 494.5 405.5 c 128,-1,17
 493 437 493 437 488 478.5 c 128,-1,18
 483 520 483 520 472 547.5 c 128,-1,19
 461 575 461 575 444 600.5 c 128,-1,20
 427 626 427 626 399.5 638.5 c 128,-1,21
 372 651 372 651 335 651 c 128,-1,22
 298 651 298 651 270.5 638.5 c 128,-1,23
 243 626 243 626 226 600.5 c 128,-1,24
 209 575 209 575 198 547.5 c 128,-1,25
 187 520 187 520 182 478 c 0,26,27
 174 412 174 412 174 345.5 c 128,-1,28
 174 279 174 279 175 248.5 c 128,-1,29
 176 218 176 218 180.5 174.5 c 128,-1,30
 185 131 185 131 196 104 c 128,-1,31
 207 77 207 77 224 50.5 c 128,-1,8
 241 24 241 24 269 11.5 c 128,-1,9
364 792 m 128,-1,33
 364 817 364 817 382 834.5 c 128,-1,34
 400 852 400 852 425 852 c 128,-1,35
 450 852 450 852 467.5 834.5 c 128,-1,36
 485 817 485 817 485 792 c 128,-1,37
 485 767 485 767 467.5 749 c 128,-1,38
 450 731 450 731 425 731 c 128,-1,39
 400 731 400 731 382 749 c 128,-1,32
 364 767 364 767 364 792 c 128,-1,33
185 792 m 128,-1,41
 185 817 185 817 202.5 834.5 c 128,-1,42
 220 852 220 852 245 852 c 128,-1,43
 270 852 270 852 288 834.5 c 128,-1,44
 306 817 306 817 306 792 c 128,-1,45
 306 767 306 767 288 749 c 128,-1,46
 270 731 270 731 245 731 c 128,-1,47
 220 731 220 731 202.5 749 c 128,-1,40
 185 767 185 767 185 792 c 128,-1,41
EndSplineSet
EndChar

StartChar: multiply
Encoding: 215 215 153
Width: 456
GlyphClass: 2
Flags: W
LayerCount: 2
Fore
SplineSet
70 394 m 1,0,-1
 86 408 l 1,1,-1
 236 252 l 1,2,-1
 387 408 l 1,3,-1
 402 393 l 1,4,-1
 251 237 l 1,5,-1
 412 72 l 1,6,-1
 397 57 l 1,7,-1
 237 222 l 1,8,-1
 77 57 l 1,9,-1
 62 72 l 1,10,-1
 222 237 l 1,11,-1
 70 394 l 1,0,-1
EndSplineSet
EndChar

StartChar: Oslash
Encoding: 216 216 154
Width: 670
GlyphClass: 2
Flags: W
LayerCount: 2
Fore
SplineSet
335 -20 m 0,0,1
 265 -20 265 -20 206 11 c 1,2,-1
 167 -72 l 1,3,-1
 143 -72 l 1,4,-1
 187 23 l 1,5,6
 122 67 122 67 87 148.5 c 128,-1,7
 52 230 52 230 52 328 c 0,8,9
 52 471 52 471 128 570.5 c 128,-1,10
 204 670 204 670 335 670 c 0,11,12
 409 670 409 670 472 633 c 1,13,-1
 508 710 l 1,14,-1
 533 710 l 1,15,-1
 491 620 l 1,16,17
 552 575 552 575 585 497 c 128,-1,18
 618 419 618 419 618 328 c 0,19,20
 618 181 618 181 543.5 80.5 c 128,-1,21
 469 -20 469 -20 335 -20 c 0,0,1
175.5 405.5 m 128,-1,23
 174 374 174 374 174 321 c 128,-1,24
 174 268 174 268 175.5 232 c 128,-1,25
 177 196 177 196 185.5 148.5 c 128,-1,26
 194 101 194 101 210 71 c 1,27,-1
 452 590 l 1,28,29
 412 651 412 651 335 651 c 0,30,31
 260 651 260 651 226 600 c 0,32,33
 190 547 190 547 183.5 492 c 128,-1,22
 177 437 177 437 175.5 405.5 c 128,-1,23
496 328 m 0,34,35
 496 494 496 494 465 565 c 1,36,-1
 224 49 l 1,37,38
 263 -1 263 -1 336.5 -1 c 128,-1,39
 410 -1 410 -1 445 52 c 128,-1,40
 480 105 480 105 488 174 c 128,-1,41
 496 243 496 243 496 328 c 0,34,35
EndSplineSet
EndChar

StartChar: Ugrave
Encoding: 217 217 155
Width: 679
GlyphClass: 2
Flags: W
LayerCount: 2
Fore
SplineSet
116 634 m 1,0,-1
 43 634 l 1,1,-1
 43 650 l 1,2,-1
 303 650 l 1,3,-1
 303 634 l 1,4,-1
 220 634 l 1,5,-1
 220 308 l 2,6,7
 220 168 220 168 234 118 c 0,8,9
 251 57 251 57 281 34 c 0,10,11
 322 3 322 3 372 3 c 128,-1,12
 422 3 422 3 452 20 c 128,-1,13
 482 37 482 37 499 63.5 c 128,-1,14
 516 90 516 90 526 130 c 0,15,16
 542 195 542 195 542 293 c 2,17,-1
 542 507 l 2,18,19
 542 580 542 580 514.5 607 c 128,-1,20
 487 634 487 634 414 634 c 2,21,-1
 407 634 l 1,22,-1
 407 650 l 1,23,-1
 693 650 l 1,24,-1
 693 634 l 1,25,26
 620 634 620 634 591 606.5 c 128,-1,27
 562 579 562 579 562 507 c 2,28,-1
 562 328 l 2,29,30
 562 176 562 176 542 112 c 0,31,32
 520 45 520 45 482 16 c 0,33,34
 435 -20 435 -20 363 -20 c 128,-1,35
 291 -20 291 -20 242.5 3.5 c 128,-1,36
 194 27 194 27 166 73 c 0,37,38
 116 157 116 157 116 308 c 2,39,-1
 116 634 l 1,0,-1
248 828 m 0,40,41
 248 843 248 843 257.5 852 c 128,-1,42
 267 861 267 861 286.5 861 c 128,-1,43
 306 861 306 861 328 834 c 1,44,45
 332 826 332 826 341 817 c 128,-1,46
 350 808 350 808 357.5 799 c 128,-1,47
 365 790 365 790 370.5 785.5 c 128,-1,48
 376 781 376 781 385 772.5 c 128,-1,49
 394 764 394 764 402 758 c 128,-1,50
 410 752 410 752 421 744 c 0,51,52
 438 732 438 732 469 715 c 1,53,-1
 462 700 l 1,54,-1
 282 784 l 2,55,56
 248 799 248 799 248 828 c 0,40,41
EndSplineSet
EndChar

StartChar: Uacute
Encoding: 218 218 156
Width: 679
GlyphClass: 2
Flags: W
LayerCount: 2
Fore
SplineSet
116 634 m 1,0,-1
 43 634 l 1,1,-1
 43 650 l 1,2,-1
 303 650 l 1,3,-1
 303 634 l 1,4,-1
 220 634 l 1,5,-1
 220 308 l 2,6,7
 220 168 220 168 234 118 c 0,8,9
 251 57 251 57 281 34 c 0,10,11
 322 3 322 3 372 3 c 128,-1,12
 422 3 422 3 452 20 c 128,-1,13
 482 37 482 37 499 63.5 c 128,-1,14
 516 90 516 90 526 130 c 0,15,16
 542 195 542 195 542 293 c 2,17,-1
 542 507 l 2,18,19
 542 580 542 580 514.5 607 c 128,-1,20
 487 634 487 634 414 634 c 2,21,-1
 407 634 l 1,22,-1
 407 650 l 1,23,-1
 693 650 l 1,24,-1
 693 634 l 1,25,26
 620 634 620 634 591 606.5 c 128,-1,27
 562 579 562 579 562 507 c 2,28,-1
 562 328 l 2,29,30
 562 176 562 176 542 112 c 0,31,32
 520 45 520 45 482 16 c 0,33,34
 435 -20 435 -20 363 -20 c 128,-1,35
 291 -20 291 -20 242.5 3.5 c 128,-1,36
 194 27 194 27 166 73 c 0,37,38
 116 157 116 157 116 308 c 2,39,-1
 116 634 l 1,0,-1
434 834 m 2,40,41
 456 861 456 861 476 861 c 0,42,43
 514 861 514 861 514 828 c 0,44,45
 514 799 514 799 480 784 c 2,46,-1
 300 700 l 1,47,-1
 293 715 l 1,48,49
 340 740 340 740 359.5 757 c 128,-1,50
 379 774 379 774 384.5 778.5 c 128,-1,51
 390 783 390 783 400 794.5 c 128,-1,52
 410 806 410 806 412 808 c 128,-1,53
 414 810 414 810 424 822 c 2,54,-1
 434 834 l 2,40,41
EndSplineSet
EndChar

StartChar: Ucircumflex
Encoding: 219 219 157
Width: 679
GlyphClass: 2
Flags: W
LayerCount: 2
Fore
SplineSet
116 634 m 1,0,-1
 43 634 l 1,1,-1
 43 650 l 1,2,-1
 303 650 l 1,3,-1
 303 634 l 1,4,-1
 220 634 l 1,5,-1
 220 308 l 2,6,7
 220 168 220 168 234 118 c 0,8,9
 251 57 251 57 281 34 c 0,10,11
 322 3 322 3 372 3 c 128,-1,12
 422 3 422 3 452 20 c 128,-1,13
 482 37 482 37 499 63.5 c 128,-1,14
 516 90 516 90 526 130 c 0,15,16
 542 195 542 195 542 293 c 2,17,-1
 542 507 l 2,18,19
 542 580 542 580 514.5 607 c 128,-1,20
 487 634 487 634 414 634 c 2,21,-1
 407 634 l 1,22,-1
 407 650 l 1,23,-1
 693 650 l 1,24,-1
 693 634 l 1,25,26
 620 634 620 634 591 606.5 c 128,-1,27
 562 579 562 579 562 507 c 2,28,-1
 562 328 l 2,29,30
 562 176 562 176 542 112 c 0,31,32
 520 45 520 45 482 16 c 0,33,34
 435 -20 435 -20 363 -20 c 128,-1,35
 291 -20 291 -20 242.5 3.5 c 128,-1,36
 194 27 194 27 166 73 c 0,37,38
 116 157 116 157 116 308 c 2,39,-1
 116 634 l 1,0,-1
381 861 m 128,-1,41
 404 861 404 861 427 834 c 1,42,43
 431 826 431 826 440 817 c 128,-1,44
 449 808 449 808 456.5 799 c 128,-1,45
 464 790 464 790 469.5 785.5 c 128,-1,46
 475 781 475 781 484 772.5 c 128,-1,47
 493 764 493 764 501 758 c 128,-1,48
 509 752 509 752 520 744 c 0,49,50
 537 732 537 732 568 715 c 1,51,-1
 561 700 l 1,52,-1
 381 784 l 1,53,-1
 201 700 l 1,54,-1
 194 715 l 1,55,56
 241 740 241 740 260.5 757 c 128,-1,57
 280 774 280 774 285.5 778.5 c 128,-1,58
 291 783 291 783 301 794.5 c 128,-1,59
 311 806 311 806 313 808 c 128,-1,60
 315 810 315 810 325 822 c 2,61,-1
 335 834 l 2,62,40
 358 861 358 861 381 861 c 128,-1,41
EndSplineSet
EndChar

StartChar: Udieresis
Encoding: 220 220 158
Width: 734
GlyphClass: 2
Flags: W
LayerCount: 2
Fore
SplineSet
116 634 m 1,0,-1
 43 634 l 1,1,-1
 43 650 l 1,2,-1
 303 650 l 1,3,-1
 303 634 l 1,4,-1
 220 634 l 1,5,-1
 220 308 l 2,6,7
 220 168 220 168 234 118 c 0,8,9
 251 57 251 57 281 34 c 0,10,11
 322 3 322 3 372 3 c 128,-1,12
 422 3 422 3 452 20 c 128,-1,13
 482 37 482 37 499 63.5 c 128,-1,14
 516 90 516 90 526 130 c 0,15,16
 542 195 542 195 542 293 c 2,17,-1
 542 507 l 2,18,19
 542 580 542 580 514.5 607 c 128,-1,20
 487 634 487 634 414 634 c 2,21,-1
 407 634 l 1,22,-1
 407 650 l 1,23,-1
 693 650 l 1,24,-1
 693 634 l 1,25,26
 620 634 620 634 591 606.5 c 128,-1,27
 562 579 562 579 562 507 c 2,28,-1
 562 328 l 2,29,30
 562 176 562 176 542 112 c 0,31,32
 520 45 520 45 482 16 c 0,33,34
 435 -20 435 -20 363 -20 c 128,-1,35
 291 -20 291 -20 242.5 3.5 c 128,-1,36
 194 27 194 27 166 73 c 0,37,38
 116 157 116 157 116 308 c 2,39,-1
 116 634 l 1,0,-1
395 792 m 128,-1,41
 395 817 395 817 413 834.5 c 128,-1,42
 431 852 431 852 456 852 c 128,-1,43
 481 852 481 852 498.5 834.5 c 128,-1,44
 516 817 516 817 516 792 c 128,-1,45
 516 767 516 767 498.5 749 c 128,-1,46
 481 731 481 731 456 731 c 128,-1,47
 431 731 431 731 413 749 c 128,-1,40
 395 767 395 767 395 792 c 128,-1,41
216 792 m 128,-1,49
 216 817 216 817 233.5 834.5 c 128,-1,50
 251 852 251 852 276 852 c 128,-1,51
 301 852 301 852 319 834.5 c 128,-1,52
 337 817 337 817 337 792 c 128,-1,53
 337 767 337 767 319 749 c 128,-1,54
 301 731 301 731 276 731 c 128,-1,55
 251 731 251 731 233.5 749 c 128,-1,48
 216 767 216 767 216 792 c 128,-1,49
EndSplineSet
EndChar

StartChar: Yacute
Encoding: 221 221 159
Width: 598
GlyphClass: 2
Flags: W
LayerCount: 2
Fore
SplineSet
612 649 m 1,0,-1
 612 633 l 1,1,2
 565 631 565 631 533 613.5 c 128,-1,3
 501 596 501 596 478 551 c 2,4,-1
 357 311 l 1,5,-1
 357 16 l 1,6,-1
 440 16 l 1,7,-1
 440 0 l 1,8,-1
 180 0 l 1,9,-1
 180 16 l 1,10,-1
 253 16 l 1,11,-1
 253 301 l 1,12,-1
 74 634 l 1,13,-1
 1 634 l 1,14,-1
 1 650 l 1,15,-1
 269 650 l 1,16,-1
 269 634 l 1,17,-1
 186 634 l 1,18,-1
 346 331 l 1,19,-1
 430 494 l 2,20,21
 456 546 456 546 456 578 c 128,-1,22
 456 610 456 610 431.5 621.5 c 128,-1,23
 407 633 407 633 360 633 c 2,24,-1
 352 633 l 1,25,-1
 352 649 l 1,26,-1
 612 649 l 1,0,-1
403 834 m 2,27,28
 426 861 426 861 445 861 c 128,-1,29
 464 861 464 861 473.5 852 c 128,-1,30
 483 843 483 843 483 828 c 0,31,32
 483 799 483 799 449 784 c 2,33,-1
 269 700 l 1,34,-1
 262 715 l 1,35,36
 309 740 309 740 328.5 757 c 128,-1,37
 348 774 348 774 353.5 778.5 c 128,-1,38
 359 783 359 783 369 794.5 c 128,-1,39
 379 806 379 806 381 808 c 128,-1,40
 383 810 383 810 393 822 c 2,41,-1
 403 834 l 2,27,28
EndSplineSet
EndChar

StartChar: Thorn
Encoding: 222 222 160
Width: 588
GlyphClass: 2
Flags: W
LayerCount: 2
Fore
SplineSet
94 675 m 1,0,-1
 26 675 l 1,1,-1
 26 690 l 1,2,-1
 250 690 l 1,3,-1
 250 675 l 1,4,-1
 183 675 l 1,5,-1
 183 561 l 1,6,-1
 254 561 l 2,7,8
 414 561 414 561 477 516 c 128,-1,9
 540 471 540 471 540 372 c 0,10,11
 540 302 540 302 503 256 c 128,-1,12
 466 210 466 210 412.5 192.5 c 128,-1,13
 359 175 359 175 296.5 175 c 128,-1,14
 234 175 234 175 183 187 c 1,15,-1
 183 15 l 1,16,-1
 251 15 l 1,17,-1
 251 0 l 1,18,-1
 27 0 l 1,19,-1
 27 15 l 1,20,-1
 94 15 l 1,21,-1
 94 675 l 1,0,-1
218 545 m 2,22,-1
 183 545 l 1,23,-1
 183 205 l 1,24,25
 233 195 233 195 274 195 c 0,26,27
 443 195 443 195 443 372 c 0,28,29
 443 465 443 465 388 505 c 128,-1,30
 333 545 333 545 218 545 c 2,22,-1
EndSplineSet
EndChar

StartChar: germandbls
Encoding: 223 223 161
Width: 602
GlyphClass: 2
Flags: W
LayerCount: 2
Fore
SplineSet
534.5 24.5 m 128,-1,1
 487 -20 487 -20 416.5 -20 c 128,-1,2
 346 -20 346 -20 303.5 8 c 128,-1,3
 261 36 261 36 261 93 c 0,4,5
 261 123 261 123 280.5 143.5 c 128,-1,6
 300 164 300 164 326.5 164 c 128,-1,7
 353 164 353 164 369.5 148.5 c 128,-1,8
 386 133 386 133 386 111 c 128,-1,9
 386 89 386 89 372 73 c 128,-1,10
 358 57 358 57 331 57 c 128,-1,11
 304 57 304 57 298 83 c 0,12,13
 296 92 296 92 288 92 c 128,-1,14
 280 92 280 92 280 83 c 0,15,16
 280 52 280 52 308.5 26 c 128,-1,17
 337 0 337 0 398.5 0 c 128,-1,18
 460 0 460 0 489 26 c 128,-1,19
 518 52 518 52 518 89.5 c 128,-1,20
 518 127 518 127 492 151 c 128,-1,21
 466 175 466 175 429 191 c 128,-1,22
 392 207 392 207 355.5 224 c 128,-1,23
 319 241 319 241 293 271 c 128,-1,24
 267 301 267 301 267 336 c 128,-1,25
 267 371 267 371 288 393 c 128,-1,26
 309 415 309 415 333.5 427 c 128,-1,27
 358 439 358 439 379 465 c 128,-1,28
 400 491 400 491 400 535 c 128,-1,29
 400 579 400 579 372 605.5 c 128,-1,30
 344 632 344 632 295 632 c 128,-1,31
 246 632 246 632 221 600.5 c 128,-1,32
 196 569 196 569 196 490 c 2,33,-1
 196 16 l 1,34,-1
 253 16 l 1,35,-1
 253 0 l 1,36,-1
 39 0 l 1,37,-1
 39 16 l 1,38,-1
 92 16 l 1,39,-1
 92 490 l 2,40,41
 92 561 92 561 149 605.5 c 128,-1,42
 206 650 206 650 305.5 650 c 128,-1,43
 405 650 405 650 458.5 624 c 128,-1,44
 512 598 512 598 512 535 c 0,45,46
 512 504 512 504 494 482.5 c 128,-1,47
 476 461 476 461 456 453 c 128,-1,48
 436 445 436 445 400.5 434.5 c 128,-1,49
 365 424 365 424 352 418 c 0,50,51
 309 400 309 400 309 374 c 0,52,53
 309 335 309 335 392 296 c 0,54,55
 438 274 438 274 478 258 c 128,-1,56
 518 242 518 242 550 208 c 128,-1,57
 582 174 582 174 582 121.5 c 128,-1,0
 582 69 582 69 534.5 24.5 c 128,-1,1
EndSplineSet
EndChar

StartChar: agrave
Encoding: 224 224 162
Width: 525
GlyphClass: 2
Flags: W
LayerCount: 2
Fore
SplineSet
114 647 m 0,0,1
 114 662 114 662 123.5 671 c 128,-1,2
 133 680 133 680 152.5 680 c 128,-1,3
 172 680 172 680 194 653 c 1,4,5
 198 645 198 645 207 636 c 128,-1,6
 216 627 216 627 223.5 618 c 128,-1,7
 231 609 231 609 236.5 604.5 c 128,-1,8
 242 600 242 600 251 591.5 c 128,-1,9
 260 583 260 583 268 577 c 128,-1,10
 276 571 276 571 287 563 c 0,11,12
 304 551 304 551 335 534 c 1,13,-1
 328 519 l 1,14,-1
 148 603 l 2,15,16
 114 618 114 618 114 647 c 0,0,1
241 480 m 0,17,18
 360 480 360 480 398.5 426.5 c 128,-1,19
 437 373 437 373 437 240 c 2,20,-1
 437 63 l 2,21,22
 437 22 437 22 455 22 c 0,23,24
 492 22 492 22 504 137 c 1,25,-1
 522 135 l 1,26,27
 507 -20 507 -20 421 -20 c 0,28,29
 396 -20 396 -20 382.5 -2 c 128,-1,30
 369 16 369 16 365.5 37.5 c 128,-1,31
 362 59 362 59 362 91 c 1,32,-1
 356 91 l 1,33,34
 343 38 343 38 303 9 c 128,-1,35
 263 -20 263 -20 200.5 -20 c 128,-1,36
 138 -20 138 -20 91 13.5 c 128,-1,37
 44 47 44 47 44 110 c 0,38,39
 44 157 44 157 71 188 c 0,40,41
 127 252 127 252 325 252 c 0,42,43
 336 252 336 252 348 252 c 1,44,-1
 348 301 l 2,45,46
 348 380 348 380 321 420 c 128,-1,47
 294 460 294 460 227.5 460 c 128,-1,48
 161 460 161 460 130 433 c 128,-1,49
 99 406 99 406 99 377 c 0,50,51
 99 368 99 368 107.5 368 c 128,-1,52
 116 368 116 368 117 377 c 1,53,54
 123 403 123 403 157 403 c 0,55,56
 179 403 179 403 192 387.5 c 128,-1,57
 205 372 205 372 205 349.5 c 128,-1,58
 205 327 205 327 188.5 311.5 c 128,-1,59
 172 296 172 296 145.5 296 c 128,-1,60
 119 296 119 296 99.5 316.5 c 128,-1,61
 80 337 80 337 80 367 c 0,62,63
 80 423 80 423 127 451.5 c 128,-1,64
 174 480 174 480 241 480 c 0,17,18
348 167 m 2,65,-1
 348 234 l 1,66,67
 338 234 338 234 316.5 234 c 128,-1,68
 295 234 295 234 265.5 231 c 128,-1,69
 236 228 236 228 205 216 c 0,70,71
 141 193 141 193 141 114 c 0,72,73
 141 66 141 66 164 37 c 128,-1,74
 187 8 187 8 238 8 c 128,-1,75
 289 8 289 8 318.5 54 c 128,-1,76
 348 100 348 100 348 167 c 2,65,-1
EndSplineSet
EndChar

StartChar: aacute
Encoding: 225 225 163
Width: 525
GlyphClass: 2
Flags: W
LayerCount: 2
Fore
SplineSet
312 653 m 2,0,1
 334 680 334 680 354 680 c 0,2,3
 392 680 392 680 392 647 c 0,4,5
 392 618 392 618 358 603 c 2,6,-1
 178 519 l 1,7,-1
 171 534 l 1,8,9
 218 559 218 559 237.5 576 c 128,-1,10
 257 593 257 593 262.5 597.5 c 128,-1,11
 268 602 268 602 278 613.5 c 128,-1,12
 288 625 288 625 290 627 c 128,-1,13
 292 629 292 629 302 641 c 2,14,-1
 312 653 l 2,0,1
241 480 m 0,15,16
 360 480 360 480 398.5 426.5 c 128,-1,17
 437 373 437 373 437 240 c 2,18,-1
 437 63 l 2,19,20
 437 22 437 22 455 22 c 0,21,22
 492 22 492 22 504 137 c 1,23,-1
 522 135 l 1,24,25
 507 -20 507 -20 421 -20 c 0,26,27
 396 -20 396 -20 382.5 -2 c 128,-1,28
 369 16 369 16 365.5 37.5 c 128,-1,29
 362 59 362 59 362 91 c 1,30,-1
 356 91 l 1,31,32
 343 38 343 38 303 9 c 128,-1,33
 263 -20 263 -20 200.5 -20 c 128,-1,34
 138 -20 138 -20 91 13.5 c 128,-1,35
 44 47 44 47 44 110 c 0,36,37
 44 157 44 157 71 188 c 0,38,39
 127 252 127 252 325 252 c 0,40,41
 336 252 336 252 348 252 c 1,42,-1
 348 301 l 2,43,44
 348 380 348 380 321 420 c 128,-1,45
 294 460 294 460 227.5 460 c 128,-1,46
 161 460 161 460 130 433 c 128,-1,47
 99 406 99 406 99 377 c 0,48,49
 99 368 99 368 107.5 368 c 128,-1,50
 116 368 116 368 117 377 c 1,51,52
 123 403 123 403 157 403 c 0,53,54
 179 403 179 403 192 387.5 c 128,-1,55
 205 372 205 372 205 349.5 c 128,-1,56
 205 327 205 327 188.5 311.5 c 128,-1,57
 172 296 172 296 145.5 296 c 128,-1,58
 119 296 119 296 99.5 316.5 c 128,-1,59
 80 337 80 337 80 367 c 0,60,61
 80 423 80 423 127 451.5 c 128,-1,62
 174 480 174 480 241 480 c 0,15,16
348 167 m 2,63,-1
 348 234 l 1,64,65
 338 234 338 234 316.5 234 c 128,-1,66
 295 234 295 234 265.5 231 c 128,-1,67
 236 228 236 228 205 216 c 0,68,69
 141 193 141 193 141 114 c 0,70,71
 141 66 141 66 164 37 c 128,-1,72
 187 8 187 8 238 8 c 128,-1,73
 289 8 289 8 318.5 54 c 128,-1,74
 348 100 348 100 348 167 c 2,63,-1
EndSplineSet
EndChar

StartChar: acircumflex
Encoding: 226 226 164
Width: 525
GlyphClass: 2
Flags: W
LayerCount: 2
Fore
SplineSet
264 680 m 128,-1,1
 288 680 288 680 310 653 c 1,2,3
 314 645 314 645 323 636 c 128,-1,4
 332 627 332 627 339.5 618 c 128,-1,5
 347 609 347 609 352.5 604.5 c 128,-1,6
 358 600 358 600 367 591.5 c 128,-1,7
 376 583 376 583 384 577 c 128,-1,8
 392 571 392 571 403 563 c 0,9,10
 420 551 420 551 451 534 c 1,11,-1
 444 519 l 1,12,-1
 264 603 l 1,13,-1
 84 519 l 1,14,-1
 77 534 l 1,15,16
 124 559 124 559 143.5 576 c 128,-1,17
 163 593 163 593 168.5 597.5 c 128,-1,18
 174 602 174 602 184 613.5 c 128,-1,19
 194 625 194 625 196 627 c 128,-1,20
 198 629 198 629 208 641 c 2,21,-1
 218 653 l 2,22,0
 240 680 240 680 264 680 c 128,-1,1
241 480 m 0,23,24
 360 480 360 480 398.5 426.5 c 128,-1,25
 437 373 437 373 437 240 c 2,26,-1
 437 63 l 2,27,28
 437 22 437 22 455 22 c 0,29,30
 492 22 492 22 504 137 c 1,31,-1
 522 135 l 1,32,33
 507 -20 507 -20 421 -20 c 0,34,35
 396 -20 396 -20 382.5 -2 c 128,-1,36
 369 16 369 16 365.5 37.5 c 128,-1,37
 362 59 362 59 362 91 c 1,38,-1
 356 91 l 1,39,40
 343 38 343 38 303 9 c 128,-1,41
 263 -20 263 -20 200.5 -20 c 128,-1,42
 138 -20 138 -20 91 13.5 c 128,-1,43
 44 47 44 47 44 110 c 0,44,45
 44 157 44 157 71 188 c 0,46,47
 127 252 127 252 325 252 c 0,48,49
 336 252 336 252 348 252 c 1,50,-1
 348 301 l 2,51,52
 348 380 348 380 321 420 c 128,-1,53
 294 460 294 460 227.5 460 c 128,-1,54
 161 460 161 460 130 433 c 128,-1,55
 99 406 99 406 99 377 c 0,56,57
 99 368 99 368 107.5 368 c 128,-1,58
 116 368 116 368 117 377 c 1,59,60
 123 403 123 403 157 403 c 0,61,62
 179 403 179 403 192 387.5 c 128,-1,63
 205 372 205 372 205 349.5 c 128,-1,64
 205 327 205 327 188.5 311.5 c 128,-1,65
 172 296 172 296 145.5 296 c 128,-1,66
 119 296 119 296 99.5 316.5 c 128,-1,67
 80 337 80 337 80 367 c 0,68,69
 80 423 80 423 127 451.5 c 128,-1,70
 174 480 174 480 241 480 c 0,23,24
348 167 m 2,71,-1
 348 234 l 1,72,73
 338 234 338 234 316.5 234 c 128,-1,74
 295 234 295 234 265.5 231 c 128,-1,75
 236 228 236 228 205 216 c 0,76,77
 141 193 141 193 141 114 c 0,78,79
 141 66 141 66 164 37 c 128,-1,80
 187 8 187 8 238 8 c 128,-1,81
 289 8 289 8 318.5 54 c 128,-1,82
 348 100 348 100 348 167 c 2,71,-1
EndSplineSet
EndChar

StartChar: atilde
Encoding: 227 227 165
Width: 525
GlyphClass: 2
Flags: W
LayerCount: 2
Fore
SplineSet
117 639.5 m 128,-1,1
 137 671 137 671 167.5 671 c 128,-1,2
 198 671 198 671 251.5 645 c 128,-1,3
 305 619 305 619 325 619 c 0,4,5
 375 619 375 619 375 670 c 1,6,-1
 390 670 l 1,7,8
 390 623 390 623 370 591.5 c 128,-1,9
 350 560 350 560 319 560 c 128,-1,10
 288 560 288 560 234.5 586 c 128,-1,11
 181 612 181 612 162 612 c 0,12,13
 112 612 112 612 112 561 c 1,14,-1
 97 561 l 1,15,0
 97 608 97 608 117 639.5 c 128,-1,1
241 480 m 0,16,17
 360 480 360 480 398.5 426.5 c 128,-1,18
 437 373 437 373 437 240 c 2,19,-1
 437 63 l 2,20,21
 437 22 437 22 455 22 c 0,22,23
 492 22 492 22 504 137 c 1,24,-1
 522 135 l 1,25,26
 507 -20 507 -20 421 -20 c 0,27,28
 396 -20 396 -20 382.5 -2 c 128,-1,29
 369 16 369 16 365.5 37.5 c 128,-1,30
 362 59 362 59 362 91 c 1,31,-1
 356 91 l 1,32,33
 343 38 343 38 303 9 c 128,-1,34
 263 -20 263 -20 200.5 -20 c 128,-1,35
 138 -20 138 -20 91 13.5 c 128,-1,36
 44 47 44 47 44 110 c 0,37,38
 44 157 44 157 71 188 c 0,39,40
 127 252 127 252 325 252 c 0,41,42
 336 252 336 252 348 252 c 1,43,-1
 348 301 l 2,44,45
 348 380 348 380 321 420 c 128,-1,46
 294 460 294 460 227.5 460 c 128,-1,47
 161 460 161 460 130 433 c 128,-1,48
 99 406 99 406 99 377 c 0,49,50
 99 368 99 368 107.5 368 c 128,-1,51
 116 368 116 368 117 377 c 1,52,53
 123 403 123 403 157 403 c 0,54,55
 179 403 179 403 192 387.5 c 128,-1,56
 205 372 205 372 205 349.5 c 128,-1,57
 205 327 205 327 188.5 311.5 c 128,-1,58
 172 296 172 296 145.5 296 c 128,-1,59
 119 296 119 296 99.5 316.5 c 128,-1,60
 80 337 80 337 80 367 c 0,61,62
 80 423 80 423 127 451.5 c 128,-1,63
 174 480 174 480 241 480 c 0,16,17
348 167 m 2,64,-1
 348 234 l 1,65,66
 338 234 338 234 316.5 234 c 128,-1,67
 295 234 295 234 265.5 231 c 128,-1,68
 236 228 236 228 205 216 c 0,69,70
 141 193 141 193 141 114 c 0,71,72
 141 66 141 66 164 37 c 128,-1,73
 187 8 187 8 238 8 c 128,-1,74
 289 8 289 8 318.5 54 c 128,-1,75
 348 100 348 100 348 167 c 2,64,-1
EndSplineSet
EndChar

StartChar: adieresis
Encoding: 228 228 166
Width: 525
GlyphClass: 2
Flags: W
LayerCount: 2
Fore
SplineSet
302 611 m 128,-1,1
 302 636 302 636 320 653.5 c 128,-1,2
 338 671 338 671 363 671 c 128,-1,3
 388 671 388 671 405.5 653.5 c 128,-1,4
 423 636 423 636 423 611 c 128,-1,5
 423 586 423 586 405.5 568 c 128,-1,6
 388 550 388 550 363 550 c 128,-1,7
 338 550 338 550 320 568 c 128,-1,0
 302 586 302 586 302 611 c 128,-1,1
123 611 m 128,-1,9
 123 636 123 636 140.5 653.5 c 128,-1,10
 158 671 158 671 183 671 c 128,-1,11
 208 671 208 671 226 653.5 c 128,-1,12
 244 636 244 636 244 611 c 128,-1,13
 244 586 244 586 226 568 c 128,-1,14
 208 550 208 550 183 550 c 128,-1,15
 158 550 158 550 140.5 568 c 128,-1,8
 123 586 123 586 123 611 c 128,-1,9
241 480 m 0,16,17
 360 480 360 480 398.5 426.5 c 128,-1,18
 437 373 437 373 437 240 c 2,19,-1
 437 63 l 2,20,21
 437 22 437 22 455 22 c 0,22,23
 492 22 492 22 504 137 c 1,24,-1
 522 135 l 1,25,26
 507 -20 507 -20 421 -20 c 0,27,28
 396 -20 396 -20 382.5 -2 c 128,-1,29
 369 16 369 16 365.5 37.5 c 128,-1,30
 362 59 362 59 362 91 c 1,31,-1
 356 91 l 1,32,33
 343 38 343 38 303 9 c 128,-1,34
 263 -20 263 -20 200.5 -20 c 128,-1,35
 138 -20 138 -20 91 13.5 c 128,-1,36
 44 47 44 47 44 110 c 0,37,38
 44 157 44 157 71 188 c 0,39,40
 127 252 127 252 325 252 c 0,41,42
 336 252 336 252 348 252 c 1,43,-1
 348 301 l 2,44,45
 348 380 348 380 321 420 c 128,-1,46
 294 460 294 460 227.5 460 c 128,-1,47
 161 460 161 460 130 433 c 128,-1,48
 99 406 99 406 99 377 c 0,49,50
 99 368 99 368 107.5 368 c 128,-1,51
 116 368 116 368 117 377 c 1,52,53
 123 403 123 403 157 403 c 0,54,55
 179 403 179 403 192 387.5 c 128,-1,56
 205 372 205 372 205 349.5 c 128,-1,57
 205 327 205 327 188.5 311.5 c 128,-1,58
 172 296 172 296 145.5 296 c 128,-1,59
 119 296 119 296 99.5 316.5 c 128,-1,60
 80 337 80 337 80 367 c 0,61,62
 80 423 80 423 127 451.5 c 128,-1,63
 174 480 174 480 241 480 c 0,16,17
348 167 m 2,64,-1
 348 234 l 1,65,66
 338 234 338 234 316.5 234 c 128,-1,67
 295 234 295 234 265.5 231 c 128,-1,68
 236 228 236 228 205 216 c 0,69,70
 141 193 141 193 141 114 c 0,71,72
 141 66 141 66 164 37 c 128,-1,73
 187 8 187 8 238 8 c 128,-1,74
 289 8 289 8 318.5 54 c 128,-1,75
 348 100 348 100 348 167 c 2,64,-1
EndSplineSet
EndChar

StartChar: aring
Encoding: 229 229 167
Width: 525
GlyphClass: 2
Flags: W
LayerCount: 2
Fore
SplineSet
209 610 m 128,-1,1
 209 593 209 593 221.5 580 c 128,-1,2
 234 567 234 567 250.5 567 c 128,-1,3
 267 567 267 567 279.5 580 c 128,-1,4
 292 593 292 593 292 610 c 128,-1,5
 292 627 292 627 279.5 639.5 c 128,-1,6
 267 652 267 652 250.5 652 c 128,-1,7
 234 652 234 652 221.5 639.5 c 128,-1,0
 209 627 209 627 209 610 c 128,-1,1
208 566.5 m 128,-1,9
 191 584 191 584 191 609.5 c 128,-1,10
 191 635 191 635 208 652.5 c 128,-1,11
 225 670 225 670 250 670 c 128,-1,12
 275 670 275 670 292.5 652.5 c 128,-1,13
 310 635 310 635 310 609.5 c 128,-1,14
 310 584 310 584 292.5 566.5 c 128,-1,15
 275 549 275 549 250 549 c 128,-1,8
 225 549 225 549 208 566.5 c 128,-1,9
241 480 m 0,16,17
 360 480 360 480 398.5 426.5 c 128,-1,18
 437 373 437 373 437 240 c 2,19,-1
 437 63 l 2,20,21
 437 22 437 22 455 22 c 0,22,23
 492 22 492 22 504 137 c 1,24,-1
 522 135 l 1,25,26
 507 -20 507 -20 421 -20 c 0,27,28
 396 -20 396 -20 382.5 -2 c 128,-1,29
 369 16 369 16 365.5 37.5 c 128,-1,30
 362 59 362 59 362 91 c 1,31,-1
 356 91 l 1,32,33
 343 38 343 38 303 9 c 128,-1,34
 263 -20 263 -20 200.5 -20 c 128,-1,35
 138 -20 138 -20 91 13.5 c 128,-1,36
 44 47 44 47 44 110 c 0,37,38
 44 157 44 157 71 188 c 0,39,40
 127 252 127 252 325 252 c 0,41,42
 336 252 336 252 348 252 c 1,43,-1
 348 301 l 2,44,45
 348 380 348 380 321 420 c 128,-1,46
 294 460 294 460 227.5 460 c 128,-1,47
 161 460 161 460 130 433 c 128,-1,48
 99 406 99 406 99 377 c 0,49,50
 99 368 99 368 107.5 368 c 128,-1,51
 116 368 116 368 117 377 c 1,52,53
 123 403 123 403 157 403 c 0,54,55
 179 403 179 403 192 387.5 c 128,-1,56
 205 372 205 372 205 349.5 c 128,-1,57
 205 327 205 327 188.5 311.5 c 128,-1,58
 172 296 172 296 145.5 296 c 128,-1,59
 119 296 119 296 99.5 316.5 c 128,-1,60
 80 337 80 337 80 367 c 0,61,62
 80 423 80 423 127 451.5 c 128,-1,63
 174 480 174 480 241 480 c 0,16,17
348 167 m 2,64,-1
 348 234 l 1,65,66
 338 234 338 234 316.5 234 c 128,-1,67
 295 234 295 234 265.5 231 c 128,-1,68
 236 228 236 228 205 216 c 0,69,70
 141 193 141 193 141 114 c 0,71,72
 141 66 141 66 164 37 c 128,-1,73
 187 8 187 8 238 8 c 128,-1,74
 289 8 289 8 318.5 54 c 128,-1,75
 348 100 348 100 348 167 c 2,64,-1
EndSplineSet
EndChar

StartChar: ae
Encoding: 230 230 168
Width: 785
GlyphClass: 2
Flags: W
LayerCount: 2
Fore
SplineSet
571 480 m 0,0,1
 646 480 646 480 696.5 448 c 128,-1,2
 747 416 747 416 747 352 c 0,3,4
 747 253 747 253 634 230 c 0,5,6
 577 219 577 219 492 219 c 2,7,-1
 445 219 l 1,8,-1
 445 190 l 2,9,10
 445 109 445 109 478.5 58.5 c 128,-1,11
 512 8 512 8 576.5 8 c 128,-1,12
 641 8 641 8 677.5 46 c 128,-1,13
 714 84 714 84 729 144 c 1,14,-1
 747 142 l 1,15,16
 731 69 731 69 682.5 24.5 c 128,-1,17
 634 -20 634 -20 560 -20 c 0,18,19
 456 -20 456 -20 400 42 c 1,20,21
 393 35 393 35 379.5 24.5 c 128,-1,22
 366 14 366 14 316.5 -3 c 128,-1,23
 267 -20 267 -20 202.5 -20 c 128,-1,24
 138 -20 138 -20 91 13.5 c 128,-1,25
 44 47 44 47 44 110 c 0,26,27
 44 157 44 157 71 188 c 0,28,29
 127 252 127 252 325 252 c 0,30,31
 336 252 336 252 348 252 c 1,32,-1
 348 301 l 2,33,34
 348 380 348 380 321 420 c 128,-1,35
 294 460 294 460 227.5 460 c 128,-1,36
 161 460 161 460 130 433 c 128,-1,37
 99 406 99 406 99 377 c 0,38,39
 99 368 99 368 107.5 368 c 128,-1,40
 116 368 116 368 117 377 c 1,41,42
 123 403 123 403 157 403 c 0,43,44
 179 403 179 403 192 387.5 c 128,-1,45
 205 372 205 372 205 349.5 c 128,-1,46
 205 327 205 327 188.5 311.5 c 128,-1,47
 172 296 172 296 145.5 296 c 128,-1,48
 119 296 119 296 99.5 316.5 c 128,-1,49
 80 337 80 337 80 367 c 0,50,51
 80 423 80 423 127 451.5 c 128,-1,52
 174 480 174 480 241 480 c 0,53,54
 360 480 360 480 400 412 c 1,55,56
 460 480 460 480 571 480 c 0,0,1
348 167 m 2,57,-1
 348 234 l 1,58,59
 338 234 338 234 316.5 234 c 128,-1,60
 295 234 295 234 265.5 231 c 128,-1,61
 236 228 236 228 205 216 c 0,62,63
 141 193 141 193 141 114 c 0,64,65
 141 66 141 66 164 37 c 128,-1,66
 187 8 187 8 238 8 c 128,-1,67
 289 8 289 8 318.5 54 c 128,-1,68
 348 100 348 100 348 167 c 2,57,-1
445 237 m 1,69,-1
 480 237 l 2,70,71
 561 237 561 237 593.5 253 c 128,-1,72
 626 269 626 269 638 292.5 c 128,-1,73
 650 316 650 316 650 359 c 128,-1,74
 650 402 650 402 628.5 432.5 c 128,-1,75
 607 463 607 463 563 463 c 128,-1,76
 519 463 519 463 491.5 431.5 c 128,-1,77
 464 400 464 400 454.5 358 c 128,-1,78
 445 316 445 316 445 265 c 2,79,-1
 445 237 l 1,69,-1
EndSplineSet
EndChar

StartChar: ccedilla
Encoding: 231 231 169
Width: 459
GlyphClass: 2
Flags: W
LayerCount: 2
Fore
SplineSet
182 -73 m 1,0,1
 216 -51 216 -51 250 -51 c 128,-1,2
 284 -51 284 -51 314 -75 c 128,-1,3
 344 -99 344 -99 344 -143.5 c 128,-1,4
 344 -188 344 -188 319.5 -211.5 c 128,-1,5
 295 -235 295 -235 261 -235 c 128,-1,6
 227 -235 227 -235 206.5 -216 c 128,-1,7
 186 -197 186 -197 186 -171 c 128,-1,8
 186 -145 186 -145 201.5 -128.5 c 128,-1,9
 217 -112 217 -112 239.5 -112 c 128,-1,10
 262 -112 262 -112 277.5 -125.5 c 128,-1,11
 293 -139 293 -139 293 -160 c 0,12,13
 293 -193 293 -193 267 -199 c 1,14,15
 258 -200 258 -200 258 -208.5 c 128,-1,16
 258 -217 258 -217 268 -217 c 0,17,18
 291 -217 291 -217 308.5 -198 c 128,-1,19
 326 -179 326 -179 326 -145 c 128,-1,20
 326 -111 326 -111 301.5 -90 c 128,-1,21
 277 -69 277 -69 251.5 -69 c 128,-1,22
 226 -69 226 -69 203 -81.5 c 128,-1,23
 180 -94 180 -94 168 -112 c 1,24,-1
 154 -95 l 1,25,-1
 187 -6 l 1,26,27
 123 17 123 17 89.5 80 c 128,-1,28
 56 143 56 143 56 230 c 0,29,30
 56 345 56 345 110.5 412.5 c 128,-1,31
 165 480 165 480 273 480 c 0,32,33
 342 480 342 480 385 450 c 128,-1,34
 428 420 428 420 428 359 c 0,35,36
 428 329 428 329 408.5 308.5 c 128,-1,37
 389 288 389 288 362.5 288 c 128,-1,38
 336 288 336 288 319.5 303.5 c 128,-1,39
 303 319 303 319 303 341.5 c 128,-1,40
 303 364 303 364 316 379.5 c 128,-1,41
 329 395 329 395 351 395 c 0,42,43
 385 395 385 395 391 369 c 1,44,45
 392 360 392 360 400.5 360 c 128,-1,46
 409 360 409 360 409 369 c 0,47,48
 409 403 409 403 378.5 431.5 c 128,-1,49
 348 460 348 460 289 460 c 0,50,51
 153 460 153 460 153 234 c 128,-1,52
 153 8 153 8 291 8 c 0,53,54
 343 8 343 8 376.5 46 c 128,-1,55
 410 84 410 84 423 144 c 1,56,-1
 441 142 l 1,57,58
 426 69 426 69 381 24.5 c 128,-1,59
 336 -20 336 -20 267 -20 c 0,60,61
 235 -20 235 -20 205 -12 c 1,62,-1
 182 -73 l 1,0,1
EndSplineSet
EndChar

StartChar: egrave
Encoding: 232 232 170
Width: 490
GlyphClass: 2
Flags: W
LayerCount: 2
Fore
SplineSet
276 480 m 0,0,1
 351 480 351 480 401.5 448 c 128,-1,2
 452 416 452 416 452 352 c 0,3,4
 452 253 452 253 339 230 c 0,5,6
 282 219 282 219 197 219 c 2,7,-1
 150 219 l 1,8,-1
 150 190 l 2,9,10
 150 109 150 109 183.5 58.5 c 128,-1,11
 217 8 217 8 281.5 8 c 128,-1,12
 346 8 346 8 382.5 46 c 128,-1,13
 419 84 419 84 434 144 c 1,14,-1
 452 142 l 1,15,16
 436 69 436 69 387.5 24.5 c 128,-1,17
 339 -20 339 -20 265 -20 c 0,18,19
 161 -20 161 -20 107 48.5 c 128,-1,20
 53 117 53 117 53 230 c 128,-1,21
 53 343 53 343 111 411.5 c 128,-1,22
 169 480 169 480 276 480 c 0,0,1
150 237 m 1,23,-1
 185 237 l 2,24,25
 266 237 266 237 298.5 253 c 128,-1,26
 331 269 331 269 343 292.5 c 128,-1,27
 355 316 355 316 355 359 c 128,-1,28
 355 402 355 402 333.5 432.5 c 128,-1,29
 312 463 312 463 268 463 c 128,-1,30
 224 463 224 463 196.5 431.5 c 128,-1,31
 169 400 169 400 159.5 358 c 128,-1,32
 150 316 150 316 150 265 c 2,33,-1
 150 237 l 1,23,-1
141 647 m 0,34,35
 141 662 141 662 150.5 671 c 128,-1,36
 160 680 160 680 179 680 c 128,-1,37
 198 680 198 680 221 653 c 1,38,39
 225 645 225 645 234 636 c 128,-1,40
 243 627 243 627 250.5 618 c 128,-1,41
 258 609 258 609 263.5 604.5 c 128,-1,42
 269 600 269 600 278 591.5 c 128,-1,43
 287 583 287 583 295 577 c 128,-1,44
 303 571 303 571 314 563 c 0,45,46
 331 551 331 551 362 534 c 1,47,-1
 355 519 l 1,48,-1
 175 603 l 2,49,50
 141 618 141 618 141 647 c 0,34,35
EndSplineSet
EndChar

StartChar: eacute
Encoding: 233 233 171
Width: 490
GlyphClass: 2
Flags: W
LayerCount: 2
Fore
SplineSet
276 480 m 0,0,1
 351 480 351 480 401.5 448 c 128,-1,2
 452 416 452 416 452 352 c 0,3,4
 452 253 452 253 339 230 c 0,5,6
 282 219 282 219 197 219 c 2,7,-1
 150 219 l 1,8,-1
 150 190 l 2,9,10
 150 109 150 109 183.5 58.5 c 128,-1,11
 217 8 217 8 281.5 8 c 128,-1,12
 346 8 346 8 382.5 46 c 128,-1,13
 419 84 419 84 434 144 c 1,14,-1
 452 142 l 1,15,16
 436 69 436 69 387.5 24.5 c 128,-1,17
 339 -20 339 -20 265 -20 c 0,18,19
 161 -20 161 -20 107 48.5 c 128,-1,20
 53 117 53 117 53 230 c 128,-1,21
 53 343 53 343 111 411.5 c 128,-1,22
 169 480 169 480 276 480 c 0,0,1
150 237 m 1,23,-1
 185 237 l 2,24,25
 266 237 266 237 298.5 253 c 128,-1,26
 331 269 331 269 343 292.5 c 128,-1,27
 355 316 355 316 355 359 c 128,-1,28
 355 402 355 402 333.5 432.5 c 128,-1,29
 312 463 312 463 268 463 c 128,-1,30
 224 463 224 463 196.5 431.5 c 128,-1,31
 169 400 169 400 159.5 358 c 128,-1,32
 150 316 150 316 150 265 c 2,33,-1
 150 237 l 1,23,-1
320 653 m 2,34,35
 342 680 342 680 362 680 c 0,36,37
 400 680 400 680 400 647 c 0,38,39
 400 618 400 618 366 603 c 2,40,-1
 186 519 l 1,41,-1
 179 534 l 1,42,43
 226 559 226 559 245.5 576 c 128,-1,44
 265 593 265 593 270.5 597.5 c 128,-1,45
 276 602 276 602 286 613.5 c 128,-1,46
 296 625 296 625 298 627 c 128,-1,47
 300 629 300 629 310 641 c 2,48,-1
 320 653 l 2,34,35
EndSplineSet
EndChar

